# FamiTracker text export 0.4.2

# Song information
TITLE           "Mjees"
AUTHOR          ""
COPYRIGHT       ""

# Song comment
COMMENT ""

# Global settings
MACHINE         0
FRAMERATE       0
EXPANSION       0
VIBRATO         1
SPLIT           32

# Macros
MACRO       0   0  -1  -1   0 : 13 11 9 7 6 4 3
MACRO       0   1  -1  -1   0 : 15
MACRO       0   2  -1  -1   0 : 15 15 15 15 15 15 0
MACRO       0   3  -1  -1   0 : 12 6 3 0
MACRO       0   4  -1  -1   0 : 11 9 8 7 7 6 5 5 5 5 4 3 3 2 2 2 1 1 0
MACRO       0   5  -1  -1   0 : 15 9 0
MACRO       4   0  -1  -1   0 : 2

# DPCM samples
DPCMDEF   0   161 "Kirby_$FF40.dmc"
DPCM : 69 AA AA AA AA AA AA AA AA AA AA AA AA AA AA AA AA AA AA AA AA AA AA F0 AA AA AA AA EA 98 AA AA
DPCM : AA AA AA AA AA AA AA AA AA AA AA AA FA 07 F0 1F C0 3F 80 FF 00 FF 01 FC 03 F0 0F E0 3F 80 7F 00
DPCM : FF 01 FC 07 F0 1F C0 7F 80 FF 00 FC 03 F8 1F E0 3F 00 FF 00 FE 07 F8 0F C0 3F 80 FF 01 FE 03 F8
DPCM : 0F E0 3F 80 FF 00 FE 03 F8 0F E0 3F 80 FF 00 FE 03 F8 07 E0 7F C0 7F 00 FC 03 FC 0F F0 1F 80 7F
DPCM : 00 FF 03 FC 07 E0 3F C0 FF 00 FE 00 FA 07 F8 0F 60 A9 00 8D 15 40 20 00 00 A9 1F 8D 15 40 60 FF
DPCM : 00
DPCMDEF   1    65 "AkumajouDensetsu_$C000.dmc"
DPCM : 3F FC 7F DC E1 F9 0F DF F7 00 00 00 80 FD FF FF FF FE FE 7E 00 00 04 21 12 FC FF FF FF 07 00 00
DPCM : 00 00 C0 B7 FB FF FF FF FF FE FE FE 02 00 80 20 44 21 49 32 46 19 23 F8 FF FF FF FF 00 00 00 00
DPCM : FE
DPCMDEF   2   513 "AkumajouDensetsu_$C040.dmc"
DPCM : FE FF DE FF E3 EF 8C 44 40 31 37 09 80 18 60 00 C0 20 2F 3A A3 EE 3C EF 77 57 EF 9F AF FF DE BF
DPCM : 9E C9 24 41 09 09 09 29 00 00 04 00 18 74 9B BF 76 EB CF 7B DF FD F3 E7 C6 F3 81 E2 68 31 1C 31
DPCM : 88 6A C0 8F 06 0A 61 C6 38 D4 C5 C7 2F 1D 63 A7 D0 FC 63 CF B8 F1 B1 CF F1 DC 76 33 EE 30 E2 D0
DPCM : 08 38 84 01 42 0E 07 0C 1D 1E 7D 9E 7F E7 EF 3F 7F 3F 87 DC 63 18 73 0C 23 18 88 53 11 06 0D 62
DPCM : 03 3C 33 24 E7 7C AE F3 E7 1F F8 F0 F3 CF 71 AE 1C 8E CF 08 CE 0C CC 18 31 C2 40 E1 8E 18 2C D1
DPCM : 91 ED 9F 0F CF A7 3C FF 93 C7 CC F5 38 39 B8 19 47 88 46 D6 04 76 31 85 1C 58 63 9C 61 79 8C F3
DPCM : 98 F7 78 27 C7 9F 64 77 39 0F 8C F5 86 2F 91 8C 71 C7 21 E1 C4 19 8C 41 66 07 A6 2E 8A E7 43 CF
DPCM : 9E 1F 9E 71 F3 E3 B7 18 FC 63 C3 18 C3 B0 E0 E3 0F 08 E0 71 8C C1 8F 19 C3 39 39 99 F1 BC 74 76
DPCM : E2 F3 C7 97 19 E3 63 39 87 C6 37 0F 09 C6 71 23 88 E0 A9 83 8B 19 87 66 71 8C EF 0D DA F4 73 EE
DPCM : 1C DB 8E 76 1A 39 0E 71 C6 2E 31 C3 9C 59 07 A1 C0 F1 19 9C 58 CE 2E 2D 6E 3C E3 39 E3 8E B8 E7
DPCM : 1C E3 A7 0D 8E 47 94 B7 05 C2 39 E6 26 36 19 8C 74 98 CD 47 38 59 E8 D3 53 B8 F2 6E AC B3 B4 E5
DPCM : 71 27 8E 8C 8F 1A 3C 8A 73 8E 1C 6B 29 8E 1C 2C 68 D9 31 E3 55 47 39 AB 2D 97 38 D3 B1 CE 38 F1
DPCM : D4 B3 4E A9 62 AD 54 B2 38 C9 A8 AC A9 18 E6 51 9A 73 29 9E 39 9A D5 A7 96 D3 65 9D 58 BA 61 DA
DPCM : 46 AA 3C 52 B1 A5 66 63 8D 31 E0 E5 95 2A CC B2 9C AC AB 39 66 A7 4B 99 5A 6A CC AB 8B 55 A6 A6
DPCM : AA 3C 5A 39 38 E2 A4 B9 30 B9 54 AA 95 AA 65 5A 9C C7 59 B2 AE 6B 34 DC B2 D4 B1 D4 63 C5 34 6A
DPCM : 65 69 65 4C E3 35 4C 71 A5 54 D6 33 4D 71 92 EA 9A AB 56 55 5A CA 6A CE 33 3A 3C 65 56 39 8D 62
DPCM : F0
DPCMDEF   3   257 "AkumajouDensetsu_$C240.dmc"
DPCM : F0 03 00 FE FC FF E7 3E 00 00 F8 FF 1F 60 00 80 FF FF FF C0 0F F8 7D 0E 00 00 E0 FF 1F F8 FF FF
DPCM : 01 00 18 DD CF 11 20 00 84 9F FB 83 CF 8C FD FF 0F 00 FC 03 00 0C 00 00 FA BF FF FF FF 0F 00 3C
DPCM : 4F 90 00 80 80 FF FD EF 87 F9 FC FF 0B 00 88 D0 65 02 00 00 1B FE FF FF FF F9 7E 23 98 1D 19 00
DPCM : 00 0C FE FC CE C3 E3 1F F3 C3 46 83 C3 01 08 81 01 63 B7 F7 F3 3F 93 61 F4 38 E8 0D 02 21 38 82
DPCM : D3 8F E7 C6 BE CF FB 70 61 00 80 18 33 C6 8C 81 F1 FB FD F5 F3 7B E6 48 2E 60 60 C4 18 CC 8F E3
DPCM : 78 7F 7E 3E C6 8D 19 09 03 C1 46 E4 E0 71 FC 7C FF F9 CE 3C 1C 18 10 1A 18 58 B0 69 1E 4F 7F BE
DPCM : 79 C6 3B 0F 07 E3 71 48 C4 48 20 E3 CF 6F 9E 9F 7C E3 38 23 85 03 13 07 63 CE 6C B1 63 9E 1D FD
DPCM : 79 F6 CC 08 07 18 4C 30 ED 78 E4 E3 B2 9B 67 6C FA 98 38 66 33 30 61 06 C7 9B D9 F1 D9 C8 E6 3F
DPCM : 52
DPCMDEF   4   177 "Kirby_$FC00.dmc"
DPCM : 69 AA AA AA AA AA AA AA AA AA AA AA AA AA AA AA AA AA AA AA AA AA AA F0 AA AA AA AA EA 98 AA AA
DPCM : AA AA AA AA AA AA AA AA AA AA AA AA 0A CE 07 FE 70 70 38 F0 E0 C1 1F 9F FF FB E3 1D 1E E1 08 F8
DPCM : 03 E0 03 00 00 00 C4 AA 85 FE FF EF FF FF BF FF E9 57 EB 73 A5 5A A5 4A A5 00 00 00 00 00 02 40
DPCM : 28 50 A2 54 AB 54 AB 52 AB 52 AD 1F FD F8 EF FF FF FF FF FF 6E DF AA 95 AA 55 AA 55 AA 56 AA 56
DPCM : A9 54 A1 00 08 00 00 00 00 00 02 A5 2A B5 2A D5 2A D5 AA D4 AA 54 AB 55 AB 5E BF FE FF 3F FF FF
DPCM : 5F FD CB AF DE 95 6A 95 AA 95 AA 55 AA 55 AA 54 69
DPCMDEF   5   449 "Kirby_$FCC0.dmc"
DPCM : 00 68 68 00 68 68 68 68 73 00 68 68 00 68 68 68 68 68 68 68 68 68 68 00 68 68 00 68 68 73 00 68
DPCM : 68 00 68 68 00 68 68 00 68 68 00 68 68 00 68 FF 41 10 00 21 92 20 00 F4 38 56 5D EB F9 9D 3C BF
DPCM : ED E7 D7 AA 6C 59 16 A2 00 61 83 F0 72 3A 0B 81 45 41 09 DA F1 FD FF FF 5E AF C4 4B D3 C9 8A 82
DPCM : 24 89 28 06 02 47 55 E1 3D AE EF BC F4 52 D5 55 BD BC 7A 1E 57 51 0A 25 29 A8 A8 38 69 D3 88 AA
DPCM : 18 78 6C BA DE 7D ED FB 43 E7 34 4C 2C 25 AD 92 A4 51 A5 C8 62 E2 06 8D C7 F1 AD 65 37 B4 AC 5A
DPCM : 4D 9F 3E 6D 3C A5 B2 24 A9 A2 92 86 A9 44 45 EE 2C 5E AA 2D AE 53 9F 4A 9D 3D 4E 8D 3B 8A A9 E5
DPCM : C8 B2 2C 34 52 D4 59 B1 D2 8A 55 C3 5B A9 55 8B 76 7C 79 6C 2B CE F2 64 31 8E 64 45 72 64 D1 92
DPCM : E3 54 AD 5A 35 55 D7 58 1E 1D 55 4E 1D 57 56 55 CB AA AA 2A 69 A5 4A AA AA 4A 4D 6A 31 4D D3 A9
DPCM : 6A AD 7A 5C 65 AB AA AC CA 72 AA 4A B5 D0 8A 95 AC 54 95 6C D9 52 5B A5 AA D5 4A B5 2C 4B B6 D4
DPCM : 34 9D 95 56 55 55 55 55 9A 2A 15 A7 AA 52 2D 55 69 95 B6 AA 65 D5 6A AA 5A EA 58 55 69 6A A9 96
DPCM : D2 34 95 53 A9 A9 2A 35 55 D3 AA 6A 55 B5 E2 AA 34 B5 9C C6 B1 95 AA A9 AA B4 52 55 8B A9 9A A6
DPCM : AA 9A 5A 6A A5 56 56 65 55 55 AD B4 B2 AA 54 55 2D D5 AA AC AA 52 2B 4B 95 AA AA B2 2A AB AA 6A
DPCM : A5 55 D5 B4 AA AA AA A9 AA AA 52 55 59 A9 A5 AA 56 5A A5 95 55 55 55 55 55 55 55 55 55 55 55 55
DPCM : 55 55 55 55 55 55 53 35 55 D5 54 55 55 55 A9 A5 FF FF FF FF FF FF FF FF FF FF FF FF FF FF FF FF
DPCM : 69
DPCMDEF   6   177 "Kirby_$FE80.dmc"
DPCM : 69 AA AA AA AA AA AA AA AA AA AA AA AA AA AA AA AA AA AA AA AA AA AA F0 AA AA AA AA EA 98 AA AA
DPCM : AA AA AA AA AA AA AA AA AA AA AA AA FA 2B 21 04 B8 FF 7F EB 1F 00 00 00 FF FF FF 07 00 00 80 FF
DPCM : FF 00 00 60 FF FF FF 1F 00 00 F0 FF FF 00 00 80 FE FF FF 00 00 FC FF 7F 01 00 00 A0 FF FF 1F 00
DPCM : 80 FF FF 3F 00 00 80 FF FF 09 00 40 FF FF FF BF 00 00 00 FF 6F 00 00 E0 FF FF FF 01 00 E8 BF DF
DPCM : 29 00 00 A0 FF FF 2F 00 40 FF FF FF 01 00 00 D0 FF 3F 05 44 AE BD 77 AB 00 00 A9 FE 5F 2B 20 6A
DPCM : FF FF FF FF FF FF FF FF FF FF FF FF FF FF FF FF 00
DPCMDEF   7   257 "SMB3_$E980.dmc"
DPCM : 55 55 55 55 55 55 55 55 55 55 55 55 55 B5 82 DC 7F 00 E0 FF 03 E8 FF 03 00 F8 FF 00 F0 FF 62 0B
DPCM : 40 DF 8B EA 27 00 FC BF 00 14 FD FF 03 00 F6 FF 07 00 70 DF FF 02 00 F8 FF 07 00 E0 FF 0F 00 D4
DPCM : FE FF 04 80 FE BF 04 00 EC FF 9F 00 80 FE FF 01 00 FF FF 03 00 A0 FF FF 00 00 FF 7F 02 00 FA FF
DPCM : 07 00 EC FF 0F 00 E8 FE 9F 00 80 FF 5F 01 A0 FA FE 8A 00 B4 FF 17 01 50 FF 5F 02 A0 F6 BF 02 41
DPCM : ED ED 56 02 52 F7 AF 04 C8 F6 5B 49 90 D5 DB 4A 92 AA 56 AF 4A 90 ED B6 92 24 B5 5D 93 A4 AA AD
DPCM : 56 89 D4 B6 96 2A 55 6A AD AA 92 AA B6 96 52 A9 56 AB 4A 95 55 AB AA 94 AA 55 AB 54 AA D5 AA 52
DPCM : 55 55 AD 2A 55 55 AD AA 52 55 D5 AA 52 55 55 AB 4A 55 55 2B 55 55 55 55 AB 54 55 2D AB 4A 55 55
DPCM : B5 2A 55 55 55 55 55 55 55 55 55 55 55 55 55 55 55 55 55 55 55 55 55 55 55 55 55 55 55 55 55 55
DPCM : 55
DPCMDEF   8   129 "SMB3_$E000.dmc"
DPCM : 55 55 55 95 AA 2A 95 E0 7F FC C0 F1 03 28 FE FF FF F1 5F 3F 00 00 00 00 00 00 08 80 C0 F1 FF C7
DPCM : 8B 1F FF FF FF FF FF FF FF AB 6A 9B AA 92 52 25 95 24 25 92 80 4A 50 05 00 00 80 20 42 04 08 E2
DPCM : FF 01 80 6D AB 6D DF BB 77 7B AB AF DD D5 7D DD BF FF EF B6 6D 6F BB 6D AF 2A 95 94 24 49 92 88
DPCM : 42 84 48 88 04 09 49 92 24 51 22 A5 92 22 49 AA 52 A9 AA 5A 55 AD 55 55 AD 6D B5 AD 6D B5 6D DB
DPCM : 55
DPCMDEF   9   449 "SMB3_$E080.dmc"
DPCM : 55 60 6B 79 EA F8 FF 43 82 24 00 20 8E ED C7 A5 1F 10 B7 7F FF FF 4D 63 C1 15 24 41 92 28 09 4D
DPCM : 25 44 42 10 CA BE FB FF 7F DF F5 EE D3 31 0E FF 41 10 00 21 92 20 00 F4 38 56 5D EB F9 9D 3C BF
DPCM : ED E7 D7 AA 6C 59 16 A2 00 61 83 F0 72 3A 0B 81 45 41 09 DA F1 FD FF FF 5E AF C4 4B D3 C9 8A 82
DPCM : 24 89 28 06 02 47 55 E1 3D AE EF BC F4 52 D5 55 BD BC 7A 1E 57 51 0A 25 29 A8 A8 38 69 D3 88 AA
DPCM : 18 78 6C BA DE 7D ED FB 43 E7 34 4C 2C 25 AD 92 A4 51 A5 C8 62 E2 06 8D C7 F1 AD 65 37 B4 AC 5A
DPCM : 4D 9F 3E 6D 3C A5 B2 24 A9 A2 92 86 A9 44 45 EE 2C 5E AA 2D AE 53 9F 4A 9D 3D 4E 8D 3B 8A A9 E5
DPCM : C8 B2 2C 34 52 D4 59 B1 D2 8A 55 C3 5B A9 55 8B 76 7C 79 6C 2B CE F2 64 31 8E 64 45 72 64 D1 92
DPCM : E3 54 AD 5A 35 55 D7 58 1E 1D 55 4E 1D 57 56 55 CB AA AA 2A 69 A5 4A AA AA 4A 4D 6A 31 4D D3 A9
DPCM : 6A AD 7A 5C 65 AB AA AC CA 72 AA 4A B5 D0 8A 95 AC 54 95 6C D9 52 5B A5 AA D5 4A B5 2C 4B B6 D4
DPCM : 34 9D 95 56 55 55 55 55 9A 2A 15 A7 AA 52 2D 55 69 95 B6 AA 65 D5 6A AA 5A EA 58 55 69 6A A9 96
DPCM : D2 34 95 53 A9 A9 2A 35 55 D3 AA 6A 55 B5 E2 AA 34 B5 9C C6 B1 95 AA A9 AA B4 52 55 8B A9 9A A6
DPCM : AA 9A 5A 6A A5 56 56 65 55 55 AD B4 B2 AA 54 55 2D D5 AA AC AA 52 2B 4B 95 AA AA B2 2A AB AA 6A
DPCM : A5 55 D5 B4 AA AA AA A9 AA AA 52 55 59 A9 A5 AA 56 5A A5 95 55 55 55 55 55 55 55 55 55 55 55 55
DPCM : 55 55 55 55 55 55 53 35 55 D5 54 55 55 55 A9 A5 AA AA 6A 59 69 55 55 B5 AA AA B2 2C 2B 55 55 55
DPCM : FF
DPCMDEF  10  1153 "SMB3_$EE00.dmc"
DPCM : DA BB 77 7B B5 6D AD 5A B5 D5 54 B5 5B 25 91 24 21 49 A5 54 95 2A A5 AD 12 49 68 DB F7 6E DB D6
DPCM : AA 55 AB 55 DB D6 4A 12 09 92 94 54 AA 94 54 AA 2A A5 56 6B DB B6 AD B6 55 DB DA AD 24 A4 AA AD
DPCM : 4A 92 84 54 A9 54 49 A9 95 44 55 BB B6 ED 6D 4B 55 6B DB AD 52 5B 55 25 48 92 2A A5 92 54 55 92
DPCM : 24 54 7D 6F DB 6D AF A4 6A 65 BB 6D 2B 09 4A 15 49 52 55 A5 6A AB 24 A2 5D 4B 52 6B B5 6A 7B B7
DPCM : A9 5A B5 52 DA 5E 55 92 54 42 04 D1 6E 2B 45 40 ED 56 A9 D5 B6 6D 7B AB AA 6D B5 52 55 A1 92 2A
DPCM : 55 B5 24 09 82 BA D6 5D AB 56 92 52 D5 6A ED 76 55 5F 09 A2 6C BB B5 2A 59 95 24 24 A9 52 A5 B6
DPCM : 25 21 52 DB B6 EF 6D 55 55 D5 5A A9 DA AA 4A A4 AA 52 12 A1 4A 6D 57 A2 95 DA EE 5B 21 92 EA D6
DPCM : EA 65 AB 4A 94 A4 AD ED A4 6E 97 24 80 DA 4A 48 93 DA 56 DF 0A 50 DB 56 B5 DB B7 B5 24 A5 A2 AA
DPCM : AA 96 52 29 11 92 AA AA DA B6 77 5B 49 EA 9B 00 52 AD F6 EF 92 48 54 9B 24 55 FF 36 55 15 49 52
DPCM : AA 4A 12 6A F5 4D 22 DA ED 2B A9 B6 FB AA 6A D5 44 40 AA CA 6E AF 24 11 12 A5 EA 55 B5 ED DB 0A
DPCM : 82 E4 5E 55 6A 77 15 24 BB AD 24 A5 7D FF 4A 42 92 24 91 A4 2A 95 DC 2E 49 ED B6 6A 55 AB AD 5A
DPCM : D5 B6 25 55 42 A4 B6 B7 92 24 11 84 DA F6 BB 56 95 55 49 48 2A B5 EF DB 54 49 A4 DA B6 DB 55 AA
DPCM : 24 54 55 2A 49 4A 2B 49 52 AD BE 5F 84 CA 6A BB B6 B6 BB 4A 92 24 C9 B6 55 49 52 AD 4A 92 94 AA
DPCM : AA AA F6 AA 6A 5B 89 64 F5 B6 94 DA 76 57 49 90 54 BB BD 92 24 92 A4 AA 92 44 55 B5 7A B7 55 D5
DPCM : 56 55 55 D5 B6 6D 55 92 50 55 B5 5A 29 91 44 D5 4A A5 2A 69 AD DE 6A AD B6 A9 95 4A 55 55 B5 6D
DPCM : AD 34 95 24 49 6A 5B 25 91 52 55 4A 55 B5 AA D5 F6 7D 25 21 AD 6D B5 AA 2A B5 AD 92 8A 92 52 49
DPCM : 95 2A 49 95 2A DB 76 BB 4A A9 D5 DB 56 55 29 95 A4 B4 77 95 44 AA 55 49 A9 2A A9 AA A5 24 95 DA
DPCM : DE B5 54 55 6D 6B D5 AA 9A AA 6A 93 A4 AA 95 4A 49 12 49 B5 9A AA 52 AD 56 AD DD B6 AD 52 DB AA
DPCM : 92 24 A9 2A B5 AA 5A 55 92 52 55 55 55 55 B5 2A 25 49 6D DB B6 5A DB AA AA 54 AA AA 5A AD A4 AA
DPCM : 52 A5 54 4A 25 49 52 EB B6 AA 6A AB B5 D5 F6 AA A5 4A 89 84 AA B6 52 A9 AD AA 54 AA 54 D5 6A 55
DPCM : 49 4A 6B DB 52 2A D5 6A DB F6 AA 12 A1 AA 55 A9 56 AB 2A A9 24 29 A9 54 D5 6A 6B AB 6D 55 A9 6A
DPCM : D5 DA B6 2A 25 91 A4 D4 AA 94 5A 6D AB 54 AA 55 A5 AA 5A 35 95 52 B5 56 55 AB 56 55 B5 6D 2B 49
DPCM : 90 54 59 6D DB 2A 49 2A 55 A9 AA AA 56 AB 5A B5 5A 55 55 DB 2A 95 AA AA 92 84 24 AD 6D DB B6 5A
DPCM : 49 92 52 B5 56 AB 4A 52 6B AB A9 94 56 AD D5 5A 55 25 21 A9 6A D5 B6 ED AA 92 10 A9 AA AD AA AA
DPCM : 55 AB 4A 55 55 B5 D5 5A A9 94 2A 55 2A 4B 55 55 BB 6D 55 29 51 2A AB AA DA 5A 95 94 54 B5 5A 55
DPCM : 55 D5 DA AA 92 A4 92 6A DB B6 55 55 B5 92 44 92 54 B5 B5 5A 55 55 A5 54 55 DB 5E 55 AA 4A 95 24
DPCM : 55 B5 5A AB B5 D5 54 4A A2 A4 B2 6D AB 52 55 55 49 55 B5 B5 2A D5 B6 55 49 42 AD F6 6A 5B 55 92
DPCM : 52 29 49 2A A9 6A 6B B5 6A AD AA 4A 55 AB B5 5A 4B 49 92 B4 6A 55 AB B6 5A 29 49 55 A9 52 55 D5
DPCM : AA 55 35 55 2A B5 55 55 AB B6 5A A5 AA 94 AA B6 AD 2A A9 24 29 95 52 A5 AA 5A AB 6D 5B 55 95 AA
DPCM : D6 AA 55 A9 AA 52 49 A9 AA D6 6A 55 A9 AA 94 4A 55 AB 2A 55 55 B5 56 AB AA 4A AB 56 AD 6A 55 A9
DPCM : 52 A9 6A 55 A5 4A 55 49 49 55 55 55 AB B6 B6 5A AB 55 95 4A 55 AD AA 4A A5 54 A9 AA 54 B5 D5 56
DPCM : 55 2A 49 A9 AA B6 56 55 55 55 6B 55 4D 55 A9 AA D5 AA AA 52 29 A9 6A D5 4A 55 49 49 55 AB 56 D5
DPCM : 5A 6D AD 5A A9 AA AA 4A 53 A9 52 AB AA 52 AA D4 AA 5A 55 55 AD 4A 95 52 55 6D AB 56 69 55 55 55
DPCM : 55 55 AA AA 56 A9 2A 55 A9 AA AA AA 5A 55 A9 52 55 B5 6A D5 AA D5 5A 55 A5 4A 95 95 2A 55 55 55
DPCM : A9 AA AA AA AA AA 55 AD 54 55 55 A9 AA D5 5A AD AA AA 52 55 A9 52 AA AA 56 55 55 A9 6A 55 55 55
DPCM : 55 55 55 55 55 55 55 B5 D5 AA AA AA 4A 49 55 55 55 55 A9 95 AA AA AA 5A 55 55 AB AA AA AA 54 55
DPCM : 00

# Instruments
INST2A03   0     0  -1  -1  -1   0 "Lead"
INST2A03   1     1  -1  -1  -1  -1 "Triangle"
INST2A03   2     2  -1  -1  -1  -1 "TriFast"
INST2A03   3     3  -1  -1  -1  -1 "horse"
INST2A03   4    -1  -1  -1  -1  -1 "2a03 + DPCM"
KEYDPCM   4   3   0     0  15   0     0  -1
KEYDPCM   4   3   1     1  15   0     0  -1
KEYDPCM   4   3   2     2  15   0     0  -1
KEYDPCM   4   3   3     3  15   0     0  -1
KEYDPCM   4   3   4     4  15   0     0  -1
KEYDPCM   4   3   5     5  15   0     0  -1
KEYDPCM   4   3   6     6  15   0     0  -1
KEYDPCM   4   3   7     7  15   0     0  -1
KEYDPCM   4   3   8     8  15   0     0  -1
KEYDPCM   4   3   9     9  15   0     0  -1
KEYDPCM   4   3  10    10  15   0     0  -1
INST2A03   5     5  -1  -1  -1  -1 "Drums"

# Tracks

TRACK  64  10 150 "Title"
COLUMNS : 2 2 1 1 1

ORDER 00 : 00 00 00 00 00
ORDER 01 : 01 01 01 01 01
ORDER 02 : 02 02 02 02 02
ORDER 03 : 03 03 03 03 03
ORDER 04 : 04 04 04 04 04
ORDER 05 : 05 05 05 05 05
ORDER 06 : 06 06 06 06 06
ORDER 07 : 07 07 07 07 07

PATTERN 00
ROW 00 : A#3 00 . 481 ... : A#3 00 . 481 G03 : A#2 01 . ... : ... .. . ... : ... .. . ...
ROW 01 : ... .. . ... ... : ... .. . ... ... : ... .. . ... : ... .. . ... : ... .. . ...
ROW 02 : ... .. . ... ... : ... .. . ... ... : ... .. . ... : ... .. . ... : ... .. . ...
ROW 03 : ... .. . ... ... : ... .. . ... ... : ... .. . ... : ... .. . ... : ... .. . ...
ROW 04 : ... .. . ... ... : ... .. . ... ... : F-3 01 . ... : ... .. . ... : ... .. . ...
ROW 05 : ... .. . ... ... : ... .. . ... ... : ... .. . ... : ... .. . ... : ... .. . ...
ROW 06 : ... .. . ... ... : ... .. . ... ... : ... .. . ... : ... .. . ... : ... .. . ...
ROW 07 : ... .. . ... ... : ... .. . ... ... : ... .. . ... : ... .. . ... : ... .. . ...
ROW 08 : ... .. . ... ... : ... .. . ... ... : A#3 01 . ... : ... .. . ... : ... .. . ...
ROW 09 : ... .. . ... ... : ... .. . ... ... : ... .. . ... : ... .. . ... : ... .. . ...
ROW 0A : F-3 00 . ... ... : F-3 00 . ... ... : ... .. . ... : ... .. . ... : ... .. . ...
ROW 0B : ... .. . ... ... : ... .. . ... ... : ... .. . ... : ... .. . ... : ... .. . ...
ROW 0C : F-3 00 . ... ... : F-3 00 . ... ... : ... .. . ... : ... .. . ... : ... .. . ...
ROW 0D : ... .. . ... ... : ... .. . ... ... : ... .. . ... : ... .. . ... : ... .. . ...
ROW 0E : A#3 00 . ... ... : A#3 00 . ... ... : ... .. . ... : ... .. . ... : ... .. . ...
ROW 0F : ... .. . ... ... : ... .. . ... ... : ... .. . ... : ... .. . ... : ... .. . ...
ROW 10 : G#3 00 . ... ... : G#3 00 . ... ... : G#2 01 . ... : ... .. . ... : ... .. . ...
ROW 11 : F#3 00 . ... ... : F#3 00 . ... ... : ... .. . ... : ... .. . ... : ... .. . ...
ROW 12 : G#3 00 . ... ... : G#3 00 . ... ... : ... .. . ... : ... .. . ... : ... .. . ...
ROW 13 : ... .. . ... ... : ... .. . ... ... : ... .. . ... : ... .. . ... : ... .. . ...
ROW 14 : ... .. . ... ... : ... .. . ... ... : D#3 01 . ... : ... .. . ... : ... .. . ...
ROW 15 : ... .. . ... ... : ... .. . ... ... : ... .. . ... : ... .. . ... : ... .. . ...
ROW 16 : ... .. . ... ... : ... .. . ... ... : ... .. . ... : ... .. . ... : ... .. . ...
ROW 17 : ... .. . ... ... : ... .. . ... ... : ... .. . ... : ... .. . ... : ... .. . ...
ROW 18 : ... .. . ... ... : ... .. . ... ... : G#3 01 . ... : ... .. . ... : ... .. . ...
ROW 19 : ... .. . ... ... : ... .. . ... ... : ... .. . ... : ... .. . ... : ... .. . ...
ROW 1A : ... .. . ... ... : ... .. . ... ... : ... .. . ... : ... .. . ... : ... .. . ...
ROW 1B : ... .. . ... ... : ... .. . ... ... : ... .. . ... : ... .. . ... : ... .. . ...
ROW 1C : ... .. . ... ... : ... .. . ... ... : ... .. . ... : ... .. . ... : ... .. . ...
ROW 1D : ... .. . ... ... : ... .. . ... ... : ... .. . ... : ... .. . ... : ... .. . ...
ROW 1E : ... .. . ... ... : ... .. . ... ... : ... .. . ... : ... .. . ... : ... .. . ...
ROW 1F : ... .. . ... ... : ... .. . ... ... : ... .. . ... : ... .. . ... : ... .. . ...
ROW 20 : A#3 00 . ... ... : A#3 00 . ... G03 : F#2 01 . ... : ... .. . ... : ... .. . ...
ROW 21 : ... .. . ... ... : ... .. . ... ... : ... .. . ... : ... .. . ... : ... .. . ...
ROW 22 : ... .. . ... ... : ... .. . ... ... : ... .. . ... : ... .. . ... : ... .. . ...
ROW 23 : ... .. . ... ... : ... .. . ... ... : ... .. . ... : ... .. . ... : ... .. . ...
ROW 24 : ... .. . ... ... : ... .. . ... ... : C#3 01 . ... : ... .. . ... : ... .. . ...
ROW 25 : ... .. . ... ... : ... .. . ... ... : ... .. . ... : ... .. . ... : ... .. . ...
ROW 26 : ... .. . ... ... : ... .. . ... ... : ... .. . ... : ... .. . ... : ... .. . ...
ROW 27 : ... .. . ... ... : ... .. . ... ... : ... .. . ... : ... .. . ... : ... .. . ...
ROW 28 : ... .. . ... ... : ... .. . ... ... : F#3 01 . ... : ... .. . ... : ... .. . ...
ROW 29 : ... .. . ... ... : ... .. . ... ... : ... .. . ... : ... .. . ... : ... .. . ...
ROW 2A : F#3 00 . ... ... : F#3 00 . ... ... : ... .. . ... : ... .. . ... : ... .. . ...
ROW 2B : ... .. . ... ... : ... .. . ... ... : ... .. . ... : ... .. . ... : ... .. . ...
ROW 2C : F#3 00 . ... ... : F#3 00 . ... ... : ... .. . ... : ... .. . ... : ... .. . ...
ROW 2D : ... .. . ... ... : ... .. . ... ... : ... .. . ... : ... .. . ... : ... .. . ...
ROW 2E : A#3 00 . ... ... : A#3 00 . ... ... : ... .. . ... : ... .. . ... : ... .. . ...
ROW 2F : ... .. . ... ... : ... .. . ... ... : ... .. . ... : ... .. . ... : ... .. . ...
ROW 30 : A-3 00 . ... ... : A-3 00 . ... ... : F-2 01 . ... : ... .. . ... : ... .. . ...
ROW 31 : G-3 00 . ... ... : G-3 00 . ... ... : ... .. . ... : ... .. . ... : ... .. . ...
ROW 32 : A-3 00 . ... ... : A-3 00 . ... ... : ... .. . ... : ... .. . ... : ... .. . ...
ROW 33 : ... .. . ... ... : ... .. . ... ... : ... .. . ... : ... .. . ... : ... .. . ...
ROW 34 : ... .. . ... ... : ... .. . ... ... : C-3 01 . ... : ... .. . ... : ... .. . ...
ROW 35 : ... .. . ... ... : ... .. . ... ... : ... .. . ... : ... .. . ... : ... .. . ...
ROW 36 : ... .. . ... ... : ... .. . ... ... : ... .. . ... : ... .. . ... : ... .. . ...
ROW 37 : ... .. . ... ... : ... .. . ... ... : ... .. . ... : ... .. . ... : ... .. . ...
ROW 38 : ... .. . ... ... : ... .. . ... ... : F-3 01 . ... : ... .. . ... : ... .. . ...
ROW 39 : ... .. . ... ... : ... .. . ... ... : ... .. . ... : ... .. . ... : ... .. . ...
ROW 3A : ... .. . ... ... : ... .. . ... ... : ... .. . ... : ... .. . ... : ... .. . ...
ROW 3B : ... .. . ... ... : ... .. . ... ... : ... .. . ... : ... .. . ... : ... .. . ...
ROW 3C : ... .. . ... ... : ... .. . ... ... : ... .. . ... : ... .. . ... : ... .. . ...
ROW 3D : ... .. . ... ... : ... .. . ... ... : ... .. . ... : ... .. . ... : ... .. . ...
ROW 3E : ... .. . ... ... : ... .. . ... ... : ... .. . ... : ... .. . ... : ... .. . ...
ROW 3F : ... .. . ... ... : ... .. . ... ... : ... .. . ... : ... .. . ... : ... .. . ...

PATTERN 01
ROW 00 : F-2 00 . ... ... : C#2 00 . ... ... : A#2 02 . ... : B-# 03 . ... : ... .. . ...
ROW 01 : ... .. . ... ... : ... .. . ... ... : ... .. . ... : ... .. . ... : ... .. . ...
ROW 02 : F-2 00 . ... ... : ... .. . ... ... : A#2 02 . ... : B-# 03 . ... : ... .. . ...
ROW 03 : A#1 00 . ... ... : --- .. . ... ... : A#2 02 . ... : B-# 03 . ... : ... .. . ...
ROW 04 : F-2 00 . ... ... : ... .. . ... ... : A#2 02 . ... : B-# 03 . ... : ... .. . ...
ROW 05 : ... .. . ... ... : ... .. . ... ... : ... .. . ... : ... .. . ... : ... .. . ...
ROW 06 : F-2 00 . ... ... : ... .. . ... ... : A#2 02 . ... : B-# 03 . ... : ... .. . ...
ROW 07 : A#1 00 . ... ... : ... .. . ... ... : A#2 02 . ... : B-# 03 . ... : ... .. . ...
ROW 08 : F-2 00 . ... ... : ... .. . ... ... : A#2 02 . ... : B-# 03 . ... : ... .. . ...
ROW 09 : ... .. . ... ... : ... .. . ... ... : ... .. . ... : ... .. . ... : ... .. . ...
ROW 0A : F-2 00 . ... ... : ... .. . ... ... : A#2 02 . ... : B-# 03 . ... : ... .. . ...
ROW 0B : A#1 00 . ... ... : ... .. . ... ... : A#2 02 . ... : B-# 03 . ... : ... .. . ...
ROW 0C : F-2 00 . ... ... : ... .. . ... ... : A#2 02 . ... : B-# 03 . ... : ... .. . ...
ROW 0D : A#1 00 . ... ... : ... .. . ... ... : ... .. . ... : ... .. . ... : ... .. . ...
ROW 0E : F-2 00 . ... ... : ... .. . ... ... : A#2 02 . ... : B-# 03 . ... : ... .. . ...
ROW 0F : A#1 00 . ... ... : ... .. . ... ... : A#2 02 . ... : B-# 03 . ... : ... .. . ...
ROW 10 : F-2 00 . ... ... : C#2 00 . ... ... : A#2 02 . ... : B-# 03 . ... : ... .. . ...
ROW 11 : ... .. . ... ... : ... .. . ... ... : ... .. . ... : ... .. . ... : ... .. . ...
ROW 12 : F-2 00 . ... ... : ... .. . ... ... : A#2 02 . ... : B-# 03 . ... : ... .. . ...
ROW 13 : A#1 00 . ... ... : --- 00 . ... ... : A#2 02 . ... : B-# 03 . ... : ... .. . ...
ROW 14 : F-2 00 . ... ... : ... .. . ... ... : A#2 02 . ... : B-# 03 . ... : ... .. . ...
ROW 15 : ... .. . ... ... : ... .. . ... ... : ... .. . ... : ... .. . ... : ... .. . ...
ROW 16 : F-2 00 . ... ... : ... .. . ... ... : A#2 02 . ... : B-# 03 . ... : ... .. . ...
ROW 17 : A#1 00 . ... ... : ... .. . ... ... : A#2 02 . ... : B-# 03 . ... : ... .. . ...
ROW 18 : F-2 00 . ... ... : ... .. . ... ... : A#2 02 . ... : B-# 03 . ... : ... .. . ...
ROW 19 : ... .. . ... ... : ... .. . ... ... : ... .. . ... : ... .. . ... : ... .. . ...
ROW 1A : F-2 00 . ... ... : ... .. . ... ... : A#2 02 . ... : B-# 03 . ... : ... .. . ...
ROW 1B : A#1 00 . ... ... : ... .. . ... ... : A#2 02 . ... : B-# 03 . ... : ... .. . ...
ROW 1C : F-2 00 . ... ... : ... .. . ... ... : A#2 02 . ... : B-# 03 . ... : ... .. . ...
ROW 1D : A#1 00 . ... ... : ... .. . ... ... : ... .. . ... : ... .. . ... : ... .. . ...
ROW 1E : F-2 00 . ... ... : ... .. . ... ... : A#2 02 . ... : B-# 03 . ... : ... .. . ...
ROW 1F : A#1 00 . ... ... : ... .. . ... ... : A#2 02 . ... : B-# 03 . ... : ... .. . ...
ROW 20 : F-2 00 . ... ... : A#3 00 . ... ... : A#2 02 . ... : B-# 03 . ... : ... .. . ...
ROW 21 : ... .. . ... ... : ... .. . ... ... : ... .. . ... : ... .. . ... : ... .. . ...
ROW 22 : F-2 00 . ... ... : ... .. . ... ... : A#2 02 . ... : B-# 03 . ... : ... .. . ...
ROW 23 : A#1 00 . ... ... : ... .. . ... ... : A#2 02 . ... : B-# 03 . ... : ... .. . ...
ROW 24 : F-2 00 . ... ... : F-3 00 . ... ... : A#2 02 . ... : B-# 03 . ... : ... .. . ...
ROW 25 : ... .. . ... ... : ... .. . ... ... : ... .. . ... : ... .. . ... : ... .. . ...
ROW 26 : F-2 00 . ... ... : ... .. . ... ... : A#2 02 . ... : B-# 03 . ... : ... .. . ...
ROW 27 : A#1 00 . ... ... : ... .. . ... ... : A#2 02 . ... : B-# 03 . ... : ... .. . ...
ROW 28 : F-2 00 . ... ... : --- .. . ... ... : A#2 02 . ... : B-# 03 . ... : ... .. . ...
ROW 29 : ... .. . ... ... : ... .. . ... ... : ... .. . ... : ... .. . ... : ... .. . ...
ROW 2A : F-2 00 . ... ... : A#3 00 . ... ... : A#2 02 . ... : B-# 03 . ... : ... .. . ...
ROW 2B : A#1 00 . ... ... : ... .. . ... ... : A#2 02 . ... : B-# 03 . ... : ... .. . ...
ROW 2C : F-2 00 . ... ... : A#3 00 . ... ... : A#2 02 . ... : B-# 03 . ... : ... .. . ...
ROW 2D : A#1 00 . ... ... : C-4 00 . ... ... : ... .. . ... : ... .. . ... : ... .. . ...
ROW 2E : F-2 00 . ... ... : D-4 00 . ... ... : A#2 02 . ... : B-# 03 . ... : ... .. . ...
ROW 2F : A#1 00 . ... ... : D#4 00 . ... ... : A#2 02 . ... : B-# 03 . ... : ... .. . ...
ROW 30 : D#2 00 . ... ... : F-4 00 . ... ... : G#2 02 . ... : B-# 03 . ... : ... .. . ...
ROW 31 : ... .. . ... ... : ... .. . ... ... : ... .. . ... : ... .. . ... : ... .. . ...
ROW 32 : A#2 00 . ... ... : ... .. . ... ... : G#2 02 . ... : B-# 03 . ... : ... .. . ...
ROW 33 : ... .. . ... ... : ... .. . ... ... : G#2 02 . ... : B-# 03 . ... : ... .. . ...
ROW 34 : A#2 00 . ... ... : --- .. . ... ... : G#2 02 . ... : B-# 03 . ... : ... .. . ...
ROW 35 : C-3 00 . ... ... : ... .. . ... ... : ... .. . ... : ... .. . ... : ... .. . ...
ROW 36 : D-3 00 . ... ... : ... .. . ... ... : G#2 02 . ... : B-# 03 . ... : ... .. . ...
ROW 37 : D#3 00 . ... ... : ... .. . ... ... : G#2 02 . ... : B-# 03 . ... : ... .. . ...
ROW 38 : F-3 00 . ... ... : ... .. . ... ... : G#2 02 . ... : B-# 03 . ... : ... .. . ...
ROW 39 : ... .. . ... ... : ... .. . ... ... : ... .. . ... : ... .. . ... : ... .. . ...
ROW 3A : D#2 00 . ... ... : ... .. . ... ... : G#2 02 . ... : B-# 03 . ... : ... .. . ...
ROW 3B : G#1 00 . ... ... : ... .. . ... ... : G#2 02 . ... : B-# 03 . ... : ... .. . ...
ROW 3C : D#2 00 . ... ... : ... .. . ... ... : G#2 02 . ... : B-# 03 . ... : ... .. . ...
ROW 3D : G#1 00 . ... ... : ... .. . ... ... : ... .. . ... : ... .. . ... : ... .. . ...
ROW 3E : D#2 00 . ... ... : ... .. . ... ... : G#2 02 . ... : B-# 03 . ... : ... .. . ...
ROW 3F : G#1 00 . ... ... : ... .. . ... ... : G#2 02 . ... : B-# 03 . ... : ... .. . ...

PATTERN 02
ROW 00 : C#2 00 . ... ... : A#3 00 . ... ... : F#2 02 . ... : B-# 03 . ... : ... .. . ...
ROW 01 : ... .. . ... ... : ... .. . ... ... : ... .. . ... : ... .. . ... : ... .. . ...
ROW 02 : C#2 00 . ... ... : ... .. . ... ... : F#2 02 . ... : B-# 03 . ... : ... .. . ...
ROW 03 : F#1 00 . ... ... : ... .. . ... ... : F#2 02 . ... : B-# 03 . ... : ... .. . ...
ROW 04 : C#2 00 . ... ... : F-3 00 . ... ... : F#2 02 . ... : B-# 03 . ... : ... .. . ...
ROW 05 : ... .. . ... ... : ... .. . ... ... : ... .. . ... : ... .. . ... : ... .. . ...
ROW 06 : C#2 00 . ... ... : ... .. . ... ... : F#2 02 . ... : B-# 03 . ... : ... .. . ...
ROW 07 : F#1 00 . ... ... : ... .. . ... ... : F#2 02 . ... : B-# 03 . ... : ... .. . ...
ROW 08 : C#2 00 . ... ... : --- .. . ... ... : F#2 02 . ... : B-# 03 . ... : ... .. . ...
ROW 09 : ... .. . ... ... : ... .. . ... ... : ... .. . ... : ... .. . ... : ... .. . ...
ROW 0A : C#2 00 . ... ... : A#3 00 . ... ... : F#2 02 . ... : B-# 03 . ... : ... .. . ...
ROW 0B : F#1 00 . ... ... : ... .. . ... ... : F#2 02 . ... : B-# 03 . ... : ... .. . ...
ROW 0C : C#2 00 . ... ... : A#3 00 . ... ... : F#2 02 . ... : B-# 03 . ... : ... .. . ...
ROW 0D : F#1 00 . ... ... : C-4 00 . ... ... : ... .. . ... : ... .. . ... : ... .. . ...
ROW 0E : C#2 00 . ... ... : D-4 00 . ... ... : F#2 02 . ... : B-# 03 . ... : ... .. . ...
ROW 0F : F#1 00 . ... ... : D#4 00 . ... ... : F#2 02 . ... : B-# 03 . ... : ... .. . ...
ROW 10 : C-2 00 . ... ... : F-4 00 . ... ... : F-2 02 . ... : B-# 03 . ... : ... .. . ...
ROW 11 : ... .. . ... ... : ... .. . ... ... : ... .. . ... : ... .. . ... : ... .. . ...
ROW 12 : A#2 00 . ... ... : ... .. . ... ... : F-2 02 . ... : B-# 03 . ... : ... .. . ...
ROW 13 : ... .. . ... ... : ... .. . ... ... : F-2 02 . ... : B-# 03 . ... : ... .. . ...
ROW 14 : A#2 00 . ... ... : --- .. . ... ... : F-2 02 . ... : B-# 03 . ... : ... .. . ...
ROW 15 : C-3 00 . ... ... : ... .. . ... ... : ... .. . ... : ... .. . ... : ... .. . ...
ROW 16 : D-3 00 . ... ... : ... .. . ... ... : F-2 02 . ... : B-# 03 . ... : ... .. . ...
ROW 17 : D#3 00 . ... ... : ... .. . ... ... : F-2 02 . ... : B-# 03 . ... : ... .. . ...
ROW 18 : F-3 00 . ... ... : ... .. . ... ... : F-2 02 . ... : B-# 03 . ... : ... .. . ...
ROW 19 : ... .. . ... ... : ... .. . ... ... : ... .. . ... : ... .. . ... : ... .. . ...
ROW 1A : C-2 00 . ... ... : ... .. . ... ... : F-2 02 . ... : B-# 03 . ... : ... .. . ...
ROW 1B : F-1 00 . ... ... : ... .. . ... ... : F-2 02 . ... : B-# 03 . ... : ... .. . ...
ROW 1C : C-2 00 . ... ... : ... .. . ... ... : F-2 02 . ... : B-# 03 . ... : ... .. . ...
ROW 1D : F-1 00 . ... ... : ... .. . ... ... : ... .. . ... : ... .. . ... : ... .. . ...
ROW 1E : C-2 00 . ... ... : ... .. . ... ... : F-2 02 . ... : B-# 03 . ... : ... .. . ...
ROW 1F : F-1 00 . ... ... : ... .. . ... ... : F-2 02 . ... : B-# 03 . ... : ... .. . ...
ROW 20 : D-3 00 . ... ... : A#3 00 . ... ... : A#2 02 . ... : B-# 03 . ... : ... .. . ...
ROW 21 : ... .. . ... ... : ... .. . ... ... : ... .. . ... : ... .. . ... : ... .. . ...
ROW 22 : ... .. . ... ... : ... .. . ... ... : A#2 02 . ... : B-# 03 . ... : ... .. . ...
ROW 23 : ... .. . ... ... : ... .. . ... ... : A#2 02 . ... : B-# 03 . ... : ... .. . ...
ROW 24 : D-3 00 . ... ... : F-3 00 . ... ... : A#2 02 . ... : B-# 03 . ... : ... .. . ...
ROW 25 : D-3 00 . ... ... : ... .. . ... ... : ... .. . ... : ... .. . ... : ... .. . ...
ROW 26 : ... .. . ... ... : ... .. . ... ... : A#2 02 . ... : B-# 03 . ... : ... .. . ...
ROW 27 : C-3 00 . ... ... : ... .. . ... ... : A#2 02 . ... : B-# 03 . ... : ... .. . ...
ROW 28 : D-3 00 . ... ... : --- .. . ... ... : A#2 02 . ... : B-# 03 . ... : ... .. . ...
ROW 29 : ... .. . ... ... : ... .. . ... ... : ... .. . ... : ... .. . ... : ... .. . ...
ROW 2A : ... .. . ... ... : A#3 00 . ... ... : A#2 02 . ... : B-# 03 . ... : ... .. . ...
ROW 2B : D-3 00 . ... ... : ... .. . ... ... : A#2 02 . ... : B-# 03 . ... : ... .. . ...
ROW 2C : D-3 00 . ... ... : A#3 00 . ... ... : A#2 02 . ... : B-# 03 . ... : ... .. . ...
ROW 2D : D#3 00 . ... ... : C-4 00 . ... ... : ... .. . ... : ... .. . ... : ... .. . ...
ROW 2E : F-3 00 . ... ... : D-4 00 . ... ... : A#2 02 . ... : B-# 03 . ... : ... .. . ...
ROW 2F : G-3 00 . ... ... : D#4 00 . ... ... : A#2 02 . ... : B-# 03 . ... : ... .. . ...
ROW 30 : G#3 00 . ... ... : F-4 00 . ... ... : G#2 02 . ... : B-# 03 . ... : ... .. . ...
ROW 31 : ... .. . ... ... : ... .. . ... ... : ... .. . ... : ... .. . ... : ... .. . ...
ROW 32 : ... .. . ... ... : ... .. . ... ... : G#2 02 . ... : B-# 03 . ... : ... .. . ...
ROW 33 : A#3 00 . ... ... : ... .. . ... ... : G#2 02 . ... : B-# 03 . ... : ... .. . ...
ROW 34 : A#3 00 . ... ... : ... .. . ... ... : G#2 02 . ... : B-# 03 . ... : ... .. . ...
ROW 35 : C-4 00 . ... ... : ... .. . ... ... : ... .. . ... : ... .. . ... : ... .. . ...
ROW 36 : D-4 00 . ... ... : ... .. . ... ... : G#2 02 . ... : B-# 03 . ... : ... .. . ...
ROW 37 : D#4 00 . ... ... : ... .. . ... ... : G#2 02 . ... : B-# 03 . ... : ... .. . ...
ROW 38 : F-4 00 . ... ... : ... .. . ... ... : G#2 02 . ... : B-# 03 . ... : ... .. . ...
ROW 39 : ... .. . ... ... : ... .. . ... ... : ... .. . ... : ... .. . ... : ... .. . ...
ROW 3A : ... .. . ... ... : F-4 00 . ... ... : G#2 02 . ... : B-# 03 . ... : ... .. . ...
ROW 3B : ... .. . ... ... : ... .. . ... ... : G#2 02 . ... : B-# 03 . ... : ... .. . ...
ROW 3C : G#3 00 . ... ... : F-4 00 . ... ... : G#2 02 . ... : B-# 03 . ... : ... .. . ...
ROW 3D : A#3 00 . G02 ... : F#4 00 . G02 ... : ... .. . ... : ... .. . ... : ... .. . ...
ROW 3E : C-4 00 . G04 ... : G#4 00 . G04 ... : G#2 02 . ... : B-# 03 . ... : ... .. . ...
ROW 3F : ... .. . ... ... : ... .. . ... ... : G#2 02 . ... : B-# 03 . ... : ... .. . ...

PATTERN 03
ROW 00 : F#3 00 . ... ... : A#4 00 . ... ... : F#2 02 . ... : B-# 03 . ... : ... .. . ...
ROW 01 : ... .. . ... ... : ... .. . ... ... : ... .. . ... : ... .. . ... : ... .. . ...
ROW 02 : ... .. . ... ... : ... .. . ... ... : F#2 02 . ... : B-# 03 . ... : ... .. . ...
ROW 03 : F#3 00 . ... ... : ... .. . ... ... : F#2 02 . ... : B-# 03 . ... : ... .. . ...
ROW 04 : F#3 00 . ... ... : ... .. . ... ... : F#2 02 . ... : B-# 03 . ... : ... .. . ...
ROW 05 : G#3 00 . ... ... : ... .. . ... ... : ... .. . ... : ... .. . ... : ... .. . ...
ROW 06 : A#3 00 . ... ... : ... .. . ... ... : F#2 02 . ... : B-# 03 . ... : ... .. . ...
ROW 07 : B-3 00 . ... ... : ... .. . ... ... : F#2 02 . ... : B-# 03 . ... : ... .. . ...
ROW 08 : C#4 00 . ... ... : ... .. . ... ... : F#2 02 . ... : B-# 03 . ... : ... .. . ...
ROW 09 : ... .. . ... ... : ... .. . ... ... : ... .. . ... : ... .. . ... : ... .. . ...
ROW 0A : ... .. . ... ... : A#4 00 . ... ... : F#2 02 . ... : B-# 03 . ... : ... .. . ...
ROW 0B : C#4 00 . ... ... : ... .. . ... ... : F#2 02 . ... : B-# 03 . ... : ... .. . ...
ROW 0C : C#4 00 . ... ... : A#4 00 . ... ... : F#2 02 . ... : B-# 03 . ... : ... .. . ...
ROW 0D : B-3 00 . G02 ... : G#4 00 . G02 ... : ... .. . ... : ... .. . ... : ... .. . ...
ROW 0E : A-3 00 . G04 ... : F#4 00 . G04 ... : F#2 02 . ... : B-# 03 . ... : ... .. . ...
ROW 0F : ... .. . ... ... : ... .. . ... ... : F#2 02 . ... : B-# 03 . ... : ... .. . ...
ROW 10 : C#4 00 . ... ... : G#4 00 . ... ... : C#3 02 . ... : B-# 03 . ... : ... .. . ...
ROW 11 : ... .. . ... ... : ... .. . ... ... : ... .. . ... : ... .. . ... : ... .. . ...
ROW 12 : ... .. . ... ... : ... .. . ... ... : C#3 02 . ... : B-# 03 . ... : ... .. . ...
ROW 13 : A#3 00 . ... ... : F#4 00 . ... ... : C#3 02 . ... : B-# 03 . ... : ... .. . ...
ROW 14 : G#3 00 . ... ... : F-4 00 . ... ... : C#3 02 . ... : B-# 03 . ... : ... .. . ...
ROW 15 : G#3 00 . G02 ... : ... .. . ... ... : ... .. . ... : ... .. . ... : ... .. . ...
ROW 16 : F#3 00 . G04 ... : ... .. . ... ... : C#3 02 . ... : B-# 03 . ... : ... .. . ...
ROW 17 : ... .. . ... ... : ... .. . ... ... : C#3 02 . ... : B-# 03 . ... : ... .. . ...
ROW 18 : G#3 00 . ... ... : ... .. . ... ... : C#3 02 . ... : B-# 03 . ... : ... .. . ...
ROW 19 : ... .. . ... ... : ... .. . ... ... : ... .. . ... : ... .. . ... : ... .. . ...
ROW 1A : ... .. . ... ... : ... .. . ... ... : C#3 02 . ... : B-# 03 . ... : ... .. . ...
ROW 1B : G#3 00 . ... ... : ... .. . ... ... : C#3 02 . ... : B-# 03 . ... : ... .. . ...
ROW 1C : G#3 00 . ... ... : F-4 00 . ... ... : C#3 02 . ... : B-# 03 . ... : ... .. . ...
ROW 1D : F#3 00 . G02 ... : ... .. . ... ... : ... .. . ... : ... .. . ... : ... .. . ...
ROW 1E : G#3 00 . G04 ... : ... .. . ... ... : C#3 02 . ... : B-# 03 . ... : ... .. . ...
ROW 1F : ... .. . ... ... : ... .. . ... ... : C#3 02 . ... : B-# 03 . ... : ... .. . ...
ROW 20 : F#3 00 . ... ... : D#4 00 . ... ... : B-2 02 . ... : B-# 03 . ... : ... .. . ...
ROW 21 : ... .. . ... ... : ... .. . ... ... : ... .. . ... : ... .. . ... : ... .. . ...
ROW 22 : F#3 00 . ... ... : D#4 00 . ... ... : B-2 02 . ... : B-# 03 . ... : ... .. . ...
ROW 23 : F-3 00 . ... ... : F-4 00 . ... ... : B-2 02 . ... : B-# 03 . ... : ... .. . ...
ROW 24 : F#3 00 . ... ... : F#4 00 . ... ... : B-2 02 . ... : B-# 03 . ... : ... .. . ...
ROW 25 : ... .. . ... ... : ... .. . ... ... : ... .. . ... : ... .. . ... : ... .. . ...
ROW 26 : F#3 00 . ... ... : ... .. . ... ... : B-2 02 . ... : B-# 03 . ... : ... .. . ...
ROW 27 : G#3 00 . ... ... : ... .. . ... ... : B-2 02 . ... : B-# 03 . ... : ... .. . ...
ROW 28 : A#3 00 . ... ... : ... .. . ... ... : B-2 02 . ... : B-# 03 . ... : ... .. . ...
ROW 29 : ... .. . ... ... : ... .. . ... ... : ... .. . ... : ... .. . ... : ... .. . ...
ROW 2A : ... .. . ... ... : ... .. . ... ... : B-2 02 . ... : B-# 03 . ... : ... .. . ...
ROW 2B : ... .. . ... ... : ... .. . ... ... : B-2 02 . ... : B-# 03 . ... : ... .. . ...
ROW 2C : G#3 00 . ... ... : F-4 00 . ... ... : B-2 02 . ... : B-# 03 . ... : ... .. . ...
ROW 2D : ... .. . ... ... : ... .. . ... ... : ... .. . ... : ... .. . ... : ... .. . ...
ROW 2E : F#3 00 . ... ... : D#4 00 . ... ... : B-2 02 . ... : B-# 03 . ... : ... .. . ...
ROW 2F : ... .. . ... ... : ... .. . ... ... : B-2 02 . ... : B-# 03 . ... : ... .. . ...
ROW 30 : F-3 00 . ... ... : C#4 00 . ... ... : A#2 02 . ... : B-# 03 . ... : ... .. . ...
ROW 31 : ... .. . ... ... : ... .. . ... ... : ... .. . ... : ... .. . ... : ... .. . ...
ROW 32 : F-3 00 . ... ... : C#4 00 . ... ... : A#2 02 . ... : B-# 03 . ... : ... .. . ...
ROW 33 : D#3 00 . ... ... : D#4 00 . ... ... : A#2 02 . ... : B-# 03 . ... : ... .. . ...
ROW 34 : F-3 00 . ... ... : F-4 00 . ... ... : A#2 02 . ... : B-# 03 . ... : ... .. . ...
ROW 35 : ... .. . ... ... : ... .. . ... ... : ... .. . ... : ... .. . ... : ... .. . ...
ROW 36 : F-3 00 . ... ... : ... .. . ... ... : A#2 02 . ... : B-# 03 . ... : ... .. . ...
ROW 37 : F#3 00 . ... ... : ... .. . ... ... : A#2 02 . ... : B-# 03 . ... : ... .. . ...
ROW 38 : G#3 00 . ... ... : ... .. . ... ... : A#2 02 . ... : B-# 03 . ... : ... .. . ...
ROW 39 : ... .. . ... ... : ... .. . ... ... : ... .. . ... : ... .. . ... : ... .. . ...
ROW 3A : ... .. . ... ... : ... .. . ... ... : A#2 02 . ... : B-# 03 . ... : ... .. . ...
ROW 3B : ... .. . ... ... : ... .. . ... ... : A#2 02 . ... : B-# 03 . ... : ... .. . ...
ROW 3C : F#3 00 . ... ... : D#4 00 . ... ... : A#2 02 . ... : B-# 03 . ... : ... .. . ...
ROW 3D : ... .. . ... ... : ... .. . ... ... : ... .. . ... : ... .. . ... : ... .. . ...
ROW 3E : F-3 00 . ... ... : C#4 00 . ... ... : A#2 02 . ... : B-# 03 . ... : ... .. . ...
ROW 3F : ... .. . ... ... : ... .. . ... ... : A#2 02 . ... : B-# 03 . ... : ... .. . ...

PATTERN 04
ROW 00 : C-4 00 . ... ... : E-3 00 . ... ... : C-3 02 . ... : B-# 03 . ... : ... .. . ...
ROW 01 : ... .. . ... ... : ... .. . ... ... : ... .. . ... : ... .. . ... : ... .. . ...
ROW 02 : C-4 00 . ... ... : ... .. . ... ... : C-3 02 . ... : B-# 03 . ... : ... .. . ...
ROW 03 : D-4 00 . ... ... : ... .. . ... ... : C-3 02 . ... : B-# 03 . ... : ... .. . ...
ROW 04 : E-4 00 . ... ... : E-3 00 . ... ... : C-3 02 . ... : B-# 03 . ... : ... .. . ...
ROW 05 : ... .. . ... ... : ... .. . ... ... : ... .. . ... : ... .. . ... : ... .. . ...
ROW 06 : ... .. . ... ... : E-3 00 . ... ... : C-3 02 . ... : B-# 03 . ... : ... .. . ...
ROW 07 : ... .. . ... ... : F-3 00 . ... ... : C-3 02 . ... : B-# 03 . ... : ... .. . ...
ROW 08 : ... .. . ... ... : G-3 00 . ... ... : C-3 02 . ... : B-# 03 . ... : ... .. . ...
ROW 09 : ... .. . ... ... : ... .. . ... ... : ... .. . ... : ... .. . ... : ... .. . ...
ROW 0A : ... .. . ... ... : G-3 00 . ... ... : C-3 02 . ... : B-# 03 . ... : ... .. . ...
ROW 0B : ... .. . ... ... : A-3 00 . ... ... : C-3 02 . ... : B-# 03 . ... : ... .. . ...
ROW 0C : G-4 00 . ... ... : A#3 00 . ... ... : C-3 02 . ... : B-# 03 . ... : ... .. . ...
ROW 0D : ... .. . ... ... : ... .. . ... ... : ... .. . ... : ... .. . ... : ... .. . ...
ROW 0E : ... .. . ... ... : C-4 00 . ... ... : C-3 02 . ... : B-# 03 . ... : ... .. . ...
ROW 0F : ... .. . ... ... : ... .. . ... ... : C-3 02 . ... : B-# 03 . ... : ... .. . ...
ROW 10 : F-4 00 . ... ... : A-3 00 . ... ... : F-3 02 . ... : B-# 03 . ... : ... .. . ...
ROW 11 : ... .. . ... ... : ... .. . ... ... : ... .. . ... : ... .. . ... : ... .. . ...
ROW 12 : F-3 00 . ... ... : A-2 00 . ... ... : F-2 02 . ... : B-# 03 . ... : ... .. . ...
ROW 13 : F-3 00 . ... ... : A-2 00 . ... ... : F-2 02 . ... : B-# 03 . ... : ... .. . ...
ROW 14 : F-3 00 . ... ... : G#2 00 . ... ... : F-2 02 . ... : B-# 03 . ... : ... .. . ...
ROW 15 : ... .. . ... ... : ... .. . ... ... : ... .. . ... : ... .. . ... : ... .. . ...
ROW 16 : F-3 00 . ... ... : G#2 00 . ... ... : F-2 02 . ... : B-# 03 . ... : ... .. . ...
ROW 17 : F-3 00 . ... ... : G#2 00 . ... ... : F-2 02 . ... : B-# 03 . ... : ... .. . ...
ROW 18 : F-3 00 . ... ... : G-2 00 . ... ... : F-2 02 . ... : B-# 03 . ... : ... .. . ...
ROW 19 : ... .. . ... ... : ... .. . ... ... : ... .. . ... : ... .. . ... : ... .. . ...
ROW 1A : F-3 00 . ... ... : G-2 00 . ... ... : F-2 02 . ... : B-# 03 . ... : ... .. . ...
ROW 1B : F-3 00 . ... ... : G-2 00 . ... ... : F-2 02 . ... : B-# 03 . ... : ... .. . ...
ROW 1C : F-3 00 . ... ... : F#2 00 . ... ... : F-2 02 . ... : B-# 03 . ... : ... .. . ...
ROW 1D : ... .. . ... ... : ... .. . ... ... : ... .. . ... : ... .. . ... : ... .. . ...
ROW 1E : F-3 00 . ... ... : F#2 00 . ... ... : G-2 02 . ... : B-# 03 . ... : ... .. . ...
ROW 1F : ... .. . ... ... : ... .. . ... ... : A-2 02 . ... : B-# 03 . ... : ... .. . ...
ROW 20 : D-3 00 . ... ... : A#3 00 . ... ... : A#2 02 . ... : B-# 03 . ... : ... .. . ...
ROW 21 : ... .. . ... ... : ... .. . ... ... : ... .. . ... : ... .. . ... : ... .. . ...
ROW 22 : ... .. . ... ... : ... .. . ... ... : A#2 02 . ... : B-# 03 . ... : ... .. . ...
ROW 23 : ... .. . ... ... : ... .. . ... ... : A#2 02 . ... : B-# 03 . ... : ... .. . ...
ROW 24 : D-3 00 . ... ... : F-3 00 . ... ... : A#2 02 . ... : B-# 03 . ... : ... .. . ...
ROW 25 : D-3 00 . ... ... : ... .. . ... ... : ... .. . ... : ... .. . ... : ... .. . ...
ROW 26 : ... .. . ... ... : ... .. . ... ... : A#2 02 . ... : B-# 03 . ... : ... .. . ...
ROW 27 : C-3 00 . ... ... : ... .. . ... ... : A#2 02 . ... : B-# 03 . ... : ... .. . ...
ROW 28 : D-3 00 . ... ... : --- .. . ... ... : A#2 02 . ... : B-# 03 . ... : ... .. . ...
ROW 29 : ... .. . ... ... : ... .. . ... ... : ... .. . ... : ... .. . ... : ... .. . ...
ROW 2A : ... .. . ... ... : A#3 00 . ... ... : A#2 02 . ... : B-# 03 . ... : ... .. . ...
ROW 2B : D-3 00 . ... ... : ... .. . ... ... : A#2 02 . ... : B-# 03 . ... : ... .. . ...
ROW 2C : D-3 00 . ... ... : A#3 00 . ... ... : A#2 02 . ... : B-# 03 . ... : ... .. . ...
ROW 2D : D#3 00 . ... ... : C-4 00 . ... ... : ... .. . ... : ... .. . ... : ... .. . ...
ROW 2E : F-3 00 . ... ... : D-4 00 . ... ... : A#2 02 . ... : B-# 03 . ... : ... .. . ...
ROW 2F : G-3 00 . ... ... : D#4 00 . ... ... : A#2 02 . ... : B-# 03 . ... : ... .. . ...
ROW 30 : G#3 00 . ... ... : F-4 00 . ... ... : G#2 02 . ... : B-# 03 . ... : ... .. . ...
ROW 31 : ... .. . ... ... : ... .. . ... ... : ... .. . ... : ... .. . ... : ... .. . ...
ROW 32 : ... .. . ... ... : ... .. . ... ... : G#2 02 . ... : B-# 03 . ... : ... .. . ...
ROW 33 : A#3 00 . ... ... : ... .. . ... ... : G#2 02 . ... : B-# 03 . ... : ... .. . ...
ROW 34 : A#3 00 . ... ... : ... .. . ... ... : G#2 02 . ... : B-# 03 . ... : ... .. . ...
ROW 35 : C-4 00 . ... ... : ... .. . ... ... : ... .. . ... : ... .. . ... : ... .. . ...
ROW 36 : D-4 00 . ... ... : ... .. . ... ... : G#2 02 . ... : B-# 03 . ... : ... .. . ...
ROW 37 : D#4 00 . ... ... : ... .. . ... ... : G#2 02 . ... : B-# 03 . ... : ... .. . ...
ROW 38 : F-4 00 . ... ... : ... .. . ... ... : G#2 02 . ... : B-# 03 . ... : ... .. . ...
ROW 39 : ... .. . ... ... : ... .. . ... ... : ... .. . ... : ... .. . ... : ... .. . ...
ROW 3A : ... .. . ... ... : F-4 00 . ... ... : G#2 02 . ... : B-# 03 . ... : ... .. . ...
ROW 3B : ... .. . ... ... : ... .. . ... ... : G#2 02 . ... : B-# 03 . ... : ... .. . ...
ROW 3C : G#3 00 . ... ... : F-4 00 . ... ... : G#2 02 . ... : B-# 03 . ... : ... .. . ...
ROW 3D : A#3 00 . G02 ... : F#4 00 . G02 ... : ... .. . ... : ... .. . ... : ... .. . ...
ROW 3E : C-4 00 . G04 ... : G#4 00 . G04 ... : G#2 02 . ... : B-# 03 . ... : ... .. . ...
ROW 3F : ... .. . ... ... : ... .. . ... ... : G#2 02 . ... : B-# 03 . ... : ... .. . ...

PATTERN 05
ROW 00 : A#4 00 . ... ... : C#4 00 . ... ... : F#2 02 . ... : B-# 03 . ... : ... .. . ...
ROW 01 : ... .. . ... ... : ... .. . ... ... : ... .. . ... : ... .. . ... : ... .. . ...
ROW 02 : ... .. . ... ... : ... .. . ... ... : F#2 02 . ... : B-# 03 . ... : ... .. . ...
ROW 03 : ... .. . ... ... : ... .. . ... ... : F#2 02 . ... : B-# 03 . ... : ... .. . ...
ROW 04 : ... .. . ... ... : ... .. . ... ... : F#2 02 . ... : B-# 03 . ... : ... .. . ...
ROW 05 : ... .. . ... ... : ... .. . ... ... : ... .. . ... : ... .. . ... : ... .. . ...
ROW 06 : ... .. . ... ... : ... .. . ... ... : F#2 02 . ... : B-# 03 . ... : ... .. . ...
ROW 07 : ... .. . ... ... : ... .. . ... ... : F#2 02 . ... : B-# 03 . ... : ... .. . ...
ROW 08 : ... .. . ... ... : ... .. . ... ... : F#2 02 . ... : B-# 03 . ... : ... .. . ...
ROW 09 : ... .. . ... ... : ... .. . ... ... : ... .. . ... : ... .. . ... : ... .. . ...
ROW 0A : ... .. . ... ... : ... .. . ... ... : F#2 02 . ... : B-# 03 . ... : ... .. . ...
ROW 0B : ... .. . ... ... : ... .. . ... ... : F#2 02 . ... : B-# 03 . ... : ... .. . ...
ROW 0C : C#5 00 . ... ... : E-4 00 . ... ... : F#2 02 . ... : B-# 03 . ... : ... .. . ...
ROW 0D : ... .. . ... ... : ... .. . ... ... : ... .. . ... : ... .. . ... : ... .. . ...
ROW 0E : ... .. . ... ... : ... .. . ... ... : F#2 02 . ... : B-# 03 . ... : ... .. . ...
ROW 0F : ... .. . ... ... : ... .. . ... ... : F#2 02 . ... : B-# 03 . ... : ... .. . ...
ROW 10 : C-5 00 . ... ... : D#4 00 . ... ... : F-2 02 . ... : B-# 03 . ... : ... .. . ...
ROW 11 : ... .. . ... ... : ... .. . ... ... : ... .. . ... : ... .. . ... : ... .. . ...
ROW 12 : ... .. . ... ... : ... .. . ... ... : F-2 02 . ... : B-# 03 . ... : ... .. . ...
ROW 13 : ... .. . ... ... : ... .. . ... ... : F-2 02 . ... : B-# 03 . ... : ... .. . ...
ROW 14 : G#4 00 . ... ... : C-4 00 . ... ... : F-2 02 . ... : B-# 03 . ... : ... .. . ...
ROW 15 : ... .. . ... ... : ... .. . ... ... : ... .. . ... : ... .. . ... : ... .. . ...
ROW 16 : ... .. . ... ... : ... .. . ... ... : F-2 02 . ... : B-# 03 . ... : ... .. . ...
ROW 17 : ... .. . ... ... : ... .. . ... ... : F-2 02 . ... : B-# 03 . ... : ... .. . ...
ROW 18 : ... .. . ... ... : ... .. . ... ... : F-2 02 . ... : B-# 03 . ... : ... .. . ...
ROW 19 : ... .. . ... ... : ... .. . ... ... : ... .. . ... : ... .. . ... : ... .. . ...
ROW 1A : ... .. . ... ... : ... .. . ... ... : F-2 02 . ... : B-# 03 . ... : ... .. . ...
ROW 1B : ... .. . ... ... : ... .. . ... ... : F-2 02 . ... : B-# 03 . ... : ... .. . ...
ROW 1C : F-4 00 . ... ... : A-3 00 . ... ... : F-2 02 . ... : B-# 03 . ... : ... .. . ...
ROW 1D : ... .. . ... ... : ... .. . ... ... : ... .. . ... : ... .. . ... : ... .. . ...
ROW 1E : ... .. . ... ... : ... .. . ... ... : F-2 02 . ... : B-# 03 . ... : ... .. . ...
ROW 1F : ... .. . ... ... : ... .. . ... ... : F-2 02 . ... : B-# 03 . ... : ... .. . ...
ROW 20 : F#4 00 . ... ... : E-1 00 . ... ... : E-2 02 . ... : B-# 03 . ... : ... .. . ...
ROW 21 : ... .. . ... ... : A#1 00 . G02 ... : ... .. . ... : ... .. . ... : ... .. . ...
ROW 22 : ... .. . ... ... : C#2 00 . G04 ... : E-2 02 . ... : B-# 03 . ... : ... .. . ...
ROW 23 : ... .. . ... ... : ... .. . ... ... : E-2 02 . ... : B-# 03 . ... : ... .. . ...
ROW 24 : ... .. . ... ... : E-2 00 . ... ... : E-2 02 . ... : B-# 03 . ... : ... .. . ...
ROW 25 : ... .. . ... ... : A#2 00 . G02 ... : ... .. . ... : ... .. . ... : ... .. . ...
ROW 26 : ... .. . ... ... : C#3 00 . G04 ... : E-2 02 . ... : B-# 03 . ... : ... .. . ...
ROW 27 : ... .. . ... ... : ... .. . ... ... : E-2 02 . ... : B-# 03 . ... : ... .. . ...
ROW 28 : ... .. . ... ... : E-3 00 . ... ... : E-2 02 . ... : B-# 03 . ... : ... .. . ...
ROW 29 : ... .. . ... ... : ... .. . ... ... : ... .. . ... : ... .. . ... : ... .. . ...
ROW 2A : ... .. . ... ... : ... .. . ... ... : E-2 02 . ... : B-# 03 . ... : ... .. . ...
ROW 2B : ... .. . ... ... : ... .. . ... ... : E-2 02 . ... : B-# 03 . ... : ... .. . ...
ROW 2C : A#4 00 . ... ... : ... .. . ... ... : E-2 02 . ... : B-# 03 . ... : ... .. . ...
ROW 2D : ... .. . ... ... : ... .. . ... ... : ... .. . ... : ... .. . ... : ... .. . ...
ROW 2E : ... .. . ... ... : ... .. . ... ... : E-2 02 . ... : B-# 03 . ... : ... .. . ...
ROW 2F : ... .. . ... ... : ... .. . ... ... : E-2 02 . ... : B-# 03 . ... : ... .. . ...
ROW 30 : A-4 00 . ... ... : F-3 00 . ... ... : F-2 02 . ... : B-# 03 . ... : ... .. . ...
ROW 31 : ... .. . ... ... : ... .. . ... ... : ... .. . ... : ... .. . ... : ... .. . ...
ROW 32 : ... .. . ... ... : ... .. . ... ... : F-2 02 . ... : B-# 03 . ... : ... .. . ...
ROW 33 : ... .. . ... ... : ... .. . ... ... : F-2 02 . ... : B-# 03 . ... : ... .. . ...
ROW 34 : F-4 00 . ... ... : F-2 00 . ... ... : F-2 02 . ... : B-# 03 . ... : ... .. . ...
ROW 35 : ... .. . ... ... : F-2 00 . G02 ... : ... .. . ... : ... .. . ... : ... .. . ...
ROW 36 : ... .. . ... ... : F-2 00 . G04 ... : F-2 02 . ... : B-# 03 . ... : ... .. . ...
ROW 37 : ... .. . ... ... : ... .. . ... ... : F-2 02 . ... : B-# 03 . ... : ... .. . ...
ROW 38 : ... .. . ... ... : F-2 00 . ... ... : F-2 02 . ... : B-# 03 . ... : ... .. . ...
ROW 39 : ... .. . ... ... : ... .. . ... ... : ... .. . ... : ... .. . ... : ... .. . ...
ROW 3A : ... .. . ... ... : ... .. . ... ... : F-2 02 . ... : B-# 03 . ... : ... .. . ...
ROW 3B : ... .. . ... ... : ... .. . ... ... : F-2 02 . ... : B-# 03 . ... : ... .. . ...
ROW 3C : F-4 00 . ... ... : ... .. . ... ... : F-2 02 . ... : B-# 03 . ... : ... .. . ...
ROW 3D : ... .. . ... ... : ... .. . ... ... : ... .. . ... : ... .. . ... : ... .. . ...
ROW 3E : ... .. . ... ... : ... .. . ... ... : F-2 02 . ... : B-# 03 . ... : ... .. . ...
ROW 3F : ... .. . ... ... : ... .. . ... ... : F-2 02 . ... : B-# 03 . ... : ... .. . ...

PATTERN 06
ROW 00 : F#4 00 . ... ... : E-1 00 . ... ... : E-2 02 . ... : B-# 03 . ... : ... .. . ...
ROW 01 : ... .. . ... ... : A#1 00 . G02 ... : ... .. . ... : ... .. . ... : ... .. . ...
ROW 02 : ... .. . ... ... : C#2 00 . G04 ... : E-2 02 . ... : B-# 03 . ... : ... .. . ...
ROW 03 : ... .. . ... ... : ... .. . ... ... : E-2 02 . ... : B-# 03 . ... : ... .. . ...
ROW 04 : ... .. . ... ... : E-2 00 . ... ... : E-2 02 . ... : B-# 03 . ... : ... .. . ...
ROW 05 : ... .. . ... ... : A#2 00 . G02 ... : ... .. . ... : ... .. . ... : ... .. . ...
ROW 06 : ... .. . ... ... : C#3 00 . G04 ... : E-2 02 . ... : B-# 03 . ... : ... .. . ...
ROW 07 : ... .. . ... ... : ... .. . ... ... : E-2 02 . ... : B-# 03 . ... : ... .. . ...
ROW 08 : ... .. . ... ... : E-3 00 . ... ... : E-2 02 . ... : B-# 03 . ... : ... .. . ...
ROW 09 : ... .. . ... ... : ... .. . ... ... : ... .. . ... : ... .. . ... : ... .. . ...
ROW 0A : ... .. . ... ... : ... .. . ... ... : E-2 02 . ... : B-# 03 . ... : ... .. . ...
ROW 0B : ... .. . ... ... : ... .. . ... ... : E-2 02 . ... : B-# 03 . ... : ... .. . ...
ROW 0C : A#4 00 . ... ... : ... .. . ... ... : E-2 02 . ... : B-# 03 . ... : ... .. . ...
ROW 0D : ... .. . ... ... : ... .. . ... ... : ... .. . ... : ... .. . ... : ... .. . ...
ROW 0E : ... .. . ... ... : ... .. . ... ... : E-2 02 . ... : B-# 03 . ... : ... .. . ...
ROW 0F : ... .. . ... ... : ... .. . ... ... : E-2 02 . ... : B-# 03 . ... : ... .. . ...
ROW 10 : A-4 00 . ... ... : F-3 00 . ... ... : F-2 02 . ... : B-# 03 . ... : ... .. . ...
ROW 11 : ... .. . ... ... : ... .. . ... ... : ... .. . ... : ... .. . ... : ... .. . ...
ROW 12 : ... .. . ... ... : ... .. . ... ... : F-2 02 . ... : B-# 03 . ... : ... .. . ...
ROW 13 : ... .. . ... ... : ... .. . ... ... : F-2 02 . ... : B-# 03 . ... : ... .. . ...
ROW 14 : F-4 00 . ... ... : F-2 00 . ... ... : F-2 02 . ... : B-# 03 . ... : ... .. . ...
ROW 15 : ... .. . ... ... : F-2 00 . G02 ... : ... .. . ... : ... .. . ... : ... .. . ...
ROW 16 : ... .. . ... ... : F-2 00 . G04 ... : F-2 02 . ... : B-# 03 . ... : ... .. . ...
ROW 17 : ... .. . ... ... : ... .. . ... ... : F-2 02 . ... : B-# 03 . ... : ... .. . ...
ROW 18 : ... .. . ... ... : F-2 00 . ... ... : F-2 02 . ... : B-# 03 . ... : ... .. . ...
ROW 19 : ... .. . ... ... : ... .. . ... ... : ... .. . ... : ... .. . ... : ... .. . ...
ROW 1A : ... .. . ... ... : ... .. . ... ... : F-2 02 . ... : B-# 03 . ... : ... .. . ...
ROW 1B : ... .. . ... ... : ... .. . ... ... : F-2 02 . ... : B-# 03 . ... : ... .. . ...
ROW 1C : D-4 00 . ... ... : ... .. . ... ... : F-2 02 . ... : B-# 03 . ... : ... .. . ...
ROW 1D : ... .. . ... ... : ... .. . ... ... : ... .. . ... : ... .. . ... : ... .. . ...
ROW 1E : ... .. . ... ... : ... .. . ... ... : F-2 02 . ... : B-# 03 . ... : ... .. . ...
ROW 1F : ... .. . ... ... : ... .. . ... ... : F-2 02 . ... : B-# 03 . ... : ... .. . ...
ROW 20 : D#4 00 . ... ... : F#3 00 . ... ... : B-2 02 . ... : B-# 03 . ... : ... .. . ...
ROW 21 : ... .. . ... ... : ... .. . ... ... : ... .. . ... : ... .. . ... : ... .. . ...
ROW 22 : ... .. . ... ... : ... .. . ... ... : B-2 02 . ... : B-# 03 . ... : ... .. . ...
ROW 23 : ... .. . ... ... : ... .. . ... ... : B-2 02 . ... : B-# 03 . ... : ... .. . ...
ROW 24 : ... .. . ... ... : ... .. . ... ... : B-2 02 . ... : B-# 03 . ... : ... .. . ...
ROW 25 : ... .. . ... ... : ... .. . ... ... : ... .. . ... : ... .. . ... : ... .. . ...
ROW 26 : ... .. . ... ... : ... .. . ... ... : B-2 02 . ... : B-# 03 . ... : ... .. . ...
ROW 27 : ... .. . ... ... : ... .. . ... ... : B-2 02 . ... : B-# 03 . ... : ... .. . ...
ROW 28 : ... .. . ... ... : ... .. . ... ... : B-2 02 . ... : B-# 03 . ... : ... .. . ...
ROW 29 : ... .. . ... ... : ... .. . ... ... : ... .. . ... : ... .. . ... : ... .. . ...
ROW 2A : ... .. . ... ... : ... .. . ... ... : B-2 02 . ... : B-# 03 . ... : ... .. . ...
ROW 2B : ... .. . ... ... : ... .. . ... ... : B-2 02 . ... : B-# 03 . ... : ... .. . ...
ROW 2C : F#4 00 . ... ... : B-3 00 . ... ... : B-2 02 . ... : B-# 03 . ... : ... .. . ...
ROW 2D : ... .. . ... ... : ... .. . ... ... : ... .. . ... : ... .. . ... : ... .. . ...
ROW 2E : ... .. . ... ... : ... .. . ... ... : B-2 02 . ... : B-# 03 . ... : ... .. . ...
ROW 2F : ... .. . ... ... : ... .. . ... ... : B-2 02 . ... : B-# 03 . ... : ... .. . ...
ROW 30 : F-4 00 . ... ... : A#3 00 . ... ... : A#2 02 . ... : B-# 03 . ... : ... .. . ...
ROW 31 : ... .. . ... ... : ... .. . ... ... : ... .. . ... : ... .. . ... : ... .. . ...
ROW 32 : ... .. . ... ... : ... .. . ... ... : A#2 02 . ... : B-# 03 . ... : ... .. . ...
ROW 33 : ... .. . ... ... : ... .. . ... ... : A#2 02 . ... : B-# 03 . ... : ... .. . ...
ROW 34 : C#4 00 . ... ... : F-3 00 . ... ... : A#2 02 . ... : B-# 03 . ... : ... .. . ...
ROW 35 : ... .. . ... ... : ... .. . ... ... : ... .. . ... : ... .. . ... : ... .. . ...
ROW 36 : ... .. . ... ... : ... .. . ... ... : A#2 02 . ... : B-# 03 . ... : ... .. . ...
ROW 37 : ... .. . ... ... : ... .. . ... ... : A#2 02 . ... : B-# 03 . ... : ... .. . ...
ROW 38 : ... .. . ... ... : ... .. . ... ... : A#2 02 . ... : B-# 03 . ... : ... .. . ...
ROW 39 : ... .. . ... ... : ... .. . ... ... : ... .. . ... : ... .. . ... : ... .. . ...
ROW 3A : ... .. . ... ... : ... .. . ... ... : A#2 02 . ... : B-# 03 . ... : ... .. . ...
ROW 3B : ... .. . ... ... : ... .. . ... ... : A#2 02 . ... : B-# 03 . ... : ... .. . ...
ROW 3C : A#3 00 . ... ... : C#3 00 . ... ... : A#2 02 . ... : B-# 03 . ... : ... .. . ...
ROW 3D : ... .. . ... ... : ... .. . ... ... : ... .. . ... : ... .. . ... : ... .. . ...
ROW 3E : ... .. . ... ... : ... .. . ... ... : A#2 02 . ... : B-# 03 . ... : ... .. . ...
ROW 3F : ... .. . ... ... : ... .. . ... ... : A#2 02 . ... : B-# 03 . ... : ... .. . ...

PATTERN 07
ROW 00 : C-4 00 . ... ... : E-3 00 . ... ... : C-3 02 . ... : B-# 03 . ... : ... .. . ...
ROW 01 : ... .. . ... ... : ... .. . ... ... : ... .. . ... : ... .. . ... : ... .. . ...
ROW 02 : C-4 00 . ... ... : ... .. . ... ... : C-3 02 . ... : B-# 03 . ... : ... .. . ...
ROW 03 : D-4 00 . ... ... : ... .. . ... ... : C-3 02 . ... : B-# 03 . ... : ... .. . ...
ROW 04 : E-4 00 . ... ... : E-3 00 . ... ... : C-3 02 . ... : B-# 03 . ... : ... .. . ...
ROW 05 : ... .. . ... ... : ... .. . ... ... : ... .. . ... : ... .. . ... : ... .. . ...
ROW 06 : ... .. . ... ... : E-3 00 . ... ... : C-3 02 . ... : B-# 03 . ... : ... .. . ...
ROW 07 : ... .. . ... ... : F-3 00 . ... ... : C-3 02 . ... : B-# 03 . ... : ... .. . ...
ROW 08 : ... .. . ... ... : G-3 00 . ... ... : C-3 02 . ... : B-# 03 . ... : ... .. . ...
ROW 09 : ... .. . ... ... : ... .. . ... ... : ... .. . ... : ... .. . ... : ... .. . ...
ROW 0A : ... .. . ... ... : G-3 00 . ... ... : C-3 02 . ... : B-# 03 . ... : ... .. . ...
ROW 0B : ... .. . ... ... : A-3 00 . ... ... : C-3 02 . ... : B-# 03 . ... : ... .. . ...
ROW 0C : G-4 00 . ... ... : A#3 00 . ... ... : C-3 02 . ... : B-# 03 . ... : ... .. . ...
ROW 0D : ... .. . ... ... : ... .. . ... ... : ... .. . ... : ... .. . ... : ... .. . ...
ROW 0E : ... .. . ... ... : C-4 00 . ... ... : C-3 02 . ... : B-# 03 . ... : ... .. . ...
ROW 0F : ... .. . ... ... : ... .. . ... ... : C-3 02 . ... : B-# 03 . ... : ... .. . ...
ROW 10 : F-4 00 . ... ... : A-3 00 . ... ... : F-3 02 . ... : B-# 03 . ... : ... .. . ...
ROW 11 : ... .. . ... ... : ... .. . ... ... : ... .. . ... : ... .. . ... : ... .. . ...
ROW 12 : F-3 00 . ... ... : A-2 00 . ... ... : F-2 02 . ... : B-# 03 . ... : ... .. . ...
ROW 13 : F-3 00 . ... ... : A-2 00 . ... ... : F-2 02 . ... : B-# 03 . ... : ... .. . ...
ROW 14 : F-3 00 . ... ... : G#2 00 . ... ... : F-2 02 . ... : B-# 03 . ... : ... .. . ...
ROW 15 : ... .. . ... ... : ... .. . ... ... : ... .. . ... : ... .. . ... : ... .. . ...
ROW 16 : F-3 00 . ... ... : G#2 00 . ... ... : F-2 02 . ... : B-# 03 . ... : ... .. . ...
ROW 17 : F-3 00 . ... ... : G#2 00 . ... ... : F-2 02 . ... : B-# 03 . ... : ... .. . ...
ROW 18 : F-3 00 . ... ... : G-2 00 . ... ... : F-2 02 . ... : B-# 03 . ... : ... .. . ...
ROW 19 : ... .. . ... ... : ... .. . ... ... : ... .. . ... : ... .. . ... : ... .. . ...
ROW 1A : F-3 00 . ... ... : G-2 00 . ... ... : F-2 02 . ... : B-# 03 . ... : ... .. . ...
ROW 1B : F-3 00 . ... ... : G-2 00 . ... ... : F-2 02 . ... : B-# 03 . ... : ... .. . ...
ROW 1C : F-3 00 . ... ... : F#2 00 . ... ... : F-2 02 . ... : B-# 03 . ... : ... .. . ...
ROW 1D : ... .. . ... ... : ... .. . ... ... : ... .. . ... : ... .. . ... : ... .. . ...
ROW 1E : F-3 00 . ... ... : F#2 00 . ... ... : F-2 02 . ... : B-# 03 . ... : ... .. . ...
ROW 1F : ... .. . ... ... : ... .. . ... ... : G-2 02 . B00 : B-# 03 . ... : ... .. . ...
ROW 20 : ... .. . ... ... : ... .. . ... ... : A#2 02 . B00 : B-# 03 . ... : ... .. . ...
ROW 21 : ... .. . ... ... : ... .. . ... ... : ... .. . ... : ... .. . ... : ... .. . ...
ROW 22 : ... .. . ... ... : ... .. . ... ... : ... .. . ... : ... .. . ... : ... .. . ...
ROW 23 : ... .. . ... ... : ... .. . ... ... : ... .. . ... : ... .. . ... : ... .. . ...
ROW 24 : ... .. . ... ... : ... .. . ... ... : ... .. . ... : ... .. . ... : ... .. . ...
ROW 25 : ... .. . ... ... : ... .. . ... ... : ... .. . ... : ... .. . ... : ... .. . ...
ROW 26 : ... .. . ... ... : ... .. . ... ... : ... .. . ... : ... .. . ... : ... .. . ...
ROW 27 : ... .. . ... ... : ... .. . ... ... : ... .. . ... : ... .. . ... : ... .. . ...
ROW 28 : ... .. . ... ... : ... .. . ... ... : ... .. . ... : ... .. . ... : ... .. . ...
ROW 29 : ... .. . ... ... : ... .. . ... ... : ... .. . ... : ... .. . ... : ... .. . ...
ROW 2A : ... .. . ... ... : ... .. . ... ... : ... .. . ... : ... .. . ... : ... .. . ...
ROW 2B : ... .. . ... ... : ... .. . ... ... : ... .. . ... : ... .. . ... : ... .. . ...
ROW 2C : ... .. . ... ... : ... .. . ... ... : ... .. . ... : ... .. . ... : ... .. . ...
ROW 2D : ... .. . ... ... : ... .. . ... ... : ... .. . ... : ... .. . ... : ... .. . ...
ROW 2E : ... .. . ... ... : ... .. . ... ... : ... .. . ... : ... .. . ... : ... .. . ...
ROW 2F : ... .. . ... ... : ... .. . ... ... : ... .. . ... : ... .. . ... : ... .. . ...
ROW 30 : ... .. . ... ... : ... .. . ... ... : ... .. . ... : ... .. . ... : ... .. . ...
ROW 31 : ... .. . ... ... : ... .. . ... ... : ... .. . ... : ... .. . ... : ... .. . ...
ROW 32 : ... .. . ... ... : ... .. . ... ... : ... .. . ... : ... .. . ... : ... .. . ...
ROW 33 : ... .. . ... ... : ... .. . ... ... : ... .. . ... : ... .. . ... : ... .. . ...
ROW 34 : ... .. . ... ... : ... .. . ... ... : ... .. . ... : ... .. . ... : ... .. . ...
ROW 35 : ... .. . ... ... : ... .. . ... ... : ... .. . ... : ... .. . ... : ... .. . ...
ROW 36 : ... .. . ... ... : ... .. . ... ... : ... .. . ... : ... .. . ... : ... .. . ...
ROW 37 : ... .. . ... ... : ... .. . ... ... : ... .. . ... : ... .. . ... : ... .. . ...
ROW 38 : ... .. . ... ... : ... .. . ... ... : ... .. . ... : ... .. . ... : ... .. . ...
ROW 39 : ... .. . ... ... : ... .. . ... ... : ... .. . ... : ... .. . ... : ... .. . ...
ROW 3A : ... .. . ... ... : ... .. . ... ... : ... .. . ... : ... .. . ... : ... .. . ...
ROW 3B : ... .. . ... ... : ... .. . ... ... : ... .. . ... : ... .. . ... : ... .. . ...
ROW 3C : ... .. . ... ... : ... .. . ... ... : ... .. . ... : ... .. . ... : ... .. . ...
ROW 3D : ... .. . ... ... : ... .. . ... ... : ... .. . ... : ... .. . ... : ... .. . ...
ROW 3E : ... .. . ... ... : ... .. . ... ... : ... .. . ... : ... .. . ... : ... .. . ...
ROW 3F : ... .. . ... ... : ... .. . ... ... : ... .. . ... : ... .. . ... : ... .. . ...

TRACK  64   6 150 "Game"
COLUMNS : 2 2 1 1 1

ORDER 00 : 00 00 00 00 00
ORDER 01 : 01 01 01 01 01
ORDER 02 : 02 02 02 01 01
ORDER 03 : 03 03 01 01 01
ORDER 04 : 04 04 02 02 02
ORDER 05 : 00 00 05 00 00
ORDER 06 : 07 07 01 01 01
ORDER 07 : 08 08 02 01 01
ORDER 08 : 03 03 01 01 01
ORDER 09 : 09 09 02 01 01
ORDER 0A : 05 05 03 01 03
ORDER 0B : 06 06 04 02 04
ORDER 0C : 0A 0A 01 01 01
ORDER 0D : 0B 0B 02 01 01
ORDER 0E : 0C 0C 01 00 01
ORDER 0F : 0D 0D 02 00 01
ORDER 10 : 0E 0E 00 03 02

PATTERN 00
ROW 00 : D#4 04 F P81 V01 : G-3 04 A V01 ... : C-2 04 . ... : D-# 05 F ... : ... .. . ...
ROW 01 : ... .. . ... ... : ... .. . ... ... : ... .. . ... : ... .. . ... : ... .. . ...
ROW 02 : G-3 04 . S05 ... : A#2 04 . S05 ... : ... .. . ... : D-# 05 . ... : G-3 04 . Z00
ROW 03 : A#3 04 . S05 ... : D#3 04 . S05 ... : ... .. . ... : D-# 05 . ... : ... .. . ...
ROW 04 : D#4 04 . ... ... : G-3 04 . ... ... : G-2 04 . ... : D-# 05 . ... : ... .. . ...
ROW 05 : ... .. . ... ... : ... .. . ... ... : ... .. . ... : ... .. . ... : ... .. . ...
ROW 06 : F-4 04 . ... ... : A-3 04 . ... ... : ... .. . ... : D-# 05 . ... : G-3 04 . Z00
ROW 07 : ... .. . ... ... : ... .. . ... ... : ... .. . ... : ... .. . ... : ... .. . ...
ROW 08 : G-4 04 . ... ... : A#3 04 . ... ... : C-3 04 . ... : D-# 05 . ... : ... .. . ...
ROW 09 : ... .. . ... ... : ... .. . ... ... : ... .. . ... : ... .. . ... : ... .. . ...
ROW 0A : ... .. . ... ... : ... .. . ... ... : ... .. . ... : D-# 05 . ... : G-3 04 . Z00
ROW 0B : ... .. . ... ... : ... .. . ... ... : ... .. . ... : ... .. . ... : G-3 04 . Z00
ROW 0C : A-4 04 . ... ... : C-4 04 . ... ... : D#3 04 . ... : D-# 05 . ... : ... .. . ...
ROW 0D : ... .. . ... ... : ... .. . ... ... : ... .. . ... : ... .. . ... : ... .. . ...
ROW 0E : G-4 04 . ... ... : A#3 04 . ... ... : ... .. . ... : D-# 05 . ... : G-3 04 . Z00
ROW 0F : ... .. . S00 ... : ... .. . S00 ... : ... .. . ... : ... .. . ... : ... .. . ...
ROW 10 : D-4 04 . ... ... : F-3 04 . ... ... : G-2 04 . ... : D-# 05 . ... : ... .. . ...
ROW 11 : ... .. . ... ... : ... .. . ... ... : ... .. . ... : ... .. . ... : ... .. . ...
ROW 12 : F-3 04 . S05 ... : A-2 04 . S05 ... : ... .. . ... : D-# 05 . ... : G-3 04 . Z00
ROW 13 : A-3 04 . S05 ... : D-3 04 . S05 ... : ... .. . ... : D-# 05 . ... : ... .. . ...
ROW 14 : A#3 04 . ... ... : F-3 04 . ... ... : D-2 04 . ... : D-# 05 . ... : ... .. . ...
ROW 15 : ... .. . ... ... : ... .. . ... ... : ... .. . ... : ... .. . ... : ... .. . ...
ROW 16 : C-4 04 . ... ... : G-3 04 . ... ... : ... .. . ... : D-# 05 . ... : G-3 04 . Z00
ROW 17 : ... .. . ... ... : ... .. . ... ... : ... .. . ... : ... .. . ... : ... .. . ...
ROW 18 : D-4 04 . ... ... : A-3 04 . ... ... : A#2 04 . ... : D-# 05 . ... : ... .. . ...
ROW 19 : ... .. . ... ... : ... .. . ... ... : ... .. . ... : ... .. . ... : ... .. . ...
ROW 1A : ... .. . ... ... : ... .. . ... ... : ... .. . ... : D-# 05 . ... : G-3 04 . Z00
ROW 1B : ... .. . ... ... : ... .. . ... ... : ... .. . ... : ... .. . ... : ... .. . ...
ROW 1C : ... .. . 464 ... : ... .. . 464 ... : D-2 04 . ... : D-# 05 . ... : G-3 04 . Z00
ROW 1D : ... .. . ... ... : ... .. . ... ... : ... .. . ... : ... .. . ... : ... .. . ...
ROW 1E : ... .. . ... ... : ... .. . ... ... : ... .. . ... : D-# 05 . ... : G-3 04 . Z00
ROW 1F : ... .. . ... ... : ... .. . ... ... : ... .. . ... : D-# 05 . ... : ... .. . ...
ROW 20 : A-3 04 . 400 ... : F#3 04 . 400 ... : D-3 04 . ... : D-# 05 . ... : ... .. . ...
ROW 21 : ... .. . ... ... : ... .. . ... ... : ... .. . ... : ... .. . ... : ... .. . ...
ROW 22 : F#3 04 . S05 ... : D-3 04 . S05 ... : ... .. . ... : D-# 05 . ... : G-3 04 . Z00
ROW 23 : G-3 04 . S05 ... : E-3 04 . S05 ... : ... .. . ... : D-# 05 . ... : ... .. . ...
ROW 24 : A-3 04 . ... ... : F#3 04 . ... ... : A-2 04 . ... : D-# 05 . ... : ... .. . ...
ROW 25 : ... .. . ... ... : ... .. . ... ... : ... .. . ... : ... .. . ... : ... .. . ...
ROW 26 : A#3 04 . ... ... : G-3 04 . ... ... : ... .. . ... : D-# 05 . ... : G-3 04 . Z00
ROW 27 : ... .. . S00 ... : ... .. . S00 ... : ... .. . ... : ... .. . ... : ... .. . ...
ROW 28 : C-4 04 . ... ... : A-3 04 . ... ... : D-3 04 . ... : D-# 05 . ... : ... .. . ...
ROW 29 : ... .. . ... ... : ... .. . ... ... : ... .. . ... : ... .. . ... : ... .. . ...
ROW 2A : ... .. . ... ... : ... .. . ... ... : ... .. . ... : D-# 05 . ... : G-3 04 . Z00
ROW 2B : ... .. . ... ... : ... .. . ... ... : ... .. . ... : ... .. . ... : G-3 04 . Z00
ROW 2C : D-4 04 . ... ... : A#3 04 . ... ... : A-2 04 . ... : D-# 05 . ... : ... .. . ...
ROW 2D : ... .. . ... ... : ... .. . ... ... : ... .. . ... : ... .. . ... : ... .. . ...
ROW 2E : C-4 04 . ... ... : A-3 04 . ... ... : ... .. . ... : D-# 05 . ... : G-3 04 . Z00
ROW 2F : ... .. . S00 ... : ... .. . S00 ... : ... .. . ... : ... .. . ... : ... .. . ...
ROW 30 : A#3 04 . ... ... : G-3 04 . ... ... : G-2 04 . ... : D-# 05 . ... : ... .. . ...
ROW 31 : ... .. . ... ... : ... .. . ... ... : ... .. . ... : ... .. . ... : ... .. . ...
ROW 32 : C-4 04 . S05 ... : A-3 04 . S05 ... : ... .. . ... : D-# 05 . ... : G-3 04 . Z00
ROW 33 : A#3 04 . S05 ... : G-3 04 . S05 ... : ... .. . ... : D-# 05 . ... : ... .. . ...
ROW 34 : G-3 04 . ... ... : D-3 04 . ... ... : D-2 04 . ... : D-# 05 . ... : ... .. . ...
ROW 35 : ... .. . ... ... : ... .. . ... ... : ... .. . ... : ... .. . ... : ... .. . ...
ROW 36 : ... .. . ... ... : ... .. . ... ... : ... .. . ... : D-# 05 . ... : G-3 04 . Z00
ROW 37 : ... .. . S00 ... : ... .. . S00 ... : ... .. . ... : ... .. . ... : ... .. . ...
ROW 38 : G-3 04 . ... ... : D-3 04 . ... ... : G-2 04 . ... : D-# 05 . ... : ... .. . ...
ROW 39 : ... .. . ... ... : ... .. . ... ... : ... .. . ... : ... .. . ... : ... .. . ...
ROW 3A : ... .. . ... ... : ... .. . ... ... : ... .. . ... : D-# 05 . ... : G-3 04 . Z00
ROW 3B : ... .. . ... ... : ... .. . ... ... : ... .. . ... : ... .. . ... : ... .. . ...
ROW 3C : ... .. . 484 ... : ... .. . 484 ... : D-2 04 . ... : D-# 05 . ... : G-3 04 . Z00
ROW 3D : ... .. . ... ... : ... .. . ... ... : ... .. . ... : ... .. . ... : ... .. . ...
ROW 3E : ... .. . S00 400 : ... .. . S00 400 : ... .. . ... : D-# 05 . ... : G-3 04 . Z00
ROW 3F : ... .. . ... ... : ... .. . ... ... : ... .. . ... : D-# 05 . ... : ... .. . ...

PATTERN 01
ROW 00 : A-4 04 F P82 V02 : ... .. . ... ... : D-2 04 . ... : ... .. . ... : E-3 04 . Z00
ROW 01 : ... .. . 481 ... : ... .. . ... ... : ... .. . ... : ... .. . ... : ... .. . ...
ROW 02 : ... .. . ... ... : A-4 04 6 481 V02 : D-3 04 . ... : D-# 05 F ... : G-3 04 . Z00
ROW 03 : ... .. . ... ... : ... .. . ... ... : ... .. . ... : ... .. . ... : ... .. . ...
ROW 04 : ... .. . ... ... : ... .. . ... ... : D-2 04 . ... : ... .. . ... : E-3 04 . Z00
ROW 05 : ... .. . ... ... : ... .. . ... ... : ... .. . ... : ... .. . ... : ... .. . ...
ROW 06 : A#4 04 . ... ... : ... .. . ... ... : D-3 04 . ... : D-# 05 . ... : G-3 04 . Z00
ROW 07 : ... .. . ... ... : ... .. . ... ... : ... .. . ... : ... .. . ... : ... .. . ...
ROW 08 : C-5 04 . ... ... : A#4 04 . ... ... : D-2 04 . ... : ... .. . ... : E-3 04 . Z00
ROW 09 : ... .. . ... ... : ... .. . ... ... : ... .. . ... : ... .. . ... : ... .. . ...
ROW 0A : ... .. . ... ... : C-5 04 . ... ... : D-3 04 . ... : D-# 05 . ... : G-3 04 . Z00
ROW 0B : ... .. . ... ... : ... .. . ... ... : ... .. . ... : D-# 05 . ... : G-3 04 . Z00
ROW 0C : D-5 04 . ... ... : ... .. . ... ... : D-2 04 . ... : ... .. . ... : E-3 04 . Z00
ROW 0D : ... .. . ... ... : ... .. . ... ... : ... .. . ... : ... .. . ... : ... .. . ...
ROW 0E : ... .. . ... ... : D-5 04 . ... ... : D-3 04 . ... : D-# 05 . ... : G-3 04 . Z00
ROW 0F : ... .. . ... ... : ... .. . ... ... : ... .. . ... : ... .. . ... : ... .. . ...
ROW 10 : A#4 04 . ... ... : ... .. . ... ... : G-2 04 . ... : ... .. . ... : E-3 04 . Z00
ROW 11 : ... .. . ... ... : ... .. . ... ... : ... .. . ... : ... .. . ... : ... .. . ...
ROW 12 : ... .. . S00 ... : A#4 04 . ... ... : G-3 04 . ... : D-# 05 . ... : G-3 04 . Z00
ROW 13 : ... .. . ... ... : ... .. . ... ... : ... .. . ... : ... .. . ... : ... .. . ...
ROW 14 : G-4 04 . ... ... : ... .. . S00 ... : G-2 04 . ... : ... .. . ... : E-3 04 . Z00
ROW 15 : ... .. . ... ... : ... .. . ... ... : ... .. . ... : ... .. . ... : ... .. . ...
ROW 16 : ... .. . ... ... : G-4 04 . ... ... : G-3 04 . ... : D-# 05 . ... : G-3 04 . Z00
ROW 17 : ... .. . ... ... : ... .. . ... ... : ... .. . ... : ... .. . ... : ... .. . ...
ROW 18 : D-5 04 . ... ... : ... .. . ... ... : G-2 04 . ... : ... .. . ... : E-3 04 . Z00
ROW 19 : ... .. . ... ... : ... .. . ... ... : ... .. . ... : ... .. . ... : ... .. . ...
ROW 1A : ... .. . 464 ... : D-5 04 . ... ... : G-3 04 . ... : D-# 05 . ... : G-3 04 . Z00
ROW 1B : ... .. . ... ... : ... .. . ... ... : ... .. . ... : ... .. . ... : ... .. . ...
ROW 1C : C-5 04 . 481 ... : ... .. . 464 ... : G-2 04 . ... : D-# 05 . ... : G-3 04 . Z00
ROW 1D : ... .. . ... ... : ... .. . ... ... : ... .. . ... : ... .. . ... : ... .. . ...
ROW 1E : A#4 04 . ... ... : C-5 04 . 481 ... : G-3 04 . ... : D-# 05 . ... : G-3 04 . Z00
ROW 1F : ... .. . ... ... : ... .. . ... ... : ... .. . ... : ... .. . ... : ... .. . ...
ROW 20 : A-4 04 . ... ... : A#4 04 . ... ... : F#2 04 . ... : ... .. . ... : E-3 04 . Z00
ROW 21 : ... .. . ... ... : ... .. . ... ... : ... .. . ... : ... .. . ... : ... .. . ...
ROW 22 : ... .. . ... ... : A-4 04 . ... ... : F#3 04 . ... : D-# 05 . ... : G-3 04 . Z00
ROW 23 : ... .. . ... ... : ... .. . ... ... : ... .. . ... : ... .. . ... : ... .. . ...
ROW 24 : ... .. . ... ... : ... .. . ... ... : F#2 04 . ... : ... .. . ... : E-3 04 . Z00
ROW 25 : ... .. . ... ... : ... .. . ... ... : ... .. . ... : ... .. . ... : ... .. . ...
ROW 26 : A#4 04 . ... ... : ... .. . ... ... : F#3 04 . ... : D-# 05 . ... : G-3 04 . Z00
ROW 27 : ... .. . ... ... : ... .. . ... ... : ... .. . ... : ... .. . ... : ... .. . ...
ROW 28 : C-5 04 . ... ... : A#4 04 . ... ... : D-2 04 . ... : ... .. . ... : E-3 04 . Z00
ROW 29 : ... .. . ... ... : ... .. . ... ... : ... .. . ... : ... .. . ... : ... .. . ...
ROW 2A : ... .. . ... ... : C-5 04 . ... ... : D-3 04 . ... : D-# 05 . ... : G-3 04 . Z00
ROW 2B : ... .. . ... ... : ... .. . ... ... : ... .. . ... : D-# 05 . ... : G-3 04 . Z00
ROW 2C : D-5 04 . ... ... : ... .. . ... ... : D-2 04 . ... : ... .. . ... : E-3 04 . Z00
ROW 2D : ... .. . ... ... : ... .. . ... ... : ... .. . ... : ... .. . ... : ... .. . ...
ROW 2E : ... .. . ... ... : D-5 04 . ... ... : D-3 04 . ... : D-# 05 . ... : G-3 04 . Z00
ROW 2F : ... .. . ... ... : ... .. . ... ... : ... .. . ... : ... .. . ... : ... .. . ...
ROW 30 : A#4 04 . ... ... : ... .. . ... ... : G-2 04 . ... : ... .. . ... : E-3 04 . Z00
ROW 31 : ... .. . ... ... : ... .. . ... ... : ... .. . ... : ... .. . ... : ... .. . ...
ROW 32 : ... .. . S00 ... : A#4 04 . ... ... : G-3 04 . ... : D-# 05 . ... : G-3 04 . Z00
ROW 33 : ... .. . ... ... : ... .. . ... ... : ... .. . ... : ... .. . ... : ... .. . ...
ROW 34 : G-4 04 . ... ... : ... .. . S00 ... : G-2 04 . ... : ... .. . ... : E-3 04 . Z00
ROW 35 : ... .. . ... ... : ... .. . ... ... : ... .. . ... : ... .. . ... : ... .. . ...
ROW 36 : ... .. . S00 ... : G-4 04 . ... ... : G-3 04 . ... : D-# 05 . ... : G-3 04 . Z00
ROW 37 : ... .. . ... ... : ... .. . ... ... : ... .. . ... : ... .. . ... : ... .. . ...
ROW 38 : G-4 04 . ... ... : ... .. . S00 ... : G-2 04 . ... : ... .. . ... : E-3 04 . Z00
ROW 39 : ... .. . ... ... : ... .. . ... ... : ... .. . ... : ... .. . ... : ... .. . ...
ROW 3A : ... .. . 462 ... : G-4 04 . ... ... : A-2 04 . ... : D-# 05 . ... : G-3 04 . Z00
ROW 3B : ... .. . ... ... : ... .. . ... ... : ... .. . ... : ... .. . ... : ... .. . ...
ROW 3C : ... .. . ... ... : ... .. . 462 ... : A#2 04 . ... : D-# 05 . ... : G-3 04 . Z00
ROW 3D : ... .. . ... ... : ... .. . ... ... : ... .. . ... : ... .. . ... : ... .. . ...
ROW 3E : ... .. . ... ... : ... .. . ... ... : C-3 04 . ... : D-# 05 . ... : G-3 04 . Z00
ROW 3F : ... .. . S00 481 : ... .. . ... ... : ... .. . ... : ... .. . ... : ... .. . ...

PATTERN 02
ROW 00 : ... .. . 481 ... : ... .. . ... ... : C-2 04 . ... : ... .. . ... : E-3 04 . Z00
ROW 01 : ... .. . ... ... : ... .. . ... ... : ... .. . ... : ... .. . ... : ... .. . ...
ROW 02 : C-5 04 F P82 V02 : ... .. . ... ... : C-3 04 . ... : D-# 05 . ... : G-3 04 . Z00
ROW 03 : ... .. . ... ... : ... .. . ... ... : ... .. . ... : ... .. . ... : ... .. . ...
ROW 04 : ... .. . ... ... : C-5 04 7 481 V02 : C-2 04 . ... : ... .. . ... : E-3 04 . Z00
ROW 05 : ... .. . ... ... : ... .. . ... ... : ... .. . ... : ... .. . ... : ... .. . ...
ROW 06 : D#5 04 . ... ... : ... .. . ... ... : C-3 04 . ... : D-# 05 . ... : G-3 04 . Z00
ROW 07 : ... .. . ... ... : ... .. . ... ... : ... .. . ... : ... .. . ... : ... .. . ...
ROW 08 : G-5 04 . ... ... : D#5 04 . ... ... : C-2 04 . ... : ... .. . ... : E-3 04 . Z00
ROW 09 : ... .. . ... ... : ... .. . ... ... : ... .. . ... : ... .. . ... : ... .. . ...
ROW 0A : ... .. . ... ... : G-5 04 . ... ... : C-3 04 . ... : D-# 05 . ... : G-3 04 . Z00
ROW 0B : ... .. . ... ... : ... .. . ... ... : ... .. . ... : D-# 05 . ... : G-3 04 . Z00
ROW 0C : F-5 04 . 400 ... : ... .. . ... ... : C-2 04 . ... : ... .. . ... : E-3 04 . Z00
ROW 0D : ... .. . ... ... : ... .. . ... ... : ... .. . ... : ... .. . ... : ... .. . ...
ROW 0E : D#5 04 . ... ... : F-5 04 . 481 ... : C-3 04 . ... : D-# 05 . ... : G-3 04 . Z00
ROW 0F : ... .. . ... ... : ... .. . ... ... : ... .. . ... : ... .. . ... : ... .. . ...
ROW 10 : D-5 04 . ... ... : D#5 04 . ... ... : A#1 04 . ... : ... .. . ... : E-3 04 . Z00
ROW 11 : ... .. . ... ... : ... .. . ... ... : ... .. . ... : ... .. . ... : ... .. . ...
ROW 12 : ... .. . ... ... : D-5 04 . ... ... : A#2 04 . ... : D-# 05 . ... : G-3 04 . Z00
ROW 13 : ... .. . ... ... : ... .. . ... ... : ... .. . ... : ... .. . ... : ... .. . ...
ROW 14 : ... .. . 464 ... : ... .. . ... ... : A#1 04 . ... : ... .. . ... : E-3 04 . Z00
ROW 15 : ... .. . ... ... : ... .. . ... ... : ... .. . ... : ... .. . ... : ... .. . ...
ROW 16 : A#4 04 . 481 ... : ... .. . 464 ... : A#2 04 . ... : D-# 05 . ... : G-3 04 . Z00
ROW 17 : ... .. . ... ... : ... .. . ... ... : ... .. . ... : ... .. . ... : ... .. . ...
ROW 18 : D-5 04 . ... ... : A#4 04 . 481 ... : A#1 04 . ... : ... .. . ... : E-3 04 . Z00
ROW 19 : ... .. . ... ... : ... .. . ... ... : ... .. . ... : ... .. . ... : ... .. . ...
ROW 1A : ... .. . ... ... : D-5 04 . ... ... : A#2 04 . ... : D-# 05 . ... : G-3 04 . Z00
ROW 1B : ... .. . ... ... : ... .. . ... ... : ... .. . ... : ... .. . ... : ... .. . ...
ROW 1C : C-5 04 . ... ... : ... .. . ... ... : A#1 04 . ... : D-# 05 . ... : G-3 04 . Z00
ROW 1D : ... .. . ... ... : ... .. . ... ... : ... .. . ... : ... .. . ... : ... .. . ...
ROW 1E : A#4 04 . ... ... : C-5 04 . ... ... : A#2 04 . ... : D-# 05 . ... : G-3 04 . Z00
ROW 1F : ... .. . ... ... : ... .. . ... ... : ... .. . ... : ... .. . ... : ... .. . ...
ROW 20 : A-4 04 . ... ... : A#4 04 . ... ... : F#2 04 . ... : ... .. . ... : E-3 04 . Z00
ROW 21 : ... .. . ... ... : ... .. . ... ... : ... .. . ... : ... .. . ... : ... .. . ...
ROW 22 : ... .. . S00 ... : A-4 04 . ... ... : F#3 04 . ... : D-# 05 . ... : G-3 04 . Z00
ROW 23 : ... .. . ... ... : ... .. . ... ... : ... .. . ... : ... .. . ... : ... .. . ...
ROW 24 : A-4 04 . ... ... : ... .. . S00 ... : F#2 04 . ... : ... .. . ... : E-3 04 . Z00
ROW 25 : ... .. . ... ... : ... .. . ... ... : ... .. . ... : ... .. . ... : ... .. . ...
ROW 26 : A#4 04 . ... ... : A-4 04 . ... ... : F#3 04 . ... : D-# 05 . ... : G-3 04 . Z00
ROW 27 : ... .. . ... ... : ... .. . ... ... : ... .. . ... : ... .. . ... : ... .. . ...
ROW 28 : C-5 04 . ... ... : A#4 04 . ... ... : D-2 04 . ... : ... .. . ... : E-3 04 . Z00
ROW 29 : ... .. . ... ... : ... .. . ... ... : ... .. . ... : ... .. . ... : ... .. . ...
ROW 2A : ... .. . ... ... : C-5 04 . ... ... : D-3 04 . ... : D-# 05 . ... : G-3 04 . Z00
ROW 2B : ... .. . ... ... : ... .. . ... ... : ... .. . ... : D-# 05 . ... : G-3 04 . Z00
ROW 2C : D-5 04 . ... ... : ... .. . ... ... : D-2 04 . ... : ... .. . ... : E-3 04 . Z00
ROW 2D : ... .. . ... ... : ... .. . ... ... : ... .. . ... : ... .. . ... : ... .. . ...
ROW 2E : ... .. . ... ... : D-5 04 . ... ... : D-3 04 . ... : D-# 05 . ... : G-3 04 . Z00
ROW 2F : ... .. . ... ... : ... .. . ... ... : ... .. . ... : ... .. . ... : ... .. . ...
ROW 30 : A#4 04 . ... ... : ... .. . ... ... : G-2 04 . ... : D-# 04 F ... : A-3 04 . Z00
ROW 31 : ... .. . ... ... : ... .. . ... ... : ... .. . ... : ... .. 7 ... : ... .. . ...
ROW 32 : ... .. . S00 ... : A#4 04 . ... ... : G-3 04 . ... : ... .. 3 ... : ... .. . ...
ROW 33 : ... .. . ... ... : ... .. . ... ... : ... .. . ... : ... .. 1 ... : ... .. . ...
ROW 34 : G-4 04 . ... ... : ... .. . S00 ... : G-2 04 . ... : D-# 04 F ... : A-3 04 . Z00
ROW 35 : ... .. . ... ... : ... .. . ... ... : ... .. . ... : ... .. 7 ... : ... .. . ...
ROW 36 : ... .. . S00 ... : G-4 04 . ... ... : G-3 04 . ... : ... .. 3 ... : ... .. . ...
ROW 37 : ... .. . ... ... : ... .. . ... ... : ... .. . ... : ... .. 1 ... : ... .. . ...
ROW 38 : G-4 04 . ... ... : ... .. . S00 ... : G-2 04 . ... : D-# 04 F R00 : A#3 04 . Z00
ROW 39 : ... .. . ... ... : ... .. . ... ... : ... .. . ... : ... .. C R01 : ... .. . ...
ROW 3A : ... .. . 462 ... : G-4 04 . ... ... : G-3 04 . ... : ... .. A R01 : ... .. . ...
ROW 3B : ... .. . ... ... : ... .. . ... ... : ... .. . ... : ... .. 8 R01 : ... .. . ...
ROW 3C : ... .. . ... ... : ... .. . 462 ... : G-2 04 . ... : ... .. 6 R01 : ... .. . ...
ROW 3D : ... .. . ... ... : ... .. . ... ... : ... .. . ... : ... .. 4 R01 : ... .. . ...
ROW 3E : ... .. . ... ... : ... .. . ... ... : ... .. . ... : ... .. 2 R01 : ... .. . ...
ROW 3F : ... .. . S00 400 : ... .. . ... ... : ... .. . ... : ... .. 1 R01 : ... .. . ...

PATTERN 03
ROW 00 : A-4 04 F P82 V02 : A-4 04 A 481 V02 : G-2 04 . ... : D-# 05 F ... : ... .. . ...
ROW 01 : ... .. . 481 ... : ... .. . ... ... : ... .. . ... : ... .. . ... : ... .. . ...
ROW 02 : ... .. . ... ... : ... .. . ... ... : D-3 04 . ... : D-# 05 . ... : ... .. . ...
ROW 03 : ... .. . ... ... : ... .. . ... ... : ... .. . ... : D-# 05 . ... : ... .. . ...
ROW 04 : ... .. . ... ... : F#4 04 . ... ... : G-2 04 . ... : D-# 05 . ... : E-3 04 . Z00
ROW 05 : ... .. . ... ... : ... .. . ... ... : ... .. . ... : ... .. . ... : ... .. . ...
ROW 06 : A#4 04 . ... ... : G-4 04 . ... ... : D-3 04 . ... : D-# 05 . ... : ... .. . ...
ROW 07 : ... .. . ... ... : ... .. . ... ... : ... .. . ... : ... .. . ... : ... .. . ...
ROW 08 : C-5 04 . ... ... : A-4 04 . ... ... : G-2 04 . ... : D-# 05 . ... : ... .. . ...
ROW 09 : ... .. . ... ... : ... .. . ... ... : ... .. . ... : ... .. . ... : ... .. . ...
ROW 0A : ... .. . ... ... : ... .. . ... ... : D-3 04 . ... : D-# 05 . ... : ... .. . ...
ROW 0B : ... .. . ... ... : ... .. . ... ... : ... .. . ... : ... .. . ... : ... .. . ...
ROW 0C : D-5 04 . ... ... : A#4 04 . ... ... : G-2 04 . ... : D-# 05 . ... : E-3 04 . Z00
ROW 0D : ... .. . ... ... : ... .. . ... ... : ... .. . ... : ... .. . ... : ... .. . ...
ROW 0E : ... .. . ... ... : ... .. . ... ... : D-3 04 . ... : D-# 05 . ... : ... .. . ...
ROW 0F : ... .. . ... ... : ... .. . ... ... : ... .. . ... : ... .. . ... : ... .. . ...
ROW 10 : A#4 04 . ... ... : G-4 04 . ... ... : A-2 04 . ... : D-# 05 . ... : ... .. . ...
ROW 11 : ... .. . ... ... : ... .. . ... ... : ... .. . ... : ... .. . ... : ... .. . ...
ROW 12 : ... .. . S00 ... : ... .. . S00 ... : C-3 04 . ... : D-# 05 . ... : ... .. . ...
ROW 13 : ... .. . ... ... : ... .. . ... ... : ... .. . ... : D-# 05 . ... : ... .. . ...
ROW 14 : G-4 04 . ... ... : D-4 04 . ... ... : A-2 04 . ... : D-# 05 . ... : E-3 04 . Z00
ROW 15 : ... .. . ... ... : ... .. . ... ... : ... .. . ... : ... .. . ... : ... .. . ...
ROW 16 : ... .. . ... ... : ... .. . ... ... : C-3 04 . ... : D-# 05 . ... : ... .. . ...
ROW 17 : ... .. . ... ... : ... .. . ... ... : ... .. . ... : ... .. . ... : ... .. . ...
ROW 18 : D-5 04 . ... ... : A#4 04 . ... ... : A-2 04 . ... : D-# 05 . ... : ... .. . ...
ROW 19 : ... .. . ... ... : ... .. . ... ... : ... .. . ... : ... .. . ... : ... .. . ...
ROW 1A : ... .. . 464 ... : ... .. . 464 ... : C-3 04 . ... : D-# 05 . ... : E-3 04 . Z00
ROW 1B : ... .. . ... ... : ... .. . ... ... : ... .. . ... : ... .. . ... : E-3 04 . Z00
ROW 1C : C-5 04 . 481 ... : A-4 04 . 481 ... : A-2 04 . ... : D-# 05 . ... : E-3 04 . Z00
ROW 1D : ... .. . ... ... : ... .. . ... ... : ... .. . ... : ... .. . ... : ... .. . ...
ROW 1E : A#4 04 . ... ... : G-4 04 . ... ... : C-3 04 . ... : D-# 05 . ... : ... .. . ...
ROW 1F : ... .. . ... ... : ... .. . ... ... : ... .. . ... : D-# 05 . ... : ... .. . ...
ROW 20 : A-4 04 . ... ... : F#4 04 . ... ... : G-2 04 . ... : D-# 05 . ... : ... .. . ...
ROW 21 : ... .. . ... ... : ... .. . ... ... : ... .. . ... : ... .. . ... : ... .. . ...
ROW 22 : ... .. . ... ... : ... .. . ... ... : D-3 04 . ... : D-# 05 . ... : ... .. . ...
ROW 23 : ... .. . ... ... : ... .. . ... ... : ... .. . ... : D-# 05 . ... : ... .. . ...
ROW 24 : ... .. . ... ... : ... .. . ... ... : G-2 04 . ... : D-# 05 . ... : E-3 04 . Z00
ROW 25 : ... .. . ... ... : ... .. . ... ... : ... .. . ... : ... .. . ... : ... .. . ...
ROW 26 : A#4 04 . ... ... : G-4 04 . ... ... : D-3 04 . ... : D-# 05 . ... : ... .. . ...
ROW 27 : ... .. . ... ... : ... .. . ... ... : ... .. . ... : ... .. . ... : ... .. . ...
ROW 28 : C-5 04 . ... ... : A-4 04 . ... ... : G-2 04 . ... : D-# 05 . ... : ... .. . ...
ROW 29 : ... .. . ... ... : ... .. . ... ... : ... .. . ... : ... .. . ... : ... .. . ...
ROW 2A : ... .. . ... ... : ... .. . ... ... : D-3 04 . ... : D-# 05 . ... : ... .. . ...
ROW 2B : ... .. . ... ... : ... .. . ... ... : ... .. . ... : ... .. . ... : ... .. . ...
ROW 2C : D-5 04 . ... ... : A#4 04 . ... ... : G-2 04 . ... : D-# 05 . ... : E-3 04 . Z00
ROW 2D : ... .. . ... ... : ... .. . ... ... : ... .. . ... : ... .. . ... : ... .. . ...
ROW 2E : ... .. . ... ... : ... .. . ... ... : D-3 04 . ... : D-# 05 . ... : ... .. . ...
ROW 2F : ... .. . ... ... : ... .. . ... ... : ... .. . ... : ... .. . ... : ... .. . ...
ROW 30 : A#4 04 . ... ... : G-4 04 . ... ... : F#2 04 . ... : D-# 04 F ... : ... .. . ...
ROW 31 : ... .. . ... ... : ... .. . ... ... : ... .. . ... : ... .. 7 ... : ... .. . ...
ROW 32 : ... .. . S00 ... : ... .. . S00 ... : D-3 04 . ... : ... .. 3 ... : ... .. . ...
ROW 33 : ... .. . ... ... : ... .. . ... ... : ... .. . ... : ... .. 1 ... : ... .. . ...
ROW 34 : G-4 04 . ... ... : D-4 04 . ... ... : F#2 04 . ... : D-# 04 F ... : E-3 04 . Z00
ROW 35 : ... .. . ... ... : ... .. . ... ... : ... .. . ... : ... .. 7 ... : ... .. . ...
ROW 36 : ... .. . S00 ... : ... .. . S00 ... : D-3 04 . ... : ... .. 3 ... : ... .. . ...
ROW 37 : ... .. . ... ... : ... .. . ... ... : ... .. . ... : ... .. 1 ... : ... .. . ...
ROW 38 : G-4 04 . ... ... : D-4 04 . ... ... : F#2 04 . ... : D-# 04 F R00 : ... .. . ...
ROW 39 : ... .. . ... ... : ... .. . ... ... : ... .. . ... : ... .. C R01 : ... .. . ...
ROW 3A : ... .. . 462 ... : ... .. . 462 ... : --- .. . ... : ... .. A R01 : E-3 04 . Z00
ROW 3B : ... .. . ... ... : ... .. . ... ... : ... .. . ... : ... .. 8 R01 : E-3 04 . Z00
ROW 3C : ... .. . ... ... : ... .. . ... ... : ... .. . ... : ... .. 6 R01 : E-3 04 . Z00
ROW 3D : ... .. . ... ... : ... .. . ... ... : ... .. . ... : ... .. 4 R01 : ... .. . ...
ROW 3E : ... .. . ... ... : ... .. . ... ... : ... .. . ... : ... .. 2 R01 : ... .. . ...
ROW 3F : ... .. . S00 481 : ... .. . S00 481 : ... .. . ... : ... .. 1 R01 : ... .. . ...

PATTERN 04
ROW 00 : C-5 04 F P82 V02 : G-4 04 A 481 V02 : G-2 04 . ... : ... .. . ... : ... .. . ...
ROW 01 : ... .. . ... 481 : ... .. . ... ... : ... .. . ... : ... .. . ... : ... .. . ...
ROW 02 : ... .. . ... ... : ... .. . ... ... : D-3 04 . ... : ... .. . ... : ... .. . ...
ROW 03 : ... .. . ... ... : ... .. . ... ... : ... .. . ... : ... .. . ... : ... .. . ...
ROW 04 : ... .. . ... ... : ... .. . ... ... : G-2 04 . ... : ... .. . ... : E-3 04 . Z00
ROW 05 : ... .. . ... ... : ... .. . ... ... : ... .. . ... : ... .. . ... : ... .. . ...
ROW 06 : D#5 04 . ... ... : C-5 04 . ... ... : D-3 04 . ... : ... .. . ... : ... .. . ...
ROW 07 : ... .. . ... ... : ... .. . ... ... : ... .. . ... : ... .. . ... : ... .. . ...
ROW 08 : G-5 04 . ... ... : D#5 04 . ... ... : G-2 04 . ... : ... .. . ... : ... .. . ...
ROW 09 : ... .. . ... ... : ... .. . ... ... : ... .. . ... : ... .. . ... : ... .. . ...
ROW 0A : ... .. . ... ... : ... .. . ... ... : D-3 04 . ... : ... .. . ... : ... .. . ...
ROW 0B : ... .. . ... ... : ... .. . ... ... : ... .. . ... : ... .. . ... : ... .. . ...
ROW 0C : F-5 04 . 481 ... : D-5 04 . 481 ... : G-2 04 . ... : ... .. . ... : E-3 04 . Z00
ROW 0D : ... .. . ... ... : ... .. . ... ... : ... .. . ... : ... .. . ... : ... .. . ...
ROW 0E : D#5 04 . ... ... : C-5 04 . ... ... : D-3 04 . ... : ... .. . ... : ... .. . ...
ROW 0F : ... .. . ... ... : ... .. . ... ... : ... .. . ... : ... .. . ... : ... .. . ...
ROW 10 : D-5 04 . ... ... : A#4 04 . ... ... : A-2 04 . ... : ... .. . ... : ... .. . ...
ROW 11 : ... .. . ... ... : ... .. . ... ... : ... .. . ... : ... .. . ... : ... .. . ...
ROW 12 : ... .. . ... ... : ... .. . ... ... : C-3 04 . ... : ... .. . ... : ... .. . ...
ROW 13 : ... .. . ... ... : ... .. . ... ... : ... .. . ... : ... .. . ... : ... .. . ...
ROW 14 : ... .. . 464 ... : ... .. . 464 ... : A-2 04 . ... : ... .. . ... : E-3 04 . Z00
ROW 15 : ... .. . ... ... : ... .. . ... ... : ... .. . ... : ... .. . ... : ... .. . ...
ROW 16 : A#4 04 . 481 ... : G-4 04 . 481 ... : C-3 04 . ... : ... .. . ... : ... .. . ...
ROW 17 : ... .. . ... ... : ... .. . ... ... : ... .. . ... : ... .. . ... : ... .. . ...
ROW 18 : D-5 04 . ... ... : A#4 04 . ... ... : A-2 04 . ... : ... .. . ... : ... .. . ...
ROW 19 : ... .. . ... ... : ... .. . ... ... : ... .. . ... : ... .. . ... : ... .. . ...
ROW 1A : ... .. . ... ... : ... .. . ... ... : C-3 04 . ... : ... .. . ... : E-3 04 . Z00
ROW 1B : ... .. . ... ... : ... .. . ... ... : ... .. . ... : ... .. . ... : E-3 04 . Z00
ROW 1C : C-5 04 . ... ... : A-4 04 . ... ... : A-2 04 . ... : ... .. . ... : E-3 04 . Z00
ROW 1D : ... .. . ... ... : ... .. . ... ... : ... .. . ... : ... .. . ... : ... .. . ...
ROW 1E : A#4 04 . ... ... : G-4 04 . ... ... : C-3 04 . ... : ... .. . ... : ... .. . ...
ROW 1F : ... .. . ... ... : ... .. . ... ... : ... .. . ... : ... .. . ... : ... .. . ...
ROW 20 : A-4 04 . ... ... : F#4 04 . ... ... : G-2 04 . ... : ... .. . ... : ... .. . ...
ROW 21 : ... .. . ... ... : ... .. . ... ... : ... .. . ... : ... .. . ... : ... .. . ...
ROW 22 : ... .. . S00 ... : ... .. . S00 ... : D-3 04 . ... : ... .. . ... : ... .. . ...
ROW 23 : ... .. . ... ... : ... .. . ... ... : ... .. . ... : ... .. . ... : ... .. . ...
ROW 24 : A-4 04 . ... ... : F#4 04 . ... ... : G-2 04 . ... : ... .. . ... : E-3 04 . Z00
ROW 25 : ... .. . ... ... : ... .. . ... ... : ... .. . ... : ... .. . ... : ... .. . ...
ROW 26 : A#4 04 . ... ... : G-4 04 . ... ... : D-3 04 . ... : ... .. . ... : ... .. . ...
ROW 27 : ... .. . ... ... : ... .. . ... ... : ... .. . ... : ... .. . ... : ... .. . ...
ROW 28 : C-5 04 . ... ... : A-4 04 . ... ... : G-2 04 . ... : ... .. . ... : ... .. . ...
ROW 29 : ... .. . ... ... : ... .. . ... ... : ... .. . ... : ... .. . ... : ... .. . ...
ROW 2A : ... .. . ... ... : ... .. . ... ... : D-3 04 . ... : ... .. . ... : ... .. . ...
ROW 2B : ... .. . ... ... : ... .. . ... ... : ... .. . ... : ... .. . ... : ... .. . ...
ROW 2C : D-5 04 . ... ... : A#4 04 . ... ... : G-2 04 . ... : ... .. . ... : E-3 04 . Z00
ROW 2D : ... .. . ... ... : ... .. . ... ... : ... .. . ... : ... .. . ... : ... .. . ...
ROW 2E : ... .. . ... ... : ... .. . ... ... : D-3 04 . ... : ... .. . ... : ... .. . ...
ROW 2F : ... .. . ... ... : ... .. . ... ... : ... .. . ... : ... .. . ... : ... .. . ...
ROW 30 : A#4 04 . ... ... : G-4 04 . ... ... : F#2 04 . ... : ... .. . ... : A-3 04 . Z00
ROW 31 : ... .. . ... ... : ... .. . ... ... : ... .. . ... : ... .. . ... : ... .. . ...
ROW 32 : ... .. . S00 ... : ... .. . S00 ... : D-3 04 . ... : ... .. . ... : ... .. . ...
ROW 33 : ... .. . ... ... : ... .. . ... ... : ... .. . ... : ... .. . ... : ... .. . ...
ROW 34 : G-4 04 . ... ... : D-4 04 . ... ... : F#2 04 . ... : ... .. . ... : A-3 04 . Z00
ROW 35 : ... .. . ... ... : ... .. . ... ... : ... .. . ... : ... .. . ... : ... .. . ...
ROW 36 : ... .. . S00 ... : ... .. . S00 ... : D-3 04 . ... : ... .. . ... : ... .. . ...
ROW 37 : ... .. . ... ... : ... .. . ... ... : ... .. . ... : ... .. . ... : ... .. . ...
ROW 38 : G-4 04 . ... ... : D-4 04 . ... ... : F#2 04 . ... : ... .. . ... : A#3 04 . Z00
ROW 39 : ... .. . ... ... : ... .. . ... ... : ... .. . ... : ... .. . ... : ... .. . ...
ROW 3A : ... .. . 462 ... : ... .. . 462 ... : --- .. . ... : ... .. . ... : ... .. . ...
ROW 3B : ... .. . ... ... : ... .. . ... ... : ... .. . ... : ... .. . ... : ... .. . ...
ROW 3C : ... .. . ... ... : ... .. . ... ... : ... .. . ... : ... .. . ... : ... .. . ...
ROW 3D : ... .. . ... ... : ... .. . ... ... : ... .. . ... : ... .. . ... : ... .. . ...
ROW 3E : ... .. . ... ... : ... .. . ... ... : ... .. . ... : ... .. . ... : ... .. . ...
ROW 3F : ... .. . S00 400 : ... .. . S00 400 : ... .. . ... : ... .. . ... : ... .. . ...

PATTERN 05
ROW 00 : D-3 04 F V02 P82 : A#2 04 A V02 ... : C-2 04 . ... : ... .. . ... : ... .. . ...
ROW 01 : ... .. . ... ... : ... .. . ... ... : ... .. . ... : ... .. . ... : ... .. . ...
ROW 02 : ... .. . ... ... : ... .. . ... ... : G-2 04 . ... : ... .. . ... : ... .. . ...
ROW 03 : ... .. . ... ... : ... .. . ... ... : ... .. . ... : ... .. . ... : ... .. . ...
ROW 04 : ... .. . ... ... : ... .. . ... ... : C-3 04 . ... : ... .. . ... : ... .. . ...
ROW 05 : ... .. . ... ... : ... .. . ... ... : ... .. . ... : ... .. . ... : ... .. . ...
ROW 06 : ... .. . ... ... : ... .. . ... ... : D#3 04 . ... : ... .. . ... : ... .. . ...
ROW 07 : ... .. . ... ... : ... .. . ... ... : ... .. . ... : ... .. . ... : ... .. . ...
ROW 08 : A#2 04 . ... ... : G-2 04 . ... ... : C-2 04 . ... : ... .. . ... : ... .. . ...
ROW 09 : ... .. . ... ... : ... .. . ... ... : ... .. . ... : ... .. . ... : ... .. . ...
ROW 0A : ... .. . ... ... : ... .. . ... ... : G-2 04 . ... : ... .. . ... : ... .. . ...
ROW 0B : ... .. . ... ... : ... .. . ... ... : ... .. . ... : ... .. . ... : ... .. . ...
ROW 0C : ... .. . ... ... : ... .. . ... ... : C-3 04 . ... : ... .. . ... : ... .. . ...
ROW 0D : ... .. . ... ... : ... .. . ... ... : ... .. . ... : ... .. . ... : ... .. . ...
ROW 0E : ... .. . ... ... : ... .. . ... ... : D#3 04 . ... : ... .. . ... : ... .. . ...
ROW 0F : ... .. . ... ... : ... .. . ... ... : ... .. . ... : ... .. . ... : ... .. . ...
ROW 10 : C-3 04 . ... ... : A-2 04 . ... ... : A#1 04 . ... : ... .. . ... : ... .. . ...
ROW 11 : ... .. . ... ... : ... .. . ... ... : ... .. . ... : ... .. . ... : ... .. . ...
ROW 12 : ... .. . ... ... : ... .. . ... ... : F-2 04 . ... : ... .. . ... : ... .. . ...
ROW 13 : ... .. . ... ... : ... .. . ... ... : ... .. . ... : ... .. . ... : ... .. . ...
ROW 14 : ... .. . ... ... : ... .. . ... ... : A#2 04 . ... : ... .. . ... : ... .. . ...
ROW 15 : ... .. . ... ... : ... .. . ... ... : ... .. . ... : ... .. . ... : ... .. . ...
ROW 16 : ... .. . ... ... : ... .. . ... ... : D-3 04 . ... : ... .. . ... : ... .. . ...
ROW 17 : ... .. . ... ... : ... .. . ... ... : ... .. . ... : ... .. . ... : ... .. . ...
ROW 18 : A-2 04 . ... ... : F#2 04 . ... ... : A#1 04 . ... : ... .. . ... : ... .. . ...
ROW 19 : ... .. . ... ... : ... .. . ... ... : ... .. . ... : ... .. . ... : ... .. . ...
ROW 1A : ... .. . ... ... : ... .. . ... ... : F-2 04 . ... : ... .. . ... : ... .. . ...
ROW 1B : ... .. . ... ... : ... .. . ... ... : ... .. . ... : ... .. . ... : ... .. . ...
ROW 1C : ... .. . ... ... : ... .. . ... ... : A#2 04 . ... : ... .. . ... : ... .. . ...
ROW 1D : ... .. . ... ... : ... .. . ... ... : ... .. . ... : ... .. . ... : ... .. . ...
ROW 1E : ... .. . ... ... : ... .. . ... ... : D-3 04 . ... : ... .. . ... : ... .. . ...
ROW 1F : ... .. . ... ... : ... .. . ... ... : ... .. . ... : ... .. . ... : ... .. . ...
ROW 20 : A#2 04 . ... ... : G-2 04 . ... ... : A-1 04 . ... : ... .. . ... : ... .. . ...
ROW 21 : ... .. . ... ... : ... .. . ... ... : ... .. . ... : ... .. . ... : ... .. . ...
ROW 22 : ... .. . ... ... : ... .. . ... ... : D-1 04 . ... : ... .. . ... : ... .. . ...
ROW 23 : ... .. . ... ... : ... .. . ... ... : ... .. . ... : ... .. . ... : ... .. . ...
ROW 24 : ... .. . ... ... : ... .. . ... ... : A-1 04 . ... : ... .. . ... : ... .. . ...
ROW 25 : ... .. . ... ... : ... .. . ... ... : ... .. . ... : ... .. . ... : ... .. . ...
ROW 26 : ... .. . ... ... : ... .. . ... ... : D-1 04 . ... : ... .. . ... : ... .. . ...
ROW 27 : ... .. . ... ... : ... .. . ... ... : ... .. . ... : ... .. . ... : ... .. . ...
ROW 28 : G-2 04 . ... ... : D-2 04 . ... ... : A-1 04 . ... : ... .. . ... : ... .. . ...
ROW 29 : ... .. . ... ... : ... .. . ... ... : ... .. . ... : ... .. . ... : ... .. . ...
ROW 2A : ... .. . ... ... : ... .. . ... ... : D-1 04 . ... : ... .. . ... : ... .. . ...
ROW 2B : ... .. . ... ... : ... .. . ... ... : ... .. . ... : ... .. . ... : ... .. . ...
ROW 2C : ... .. . ... ... : ... .. . ... ... : A-1 04 . ... : ... .. . ... : ... .. . ...
ROW 2D : ... .. . ... ... : ... .. . ... ... : ... .. . ... : ... .. . ... : ... .. . ...
ROW 2E : ... .. . ... ... : ... .. . ... ... : D-1 04 . ... : ... .. . ... : ... .. . ...
ROW 2F : ... .. . ... ... : ... .. . ... ... : ... .. . ... : ... .. . ... : ... .. . ...
ROW 30 : F#2 04 . ... ... : D-2 04 . ... ... : G-1 04 . ... : ... .. . ... : ... .. . ...
ROW 31 : ... .. . ... ... : ... .. . ... ... : ... .. . ... : ... .. . ... : ... .. . ...
ROW 32 : ... .. . ... ... : ... .. . ... ... : D-1 04 . ... : ... .. . ... : ... .. . ...
ROW 33 : ... .. . ... ... : ... .. . ... ... : ... .. . ... : ... .. . ... : ... .. . ...
ROW 34 : ... .. . ... ... : ... .. . ... ... : G-1 04 . ... : ... .. . ... : ... .. . ...
ROW 35 : ... .. . ... ... : ... .. . ... ... : ... .. . ... : ... .. . ... : ... .. . ...
ROW 36 : ... .. . ... ... : ... .. . ... ... : D-1 04 . ... : ... .. . ... : ... .. . ...
ROW 37 : ... .. . ... ... : ... .. . ... ... : ... .. . ... : ... .. . ... : ... .. . ...
ROW 38 : A-2 04 . ... ... : F#2 04 . P7E ... : G-1 04 . ... : ... .. . ... : ... .. . ...
ROW 39 : ... .. . ... ... : ... .. . ... ... : ... .. . ... : ... .. . ... : ... .. . ...
ROW 3A : ... .. . ... ... : ... .. . ... ... : D-1 04 . ... : ... .. . ... : ... .. . ...
ROW 3B : ... .. . ... ... : ... .. . ... ... : ... .. . ... : ... .. . ... : ... .. . ...
ROW 3C : --- .. . ... ... : --- .. . P80 ... : G-1 04 . ... : ... .. . ... : ... .. . ...
ROW 3D : ... .. . ... ... : ... .. . ... ... : ... .. . ... : ... .. . ... : ... .. . ...
ROW 3E : ... .. . ... ... : ... .. . ... ... : --- .. . ... : ... .. . ... : ... .. . ...
ROW 3F : ... .. . ... ... : ... .. . ... ... : ... .. . ... : ... .. . ... : ... .. . ...

PATTERN 06
ROW 00 : D-4 04 F V02 P82 : A#3 04 A V02 ... : ... .. . ... : ... .. . ... : ... .. . ...
ROW 01 : ... .. . ... ... : ... .. . ... ... : ... .. . ... : ... .. . ... : ... .. . ...
ROW 02 : ... .. . ... ... : ... .. . ... ... : ... .. . ... : ... .. . ... : ... .. . ...
ROW 03 : ... .. . ... ... : ... .. . ... ... : ... .. . ... : ... .. . ... : ... .. . ...
ROW 04 : ... .. . ... ... : ... .. . ... ... : ... .. . ... : ... .. . ... : ... .. . ...
ROW 05 : ... .. . ... ... : ... .. . ... ... : ... .. . ... : ... .. . ... : ... .. . ...
ROW 06 : ... .. . ... ... : ... .. . ... ... : ... .. . ... : ... .. . ... : ... .. . ...
ROW 07 : ... .. . ... ... : ... .. . ... ... : ... .. . ... : ... .. . ... : ... .. . ...
ROW 08 : A#3 04 . ... ... : G-3 04 . ... ... : ... .. . ... : ... .. . ... : ... .. . ...
ROW 09 : ... .. . ... ... : ... .. . ... ... : ... .. . ... : ... .. . ... : ... .. . ...
ROW 0A : ... .. . ... ... : ... .. . ... ... : ... .. . ... : ... .. . ... : ... .. . ...
ROW 0B : ... .. . ... ... : ... .. . ... ... : ... .. . ... : ... .. . ... : ... .. . ...
ROW 0C : ... .. . ... ... : ... .. . ... ... : ... .. . ... : ... .. . ... : ... .. . ...
ROW 0D : ... .. . ... ... : ... .. . ... ... : ... .. . ... : ... .. . ... : ... .. . ...
ROW 0E : ... .. . ... ... : ... .. . ... ... : ... .. . ... : ... .. . ... : ... .. . ...
ROW 0F : ... .. . ... ... : ... .. . ... ... : ... .. . ... : ... .. . ... : ... .. . ...
ROW 10 : C-4 04 . ... ... : A-3 04 . ... ... : ... .. . ... : ... .. . ... : ... .. . ...
ROW 11 : ... .. . ... ... : ... .. . ... ... : ... .. . ... : ... .. . ... : ... .. . ...
ROW 12 : ... .. . ... ... : ... .. . ... ... : ... .. . ... : ... .. . ... : ... .. . ...
ROW 13 : ... .. . ... ... : ... .. . ... ... : ... .. . ... : ... .. . ... : ... .. . ...
ROW 14 : ... .. . ... ... : ... .. . ... ... : ... .. . ... : ... .. . ... : ... .. . ...
ROW 15 : ... .. . ... ... : ... .. . ... ... : ... .. . ... : ... .. . ... : ... .. . ...
ROW 16 : ... .. . ... ... : ... .. . ... ... : ... .. . ... : ... .. . ... : ... .. . ...
ROW 17 : ... .. . ... ... : ... .. . ... ... : ... .. . ... : ... .. . ... : ... .. . ...
ROW 18 : A-3 04 . ... ... : F#3 04 . ... ... : ... .. . ... : ... .. . ... : ... .. . ...
ROW 19 : ... .. . ... ... : ... .. . ... ... : ... .. . ... : ... .. . ... : ... .. . ...
ROW 1A : ... .. . ... ... : ... .. . ... ... : ... .. . ... : ... .. . ... : ... .. . ...
ROW 1B : ... .. . ... ... : ... .. . ... ... : ... .. . ... : ... .. . ... : ... .. . ...
ROW 1C : ... .. . ... ... : ... .. . ... ... : ... .. . ... : ... .. . ... : ... .. . ...
ROW 1D : ... .. . ... ... : ... .. . ... ... : ... .. . ... : ... .. . ... : ... .. . ...
ROW 1E : ... .. . ... ... : ... .. . ... ... : ... .. . ... : ... .. . ... : ... .. . ...
ROW 1F : ... .. . ... ... : ... .. . ... ... : ... .. . ... : ... .. . ... : ... .. . ...
ROW 20 : A#3 04 . ... ... : G-3 04 . ... ... : ... .. . ... : ... .. . ... : ... .. . ...
ROW 21 : ... .. . ... ... : ... .. . ... ... : ... .. . ... : ... .. . ... : ... .. . ...
ROW 22 : ... .. . ... ... : ... .. . ... ... : ... .. . ... : ... .. . ... : ... .. . ...
ROW 23 : ... .. . ... ... : ... .. . ... ... : ... .. . ... : ... .. . ... : ... .. . ...
ROW 24 : D-4 04 . ... ... : A#3 04 . ... ... : ... .. . ... : ... .. . ... : ... .. . ...
ROW 25 : ... .. . ... ... : ... .. . ... ... : ... .. . ... : ... .. . ... : ... .. . ...
ROW 26 : ... .. . ... ... : ... .. . ... ... : ... .. . ... : ... .. . ... : ... .. . ...
ROW 27 : ... .. . ... ... : ... .. . ... ... : ... .. . ... : ... .. . ... : ... .. . ...
ROW 28 : G-4 04 . ... ... : D-4 04 . ... ... : ... .. . ... : ... .. . ... : ... .. . ...
ROW 29 : ... .. . ... ... : ... .. . ... ... : ... .. . ... : ... .. . ... : ... .. . ...
ROW 2A : ... .. . ... ... : ... .. . ... ... : ... .. . ... : ... .. . ... : ... .. . ...
ROW 2B : ... .. . ... ... : ... .. . ... ... : ... .. . ... : ... .. . ... : ... .. . ...
ROW 2C : ... .. . ... ... : ... .. . ... ... : ... .. . ... : ... .. . ... : ... .. . ...
ROW 2D : ... .. . ... ... : ... .. . ... ... : ... .. . ... : ... .. . ... : ... .. . ...
ROW 2E : ... .. . ... ... : ... .. . ... ... : ... .. . ... : ... .. . ... : ... .. . ...
ROW 2F : ... .. . ... ... : ... .. . ... ... : ... .. . ... : ... .. . ... : ... .. . ...
ROW 30 : F#4 04 . ... ... : D-4 04 . ... ... : ... .. . ... : ... .. . ... : ... .. . ...
ROW 31 : ... .. . ... ... : ... .. . ... ... : ... .. . ... : ... .. . ... : ... .. . ...
ROW 32 : ... .. . ... ... : ... .. . ... ... : ... .. . ... : ... .. . ... : ... .. . ...
ROW 33 : ... .. . ... ... : ... .. . ... ... : ... .. . ... : ... .. . ... : ... .. . ...
ROW 34 : ... .. . 464 ... : ... .. . 462 ... : ... .. . ... : ... .. . ... : ... .. . ...
ROW 35 : ... .. . ... ... : ... .. . ... ... : ... .. . ... : ... .. . ... : ... .. . ...
ROW 36 : ... .. . ... ... : ... .. . ... ... : ... .. . ... : ... .. . ... : ... .. . ...
ROW 37 : ... .. . ... ... : ... .. . ... ... : ... .. . ... : ... .. . ... : ... .. . ...
ROW 38 : --- .. . 400 ... : --- .. . 400 ... : ... .. . ... : ... .. . ... : ... .. . ...
ROW 39 : ... .. . ... ... : ... .. . ... ... : ... .. . ... : ... .. . ... : ... .. . ...
ROW 3A : ... .. . ... ... : ... .. . ... ... : ... .. . ... : ... .. . ... : ... .. . ...
ROW 3B : ... .. . ... ... : ... .. . ... ... : ... .. . ... : ... .. . ... : ... .. . ...
ROW 3C : ... .. . ... ... : ... .. . ... ... : ... .. . ... : ... .. . ... : ... .. . ...
ROW 3D : ... .. . ... ... : ... .. . ... ... : ... .. . ... : ... .. . ... : ... .. . ...
ROW 3E : ... .. . ... ... : ... .. . ... ... : ... .. . ... : ... .. . ... : ... .. . ...
ROW 3F : ... .. . ... ... : ... .. . ... ... : ... .. . ... : ... .. . ... : ... .. . ...

PATTERN 07
ROW 00 : D-4 04 F P82 V02 : A-3 04 A 400 V02 : ... .. . ... : ... .. . ... : ... .. . ...
ROW 01 : ... .. . ... ... : ... .. . ... ... : ... .. . ... : ... .. . ... : ... .. . ...
ROW 02 : ... .. . ... ... : ... .. . ... ... : ... .. . ... : ... .. . ... : ... .. . ...
ROW 03 : ... .. . ... ... : ... .. . ... ... : ... .. . ... : ... .. . ... : ... .. . ...
ROW 04 : A-3 04 . ... ... : F#3 04 . ... ... : ... .. . ... : ... .. . ... : ... .. . ...
ROW 05 : ... .. . ... ... : ... .. . ... ... : ... .. . ... : ... .. . ... : ... .. . ...
ROW 06 : A#3 04 . ... ... : G-3 04 . ... ... : ... .. . ... : ... .. . ... : ... .. . ...
ROW 07 : ... .. . ... ... : ... .. . ... ... : ... .. . ... : ... .. . ... : ... .. . ...
ROW 08 : C-4 04 . ... ... : A-3 04 . ... ... : ... .. . ... : ... .. . ... : ... .. . ...
ROW 09 : ... .. . ... ... : ... .. . ... ... : ... .. . ... : ... .. . ... : ... .. . ...
ROW 0A : D-4 04 . ... ... : ... .. . ... ... : ... .. . ... : ... .. . ... : ... .. . ...
ROW 0B : C-4 04 . ... ... : ... .. . ... ... : ... .. . ... : ... .. . ... : ... .. . ...
ROW 0C : A#3 04 . ... ... : G-3 04 . ... ... : ... .. . ... : ... .. . ... : ... .. . ...
ROW 0D : ... .. . ... ... : ... .. . ... ... : ... .. . ... : ... .. . ... : ... .. . ...
ROW 0E : A-3 04 . ... ... : F#3 04 . ... ... : ... .. . ... : ... .. . ... : ... .. . ...
ROW 0F : ... .. . ... ... : ... .. . ... ... : ... .. . ... : ... .. . ... : ... .. . ...
ROW 10 : G-3 04 . ... ... : D-3 04 . ... ... : ... .. . ... : ... .. . ... : ... .. . ...
ROW 11 : ... .. . ... ... : ... .. . ... ... : ... .. . ... : ... .. . ... : ... .. . ...
ROW 12 : ... .. . S00 ... : ... .. . S00 ... : ... .. . ... : ... .. . ... : ... .. . ...
ROW 13 : ... .. . ... ... : ... .. . ... ... : ... .. . ... : ... .. . ... : ... .. . ...
ROW 14 : G-3 04 . ... ... : D-3 04 . ... ... : ... .. . ... : ... .. . ... : ... .. . ...
ROW 15 : ... .. . ... ... : ... .. . ... ... : ... .. . ... : ... .. . ... : ... .. . ...
ROW 16 : A#3 04 . ... ... : G-3 04 . ... ... : ... .. . ... : ... .. . ... : ... .. . ...
ROW 17 : ... .. . ... ... : ... .. . ... ... : ... .. . ... : ... .. . ... : ... .. . ...
ROW 18 : D-4 04 . ... ... : A#3 04 . ... ... : ... .. . ... : ... .. . ... : ... .. . ...
ROW 19 : ... .. . ... ... : ... .. . ... ... : ... .. . ... : ... .. . ... : ... .. . ...
ROW 1A : ... .. . 464 ... : ... .. . 464 ... : ... .. . ... : ... .. . ... : ... .. . ...
ROW 1B : ... .. . ... ... : ... .. . ... ... : ... .. . ... : ... .. . ... : ... .. . ...
ROW 1C : C-4 04 . 400 ... : A-3 04 . 400 ... : ... .. . ... : ... .. . ... : ... .. . ...
ROW 1D : ... .. . ... ... : ... .. . ... ... : ... .. . ... : ... .. . ... : ... .. . ...
ROW 1E : A#3 04 . ... ... : G-3 04 . ... ... : ... .. . ... : ... .. . ... : ... .. . ...
ROW 1F : ... .. . ... ... : ... .. . ... ... : ... .. . ... : ... .. . ... : ... .. . ...
ROW 20 : A-3 04 . ... ... : F#3 04 . ... ... : ... .. . ... : ... .. . ... : ... .. . ...
ROW 21 : ... .. . ... ... : ... .. . ... ... : ... .. . ... : ... .. . ... : ... .. . ...
ROW 22 : ... .. . ... ... : ... .. . ... ... : ... .. . ... : ... .. . ... : ... .. . ...
ROW 23 : ... .. . ... ... : ... .. . ... ... : ... .. . ... : ... .. . ... : ... .. . ...
ROW 24 : ... .. . ... ... : ... .. . ... ... : ... .. . ... : ... .. . ... : ... .. . ...
ROW 25 : ... .. . ... ... : ... .. . ... ... : ... .. . ... : ... .. . ... : ... .. . ...
ROW 26 : A#3 04 . ... ... : G-3 04 . ... ... : ... .. . ... : ... .. . ... : ... .. . ...
ROW 27 : ... .. . ... ... : ... .. . ... ... : ... .. . ... : ... .. . ... : ... .. . ...
ROW 28 : C-4 04 . ... ... : A-3 04 . ... ... : ... .. . ... : ... .. . ... : ... .. . ...
ROW 29 : ... .. . ... ... : ... .. . ... ... : ... .. . ... : ... .. . ... : ... .. . ...
ROW 2A : ... .. . ... ... : ... .. . ... ... : ... .. . ... : ... .. . ... : ... .. . ...
ROW 2B : ... .. . ... ... : ... .. . ... ... : ... .. . ... : ... .. . ... : ... .. . ...
ROW 2C : D-4 04 . ... ... : A#3 04 . ... ... : ... .. . ... : ... .. . ... : ... .. . ...
ROW 2D : ... .. . ... ... : ... .. . ... ... : ... .. . ... : ... .. . ... : ... .. . ...
ROW 2E : ... .. . ... ... : ... .. . ... ... : ... .. . ... : ... .. . ... : ... .. . ...
ROW 2F : ... .. . ... ... : ... .. . ... ... : ... .. . ... : ... .. . ... : ... .. . ...
ROW 30 : A#3 04 . ... ... : G-3 04 . ... ... : ... .. . ... : ... .. . ... : ... .. . ...
ROW 31 : ... .. . ... ... : ... .. . ... ... : ... .. . ... : ... .. . ... : ... .. . ...
ROW 32 : ... .. . S00 ... : ... .. . S00 ... : ... .. . ... : ... .. . ... : ... .. . ...
ROW 33 : ... .. . ... ... : ... .. . ... ... : ... .. . ... : ... .. . ... : ... .. . ...
ROW 34 : G-3 04 . ... ... : D-3 04 . ... ... : ... .. . ... : ... .. . ... : ... .. . ...
ROW 35 : ... .. . ... ... : ... .. . ... ... : ... .. . ... : ... .. . ... : ... .. . ...
ROW 36 : ... .. . S00 ... : ... .. . S00 ... : ... .. . ... : ... .. . ... : ... .. . ...
ROW 37 : ... .. . ... ... : ... .. . ... ... : ... .. . ... : ... .. . ... : ... .. . ...
ROW 38 : G-3 04 . ... ... : D-3 04 . ... ... : ... .. . ... : ... .. . ... : ... .. . ...
ROW 39 : ... .. . ... ... : ... .. . ... ... : ... .. . ... : ... .. . ... : ... .. . ...
ROW 3A : ... .. . 462 ... : ... .. . 462 ... : ... .. . ... : ... .. . ... : ... .. . ...
ROW 3B : ... .. . ... ... : ... .. . ... ... : ... .. . ... : ... .. . ... : ... .. . ...
ROW 3C : ... .. . ... ... : ... .. . ... ... : ... .. . ... : ... .. . ... : ... .. . ...
ROW 3D : ... .. . ... ... : ... .. . ... ... : ... .. . ... : ... .. . ... : ... .. . ...
ROW 3E : ... .. . ... ... : ... .. . ... ... : ... .. . ... : ... .. . ... : ... .. . ...
ROW 3F : ... .. . S00 400 : ... .. . S00 400 : ... .. . ... : ... .. . ... : ... .. . ...

PATTERN 08
ROW 00 : ... .. . ... ... : ... .. . ... ... : ... .. . ... : ... .. . ... : ... .. . ...
ROW 01 : ... .. . ... ... : ... .. . ... ... : ... .. . ... : ... .. . ... : ... .. . ...
ROW 02 : C-4 04 F P82 V02 : G-3 04 A ... V02 : ... .. . ... : ... .. . ... : ... .. . ...
ROW 03 : ... .. . ... ... : ... .. . ... ... : ... .. . ... : ... .. . ... : ... .. . ...
ROW 04 : ... .. . ... ... : ... .. . ... ... : ... .. . ... : ... .. . ... : ... .. . ...
ROW 05 : ... .. . ... ... : ... .. . ... ... : ... .. . ... : ... .. . ... : ... .. . ...
ROW 06 : D#4 04 . ... ... : C-4 04 . ... ... : ... .. . ... : ... .. . ... : ... .. . ...
ROW 07 : ... .. . ... ... : ... .. . ... ... : ... .. . ... : ... .. . ... : ... .. . ...
ROW 08 : G-4 04 . ... ... : D#4 04 . ... ... : ... .. . ... : ... .. . ... : ... .. . ...
ROW 09 : ... .. . ... ... : ... .. . ... ... : ... .. . ... : ... .. . ... : ... .. . ...
ROW 0A : ... .. . ... ... : ... .. . ... ... : ... .. . ... : ... .. . ... : ... .. . ...
ROW 0B : ... .. . ... ... : ... .. . ... ... : ... .. . ... : ... .. . ... : ... .. . ...
ROW 0C : F-4 04 . 400 ... : D-4 04 . 400 ... : ... .. . ... : ... .. . ... : ... .. . ...
ROW 0D : ... .. . ... ... : ... .. . ... ... : ... .. . ... : ... .. . ... : ... .. . ...
ROW 0E : D#4 04 . ... ... : C-4 04 . ... ... : ... .. . ... : ... .. . ... : ... .. . ...
ROW 0F : ... .. . ... ... : ... .. . ... ... : ... .. . ... : ... .. . ... : ... .. . ...
ROW 10 : D-4 04 . ... ... : A#3 04 . ... ... : ... .. . ... : ... .. . ... : ... .. . ...
ROW 11 : ... .. . ... ... : ... .. . ... ... : ... .. . ... : ... .. . ... : ... .. . ...
ROW 12 : ... .. . ... ... : ... .. . ... ... : ... .. . ... : ... .. . ... : ... .. . ...
ROW 13 : ... .. . ... ... : ... .. . ... ... : ... .. . ... : ... .. . ... : ... .. . ...
ROW 14 : ... .. . 464 ... : ... .. . 464 ... : ... .. . ... : ... .. . ... : ... .. . ...
ROW 15 : ... .. . ... ... : ... .. . ... ... : ... .. . ... : ... .. . ... : ... .. . ...
ROW 16 : A#3 04 . 400 ... : G-3 04 . 400 ... : ... .. . ... : ... .. . ... : ... .. . ...
ROW 17 : ... .. . ... ... : ... .. . ... ... : ... .. . ... : ... .. . ... : ... .. . ...
ROW 18 : D-4 04 . ... ... : A#3 04 . ... ... : ... .. . ... : ... .. . ... : ... .. . ...
ROW 19 : ... .. . ... ... : ... .. . ... ... : ... .. . ... : ... .. . ... : ... .. . ...
ROW 1A : ... .. . ... ... : ... .. . ... ... : ... .. . ... : ... .. . ... : ... .. . ...
ROW 1B : ... .. . ... ... : ... .. . ... ... : ... .. . ... : ... .. . ... : ... .. . ...
ROW 1C : C-4 04 . ... ... : A-3 04 . ... ... : ... .. . ... : ... .. . ... : ... .. . ...
ROW 1D : ... .. . ... ... : ... .. . ... ... : ... .. . ... : ... .. . ... : ... .. . ...
ROW 1E : A#3 04 . ... ... : G-3 04 . ... ... : ... .. . ... : ... .. . ... : ... .. . ...
ROW 1F : ... .. . ... ... : ... .. . ... ... : ... .. . ... : ... .. . ... : ... .. . ...
ROW 20 : A-3 04 . ... ... : F#3 04 . ... ... : ... .. . ... : ... .. . ... : ... .. . ...
ROW 21 : ... .. . ... ... : ... .. . ... ... : ... .. . ... : ... .. . ... : ... .. . ...
ROW 22 : ... .. . S00 ... : ... .. . S00 ... : ... .. . ... : ... .. . ... : ... .. . ...
ROW 23 : ... .. . ... ... : ... .. . ... ... : ... .. . ... : ... .. . ... : ... .. . ...
ROW 24 : A-3 04 . ... ... : F#3 04 . ... ... : ... .. . ... : ... .. . ... : ... .. . ...
ROW 25 : ... .. . ... ... : ... .. . ... ... : ... .. . ... : ... .. . ... : ... .. . ...
ROW 26 : A#3 04 . ... ... : G-3 04 . ... ... : ... .. . ... : ... .. . ... : ... .. . ...
ROW 27 : ... .. . ... ... : ... .. . ... ... : ... .. . ... : ... .. . ... : ... .. . ...
ROW 28 : C-4 04 . ... ... : A-3 04 . ... ... : ... .. . ... : ... .. . ... : ... .. . ...
ROW 29 : ... .. . ... ... : ... .. . ... ... : ... .. . ... : ... .. . ... : ... .. . ...
ROW 2A : ... .. . ... ... : ... .. . ... ... : ... .. . ... : ... .. . ... : ... .. . ...
ROW 2B : ... .. . ... ... : ... .. . ... ... : ... .. . ... : ... .. . ... : ... .. . ...
ROW 2C : D-4 04 . ... ... : A#3 04 . ... ... : ... .. . ... : ... .. . ... : ... .. . ...
ROW 2D : ... .. . ... ... : ... .. . ... ... : ... .. . ... : ... .. . ... : ... .. . ...
ROW 2E : ... .. . ... ... : ... .. . ... ... : ... .. . ... : ... .. . ... : ... .. . ...
ROW 2F : ... .. . ... ... : ... .. . ... ... : ... .. . ... : ... .. . ... : ... .. . ...
ROW 30 : A#3 04 . ... ... : G-3 04 . ... ... : ... .. . ... : ... .. . ... : ... .. . ...
ROW 31 : ... .. . ... ... : ... .. . ... ... : ... .. . ... : ... .. . ... : ... .. . ...
ROW 32 : ... .. . S00 ... : ... .. . S00 ... : ... .. . ... : ... .. . ... : ... .. . ...
ROW 33 : ... .. . ... ... : ... .. . ... ... : ... .. . ... : ... .. . ... : ... .. . ...
ROW 34 : G-3 04 . ... ... : D-3 04 . ... ... : ... .. . ... : ... .. . ... : ... .. . ...
ROW 35 : ... .. . ... ... : ... .. . ... ... : ... .. . ... : ... .. . ... : ... .. . ...
ROW 36 : ... .. . S00 ... : ... .. . S00 ... : ... .. . ... : ... .. . ... : ... .. . ...
ROW 37 : ... .. . ... ... : ... .. . ... ... : ... .. . ... : ... .. . ... : ... .. . ...
ROW 38 : G-3 04 . ... ... : D-3 04 . ... ... : ... .. . ... : ... .. . ... : ... .. . ...
ROW 39 : ... .. . ... ... : ... .. . ... ... : ... .. . ... : ... .. . ... : ... .. . ...
ROW 3A : ... .. . 462 ... : ... .. . 462 ... : ... .. . ... : ... .. . ... : ... .. . ...
ROW 3B : ... .. . ... ... : ... .. . ... ... : ... .. . ... : ... .. . ... : ... .. . ...
ROW 3C : ... .. . ... ... : ... .. . ... ... : ... .. . ... : ... .. . ... : ... .. . ...
ROW 3D : ... .. . ... ... : ... .. . ... ... : ... .. . ... : ... .. . ... : ... .. . ...
ROW 3E : ... .. . ... ... : ... .. . ... ... : ... .. . ... : ... .. . ... : ... .. . ...
ROW 3F : ... .. . S00 400 : ... .. . S00 400 : ... .. . ... : ... .. . ... : ... .. . ...

PATTERN 09
ROW 00 : ... .. . 481 ... : ... .. . ... ... : ... .. . ... : ... .. . ... : ... .. . ...
ROW 01 : ... .. . ... ... : ... .. . ... ... : ... .. . ... : ... .. . ... : ... .. . ...
ROW 02 : C-5 04 F P82 V02 : G-4 04 A 481 V02 : ... .. . ... : ... .. . ... : ... .. . ...
ROW 03 : ... .. . ... ... : ... .. . ... ... : ... .. . ... : ... .. . ... : ... .. . ...
ROW 04 : ... .. . ... ... : ... .. . ... ... : ... .. . ... : ... .. . ... : ... .. . ...
ROW 05 : ... .. . ... ... : ... .. . ... ... : ... .. . ... : ... .. . ... : ... .. . ...
ROW 06 : D#5 04 . ... ... : C-5 04 . ... ... : ... .. . ... : ... .. . ... : ... .. . ...
ROW 07 : ... .. . ... ... : ... .. . ... ... : ... .. . ... : ... .. . ... : ... .. . ...
ROW 08 : G-5 04 . ... ... : D#5 04 . ... ... : ... .. . ... : ... .. . ... : ... .. . ...
ROW 09 : ... .. . ... ... : ... .. . ... ... : ... .. . ... : ... .. . ... : ... .. . ...
ROW 0A : ... .. . ... ... : ... .. . ... ... : ... .. . ... : ... .. . ... : ... .. . ...
ROW 0B : ... .. . ... ... : ... .. . ... ... : ... .. . ... : ... .. . ... : ... .. . ...
ROW 0C : A-5 04 . ... ... : D-5 04 7 481 ... : ... .. . ... : ... .. . ... : ... .. . ...
ROW 0D : ... .. . ... ... : ... .. . ... ... : ... .. . ... : ... .. . ... : ... .. . ...
ROW 0E : G-5 04 . ... ... : C-5 04 . ... ... : ... .. . ... : ... .. . ... : ... .. . ...
ROW 0F : ... .. . S03 ... : ... .. . ... ... : ... .. . ... : ... .. . ... : ... .. . ...
ROW 10 : G-5 04 . ... ... : A#4 04 . ... ... : ... .. . ... : ... .. . ... : ... .. . ...
ROW 11 : ... .. . ... ... : ... .. . ... ... : ... .. . ... : ... .. . ... : ... .. . ...
ROW 12 : ... .. . ... ... : ... .. . ... ... : ... .. . ... : ... .. . ... : ... .. . ...
ROW 13 : ... .. . ... ... : ... .. . ... ... : ... .. . ... : ... .. . ... : ... .. . ...
ROW 14 : ... .. . 464 ... : ... .. . 464 ... : ... .. . ... : ... .. . ... : ... .. . ...
ROW 15 : ... .. . ... ... : ... .. . ... ... : ... .. . ... : ... .. . ... : ... .. . ...
ROW 16 : D#5 04 . 481 ... : G-4 04 . 481 ... : ... .. . ... : ... .. . ... : ... .. . ...
ROW 17 : ... .. . ... ... : ... .. . ... ... : ... .. . ... : ... .. . ... : ... .. . ...
ROW 18 : D-5 04 . ... ... : A#4 04 . ... ... : ... .. . ... : ... .. . ... : ... .. . ...
ROW 19 : ... .. . ... ... : ... .. . ... ... : ... .. . ... : ... .. . ... : ... .. . ...
ROW 1A : ... .. . ... ... : ... .. . ... ... : ... .. . ... : ... .. . ... : ... .. . ...
ROW 1B : ... .. . S03 ... : ... .. . ... ... : ... .. . ... : ... .. . ... : ... .. . ...
ROW 1C : C-5 04 . ... ... : A-4 04 A ... ... : ... .. . ... : ... .. . ... : ... .. . ...
ROW 1D : ... .. . ... ... : ... .. . ... ... : ... .. . ... : ... .. . ... : ... .. . ...
ROW 1E : A#4 04 . ... ... : G-4 04 . ... ... : ... .. . ... : ... .. . ... : ... .. . ...
ROW 1F : ... .. . ... ... : ... .. . ... ... : ... .. . ... : ... .. . ... : ... .. . ...
ROW 20 : A-4 04 . ... ... : F#4 04 . ... ... : ... .. . ... : ... .. . ... : ... .. . ...
ROW 21 : ... .. . ... ... : ... .. . ... ... : ... .. . ... : ... .. . ... : ... .. . ...
ROW 22 : ... .. . S00 ... : ... .. . S00 ... : ... .. . ... : ... .. . ... : ... .. . ...
ROW 23 : ... .. . ... ... : ... .. . ... ... : ... .. . ... : ... .. . ... : ... .. . ...
ROW 24 : A-4 04 . ... ... : F#4 04 . ... ... : ... .. . ... : ... .. . ... : ... .. . ...
ROW 25 : ... .. . ... ... : ... .. . ... ... : ... .. . ... : ... .. . ... : ... .. . ...
ROW 26 : A#4 04 . ... ... : G-4 04 . ... ... : ... .. . ... : ... .. . ... : ... .. . ...
ROW 27 : ... .. . ... ... : ... .. . ... ... : ... .. . ... : ... .. . ... : ... .. . ...
ROW 28 : C-5 04 . ... ... : A-4 04 . ... ... : ... .. . ... : ... .. . ... : ... .. . ...
ROW 29 : ... .. . ... ... : ... .. . ... ... : ... .. . ... : ... .. . ... : ... .. . ...
ROW 2A : ... .. . ... ... : ... .. . ... ... : ... .. . ... : ... .. . ... : ... .. . ...
ROW 2B : ... .. . ... ... : ... .. . ... ... : ... .. . ... : ... .. . ... : ... .. . ...
ROW 2C : D-5 04 . ... ... : A#4 04 . ... ... : ... .. . ... : ... .. . ... : ... .. . ...
ROW 2D : ... .. . ... ... : ... .. . ... ... : ... .. . ... : ... .. . ... : ... .. . ...
ROW 2E : ... .. . ... ... : ... .. . ... ... : ... .. . ... : ... .. . ... : ... .. . ...
ROW 2F : ... .. . ... ... : ... .. . ... ... : ... .. . ... : ... .. . ... : ... .. . ...
ROW 30 : A#4 04 . ... ... : G-4 04 . ... ... : ... .. . ... : ... .. . ... : ... .. . ...
ROW 31 : ... .. . ... ... : ... .. . ... ... : ... .. . ... : ... .. . ... : ... .. . ...
ROW 32 : ... .. . S00 ... : ... .. . S00 ... : ... .. . ... : ... .. . ... : ... .. . ...
ROW 33 : ... .. . ... ... : ... .. . ... ... : ... .. . ... : ... .. . ... : ... .. . ...
ROW 34 : G-4 04 . ... ... : D-4 04 . ... ... : ... .. . ... : ... .. . ... : ... .. . ...
ROW 35 : ... .. . ... ... : ... .. . ... ... : ... .. . ... : ... .. . ... : ... .. . ...
ROW 36 : ... .. . S00 ... : ... .. . S00 ... : ... .. . ... : ... .. . ... : ... .. . ...
ROW 37 : ... .. . ... ... : ... .. . ... ... : ... .. . ... : ... .. . ... : ... .. . ...
ROW 38 : G-4 04 . ... ... : D-4 04 . ... ... : ... .. . ... : ... .. . ... : ... .. . ...
ROW 39 : ... .. . ... ... : ... .. . ... ... : ... .. . ... : ... .. . ... : ... .. . ...
ROW 3A : ... .. . 462 ... : ... .. . 462 ... : ... .. . ... : ... .. . ... : ... .. . ...
ROW 3B : ... .. . ... ... : ... .. . ... ... : ... .. . ... : ... .. . ... : ... .. . ...
ROW 3C : ... .. . ... ... : ... .. . ... ... : ... .. . ... : ... .. . ... : ... .. . ...
ROW 3D : ... .. . ... ... : ... .. . ... ... : ... .. . ... : ... .. . ... : ... .. . ...
ROW 3E : ... .. . ... ... : ... .. . ... ... : ... .. . ... : ... .. . ... : ... .. . ...
ROW 3F : ... .. . S00 400 : ... .. . S00 400 : ... .. . ... : ... .. . ... : ... .. . ...

PATTERN 0A
ROW 00 : D-4 04 F P82 V01 : A-3 04 A 400 V01 : ... .. . ... : ... .. . ... : ... .. . ...
ROW 01 : ... .. . ... ... : ... .. . ... ... : ... .. . ... : ... .. . ... : ... .. . ...
ROW 02 : ... .. . ... ... : ... .. . ... ... : ... .. . ... : ... .. . ... : ... .. . ...
ROW 03 : ... .. . ... ... : ... .. . ... ... : ... .. . ... : ... .. . ... : ... .. . ...
ROW 04 : A-3 04 . ... ... : F#3 04 . ... ... : ... .. . ... : ... .. . ... : ... .. . ...
ROW 05 : ... .. . ... ... : ... .. . ... ... : ... .. . ... : ... .. . ... : ... .. . ...
ROW 06 : A#3 04 . ... ... : G-3 04 . ... ... : ... .. . ... : ... .. . ... : ... .. . ...
ROW 07 : ... .. . ... ... : ... .. . ... ... : ... .. . ... : ... .. . ... : ... .. . ...
ROW 08 : C-4 04 . ... ... : A-3 04 . ... ... : ... .. . ... : ... .. . ... : ... .. . ...
ROW 09 : ... .. . ... ... : ... .. . ... ... : ... .. . ... : ... .. . ... : ... .. . ...
ROW 0A : D-4 04 . ... ... : ... .. . ... ... : ... .. . ... : ... .. . ... : ... .. . ...
ROW 0B : C-4 04 . ... ... : ... .. . ... ... : ... .. . ... : ... .. . ... : ... .. . ...
ROW 0C : A#3 04 . ... ... : G-3 04 . ... ... : ... .. . ... : ... .. . ... : ... .. . ...
ROW 0D : ... .. . ... ... : ... .. . ... ... : ... .. . ... : ... .. . ... : ... .. . ...
ROW 0E : A-3 04 . ... ... : F#3 04 . ... ... : ... .. . ... : ... .. . ... : ... .. . ...
ROW 0F : ... .. . ... ... : ... .. . ... ... : ... .. . ... : ... .. . ... : ... .. . ...
ROW 10 : G-3 04 . ... ... : D-3 04 . ... ... : ... .. . ... : ... .. . ... : ... .. . ...
ROW 11 : ... .. . ... ... : ... .. . ... ... : ... .. . ... : ... .. . ... : ... .. . ...
ROW 12 : ... .. . S00 ... : ... .. . S00 ... : ... .. . ... : ... .. . ... : ... .. . ...
ROW 13 : ... .. . ... ... : ... .. . ... ... : ... .. . ... : ... .. . ... : ... .. . ...
ROW 14 : G-3 04 . ... ... : D-3 04 . ... ... : ... .. . ... : ... .. . ... : ... .. . ...
ROW 15 : ... .. . ... ... : ... .. . ... ... : ... .. . ... : ... .. . ... : ... .. . ...
ROW 16 : A#3 04 . ... ... : G-3 04 . ... ... : ... .. . ... : ... .. . ... : ... .. . ...
ROW 17 : ... .. . ... ... : ... .. . ... ... : ... .. . ... : ... .. . ... : ... .. . ...
ROW 18 : D-4 04 . ... ... : A#3 04 . ... ... : ... .. . ... : ... .. . ... : ... .. . ...
ROW 19 : ... .. . ... ... : ... .. . ... ... : ... .. . ... : ... .. . ... : ... .. . ...
ROW 1A : ... .. . 464 ... : ... .. . 464 ... : ... .. . ... : ... .. . ... : ... .. . ...
ROW 1B : ... .. . ... ... : ... .. . ... ... : ... .. . ... : ... .. . ... : ... .. . ...
ROW 1C : C-4 04 . 400 ... : A-3 04 . 400 ... : ... .. . ... : ... .. . ... : ... .. . ...
ROW 1D : ... .. . ... ... : ... .. . ... ... : ... .. . ... : ... .. . ... : ... .. . ...
ROW 1E : A#3 04 . ... ... : G-3 04 . ... ... : ... .. . ... : ... .. . ... : ... .. . ...
ROW 1F : ... .. . ... ... : ... .. . ... ... : ... .. . ... : ... .. . ... : ... .. . ...
ROW 20 : A-3 04 . ... ... : F#3 04 . ... ... : ... .. . ... : ... .. . ... : ... .. . ...
ROW 21 : ... .. . ... ... : ... .. . ... ... : ... .. . ... : ... .. . ... : ... .. . ...
ROW 22 : ... .. . ... ... : ... .. . ... ... : ... .. . ... : ... .. . ... : ... .. . ...
ROW 23 : ... .. . ... ... : ... .. . ... ... : ... .. . ... : ... .. . ... : ... .. . ...
ROW 24 : ... .. . ... ... : ... .. . ... ... : ... .. . ... : ... .. . ... : ... .. . ...
ROW 25 : ... .. . ... ... : ... .. . ... ... : ... .. . ... : ... .. . ... : ... .. . ...
ROW 26 : A#3 04 . ... ... : G-3 04 . ... ... : ... .. . ... : ... .. . ... : ... .. . ...
ROW 27 : ... .. . ... ... : ... .. . ... ... : ... .. . ... : ... .. . ... : ... .. . ...
ROW 28 : C-4 04 . ... ... : A-3 04 . ... ... : ... .. . ... : ... .. . ... : ... .. . ...
ROW 29 : ... .. . ... ... : ... .. . ... ... : ... .. . ... : ... .. . ... : ... .. . ...
ROW 2A : ... .. . ... ... : ... .. . ... ... : ... .. . ... : ... .. . ... : ... .. . ...
ROW 2B : ... .. . ... ... : ... .. . ... ... : ... .. . ... : ... .. . ... : ... .. . ...
ROW 2C : D-4 04 . ... ... : A#3 04 . ... ... : ... .. . ... : ... .. . ... : ... .. . ...
ROW 2D : ... .. . ... ... : ... .. . ... ... : ... .. . ... : ... .. . ... : ... .. . ...
ROW 2E : ... .. . ... ... : ... .. . ... ... : ... .. . ... : ... .. . ... : ... .. . ...
ROW 2F : ... .. . ... ... : ... .. . ... ... : ... .. . ... : ... .. . ... : ... .. . ...
ROW 30 : A#3 04 . ... ... : G-3 04 . ... ... : ... .. . ... : ... .. . ... : ... .. . ...
ROW 31 : ... .. . ... ... : ... .. . ... ... : ... .. . ... : ... .. . ... : ... .. . ...
ROW 32 : ... .. . S00 ... : ... .. . S00 ... : ... .. . ... : ... .. . ... : ... .. . ...
ROW 33 : ... .. . ... ... : ... .. . ... ... : ... .. . ... : ... .. . ... : ... .. . ...
ROW 34 : G-3 04 . ... ... : D-3 04 . ... ... : ... .. . ... : ... .. . ... : ... .. . ...
ROW 35 : ... .. . ... ... : ... .. . ... ... : ... .. . ... : ... .. . ... : ... .. . ...
ROW 36 : ... .. . S00 ... : ... .. . S00 ... : ... .. . ... : ... .. . ... : ... .. . ...
ROW 37 : ... .. . ... ... : ... .. . ... ... : ... .. . ... : ... .. . ... : ... .. . ...
ROW 38 : G-3 04 . ... ... : D-3 04 . ... ... : ... .. . ... : ... .. . ... : ... .. . ...
ROW 39 : ... .. . ... ... : ... .. . ... ... : ... .. . ... : ... .. . ... : ... .. . ...
ROW 3A : ... .. . 462 ... : ... .. . 462 ... : ... .. . ... : ... .. . ... : ... .. . ...
ROW 3B : ... .. . ... ... : ... .. . ... ... : ... .. . ... : ... .. . ... : ... .. . ...
ROW 3C : ... .. . ... ... : ... .. . ... ... : ... .. . ... : ... .. . ... : ... .. . ...
ROW 3D : ... .. . ... ... : ... .. . ... ... : ... .. . ... : ... .. . ... : ... .. . ...
ROW 3E : ... .. . ... ... : ... .. . ... ... : ... .. . ... : ... .. . ... : ... .. . ...
ROW 3F : ... .. . S00 400 : ... .. . S00 400 : ... .. . ... : ... .. . ... : ... .. . ...

PATTERN 0B
ROW 00 : ... .. . ... ... : ... .. . ... ... : ... .. . ... : ... .. . ... : ... .. . ...
ROW 01 : ... .. . ... ... : ... .. . ... ... : ... .. . ... : ... .. . ... : ... .. . ...
ROW 02 : C-4 04 F P82 V01 : G-3 04 A ... V01 : ... .. . ... : ... .. . ... : ... .. . ...
ROW 03 : ... .. . ... ... : ... .. . ... ... : ... .. . ... : ... .. . ... : ... .. . ...
ROW 04 : ... .. . ... ... : ... .. . ... ... : ... .. . ... : ... .. . ... : ... .. . ...
ROW 05 : ... .. . ... ... : ... .. . ... ... : ... .. . ... : ... .. . ... : ... .. . ...
ROW 06 : D#4 04 . ... ... : C-4 04 . ... ... : ... .. . ... : ... .. . ... : ... .. . ...
ROW 07 : ... .. . ... ... : ... .. . ... ... : ... .. . ... : ... .. . ... : ... .. . ...
ROW 08 : G-4 04 . ... ... : D#4 04 . ... ... : ... .. . ... : ... .. . ... : ... .. . ...
ROW 09 : ... .. . ... ... : ... .. . ... ... : ... .. . ... : ... .. . ... : ... .. . ...
ROW 0A : ... .. . ... ... : ... .. . ... ... : ... .. . ... : ... .. . ... : ... .. . ...
ROW 0B : ... .. . ... ... : ... .. . ... ... : ... .. . ... : ... .. . ... : ... .. . ...
ROW 0C : F-4 04 . 400 ... : D-4 04 . 400 ... : ... .. . ... : ... .. . ... : ... .. . ...
ROW 0D : ... .. . ... ... : ... .. . ... ... : ... .. . ... : ... .. . ... : ... .. . ...
ROW 0E : D#4 04 . ... ... : C-4 04 . ... ... : ... .. . ... : ... .. . ... : ... .. . ...
ROW 0F : ... .. . ... ... : ... .. . ... ... : ... .. . ... : ... .. . ... : ... .. . ...
ROW 10 : D-4 04 . ... ... : A#3 04 . ... ... : ... .. . ... : ... .. . ... : ... .. . ...
ROW 11 : ... .. . ... ... : ... .. . ... ... : ... .. . ... : ... .. . ... : ... .. . ...
ROW 12 : ... .. . ... ... : ... .. . ... ... : ... .. . ... : ... .. . ... : ... .. . ...
ROW 13 : ... .. . ... ... : ... .. . ... ... : ... .. . ... : ... .. . ... : ... .. . ...
ROW 14 : ... .. . 464 ... : ... .. . 464 ... : ... .. . ... : ... .. . ... : ... .. . ...
ROW 15 : ... .. . ... ... : ... .. . ... ... : ... .. . ... : ... .. . ... : ... .. . ...
ROW 16 : A#3 04 . 400 ... : G-3 04 . 400 ... : ... .. . ... : ... .. . ... : ... .. . ...
ROW 17 : ... .. . ... ... : ... .. . ... ... : ... .. . ... : ... .. . ... : ... .. . ...
ROW 18 : D-4 04 . ... ... : A#3 04 . ... ... : ... .. . ... : ... .. . ... : ... .. . ...
ROW 19 : ... .. . ... ... : ... .. . ... ... : ... .. . ... : ... .. . ... : ... .. . ...
ROW 1A : ... .. . ... ... : ... .. . ... ... : ... .. . ... : ... .. . ... : ... .. . ...
ROW 1B : ... .. . ... ... : ... .. . ... ... : ... .. . ... : ... .. . ... : ... .. . ...
ROW 1C : C-4 04 . ... ... : A-3 04 . ... ... : ... .. . ... : ... .. . ... : ... .. . ...
ROW 1D : ... .. . ... ... : ... .. . ... ... : ... .. . ... : ... .. . ... : ... .. . ...
ROW 1E : A#3 04 . ... ... : G-3 04 . ... ... : ... .. . ... : ... .. . ... : ... .. . ...
ROW 1F : ... .. . ... ... : ... .. . ... ... : ... .. . ... : ... .. . ... : ... .. . ...
ROW 20 : A-3 04 . ... ... : F#3 04 . ... ... : ... .. . ... : ... .. . ... : ... .. . ...
ROW 21 : ... .. . ... ... : ... .. . ... ... : ... .. . ... : ... .. . ... : ... .. . ...
ROW 22 : ... .. . S00 ... : ... .. . S00 ... : ... .. . ... : ... .. . ... : ... .. . ...
ROW 23 : ... .. . ... ... : ... .. . ... ... : ... .. . ... : ... .. . ... : ... .. . ...
ROW 24 : A-3 04 . ... ... : F#3 04 . ... ... : ... .. . ... : ... .. . ... : ... .. . ...
ROW 25 : ... .. . ... ... : ... .. . ... ... : ... .. . ... : ... .. . ... : ... .. . ...
ROW 26 : A#3 04 . ... ... : G-3 04 . ... ... : ... .. . ... : ... .. . ... : ... .. . ...
ROW 27 : ... .. . ... ... : ... .. . ... ... : ... .. . ... : ... .. . ... : ... .. . ...
ROW 28 : C-4 04 . ... ... : A-3 04 . ... ... : ... .. . ... : ... .. . ... : ... .. . ...
ROW 29 : ... .. . ... ... : ... .. . ... ... : ... .. . ... : ... .. . ... : ... .. . ...
ROW 2A : ... .. . ... ... : ... .. . ... ... : ... .. . ... : ... .. . ... : ... .. . ...
ROW 2B : ... .. . ... ... : ... .. . ... ... : ... .. . ... : ... .. . ... : ... .. . ...
ROW 2C : D-4 04 . ... ... : A#3 04 . ... ... : ... .. . ... : ... .. . ... : ... .. . ...
ROW 2D : ... .. . ... ... : ... .. . ... ... : ... .. . ... : ... .. . ... : ... .. . ...
ROW 2E : ... .. . ... ... : ... .. . ... ... : ... .. . ... : ... .. . ... : ... .. . ...
ROW 2F : ... .. . ... ... : ... .. . ... ... : ... .. . ... : ... .. . ... : ... .. . ...
ROW 30 : A#3 04 . ... ... : G-3 04 . ... ... : ... .. . ... : ... .. . ... : ... .. . ...
ROW 31 : ... .. . ... ... : ... .. . ... ... : ... .. . ... : ... .. . ... : ... .. . ...
ROW 32 : ... .. . S00 ... : ... .. . S00 ... : ... .. . ... : ... .. . ... : ... .. . ...
ROW 33 : ... .. . ... ... : ... .. . ... ... : ... .. . ... : ... .. . ... : ... .. . ...
ROW 34 : G-3 04 . ... ... : D-3 04 . ... ... : ... .. . ... : ... .. . ... : ... .. . ...
ROW 35 : ... .. . ... ... : ... .. . ... ... : ... .. . ... : ... .. . ... : ... .. . ...
ROW 36 : ... .. . S00 ... : ... .. . S00 ... : ... .. . ... : ... .. . ... : ... .. . ...
ROW 37 : ... .. . ... ... : ... .. . ... ... : ... .. . ... : ... .. . ... : ... .. . ...
ROW 38 : G-3 04 . ... ... : D-3 04 . ... ... : ... .. . ... : ... .. . ... : ... .. . ...
ROW 39 : ... .. . ... ... : ... .. . ... ... : ... .. . ... : ... .. . ... : ... .. . ...
ROW 3A : ... .. . 462 ... : ... .. . 462 ... : ... .. . ... : ... .. . ... : ... .. . ...
ROW 3B : ... .. . ... ... : ... .. . ... ... : ... .. . ... : ... .. . ... : ... .. . ...
ROW 3C : ... .. . ... ... : ... .. . ... ... : ... .. . ... : ... .. . ... : ... .. . ...
ROW 3D : ... .. . ... ... : ... .. . ... ... : ... .. . ... : ... .. . ... : ... .. . ...
ROW 3E : ... .. . ... ... : ... .. . ... ... : ... .. . ... : ... .. . ... : ... .. . ...
ROW 3F : ... .. . S00 400 : ... .. . S00 400 : ... .. . ... : ... .. . ... : ... .. . ...

PATTERN 0C
ROW 00 : D-4 04 F P82 V01 : A-3 04 A 400 V01 : ... .. . ... : ... .. . ... : ... .. . ...
ROW 01 : ... .. . ... ... : ... .. . ... ... : ... .. . ... : ... .. . ... : ... .. . ...
ROW 02 : ... .. . ... ... : ... .. . ... ... : ... .. . ... : ... .. . ... : ... .. . ...
ROW 03 : ... .. . ... ... : ... .. . ... ... : ... .. . ... : ... .. . ... : ... .. . ...
ROW 04 : A-3 04 . ... ... : F#3 04 . ... ... : ... .. . ... : ... .. . ... : ... .. . ...
ROW 05 : ... .. . ... ... : ... .. . ... ... : ... .. . ... : ... .. . ... : ... .. . ...
ROW 06 : A#3 04 . ... ... : G-3 04 . ... ... : ... .. . ... : ... .. . ... : ... .. . ...
ROW 07 : ... .. . ... ... : ... .. . ... ... : ... .. . ... : ... .. . ... : ... .. . ...
ROW 08 : C-4 04 . ... ... : A-3 04 . ... ... : ... .. . ... : ... .. . ... : ... .. . ...
ROW 09 : ... .. . ... ... : ... .. . ... ... : ... .. . ... : ... .. . ... : ... .. . ...
ROW 0A : D-4 04 . ... ... : ... .. . ... ... : ... .. . ... : ... .. . ... : ... .. . ...
ROW 0B : C-4 04 . ... ... : ... .. . ... ... : ... .. . ... : ... .. . ... : ... .. . ...
ROW 0C : A#3 04 . ... ... : G-3 04 . ... ... : ... .. . ... : ... .. . ... : ... .. . ...
ROW 0D : ... .. . ... ... : ... .. . ... ... : ... .. . ... : ... .. . ... : ... .. . ...
ROW 0E : A-3 04 . ... ... : F#3 04 . ... ... : ... .. . ... : ... .. . ... : ... .. . ...
ROW 0F : ... .. . ... ... : ... .. . ... ... : ... .. . ... : ... .. . ... : ... .. . ...
ROW 10 : G-3 04 . ... ... : D-3 04 . ... ... : ... .. . ... : ... .. . ... : ... .. . ...
ROW 11 : ... .. . ... ... : ... .. . ... ... : ... .. . ... : ... .. . ... : ... .. . ...
ROW 12 : D#3 04 . S05 ... : A#2 04 . S05 ... : ... .. . ... : ... .. . ... : ... .. . ...
ROW 13 : F-3 04 . S05 ... : C-3 04 . S05 ... : ... .. . ... : ... .. . ... : ... .. . ...
ROW 14 : G-3 04 . ... ... : D-3 04 . ... ... : ... .. . ... : ... .. . ... : ... .. . ...
ROW 15 : ... .. . ... ... : ... .. . ... ... : ... .. . ... : ... .. . ... : ... .. . ...
ROW 16 : A#3 04 . ... ... : G-3 04 . ... ... : ... .. . ... : ... .. . ... : ... .. . ...
ROW 17 : ... .. . ... ... : ... .. . ... ... : ... .. . ... : ... .. . ... : ... .. . ...
ROW 18 : D-4 04 . ... ... : A#3 04 . ... ... : ... .. . ... : ... .. . ... : ... .. . ...
ROW 19 : ... .. . ... ... : ... .. . ... ... : ... .. . ... : ... .. . ... : ... .. . ...
ROW 1A : ... .. . 464 ... : ... .. . 464 ... : ... .. . ... : ... .. . ... : ... .. . ...
ROW 1B : ... .. . ... ... : ... .. . ... ... : ... .. . ... : ... .. . ... : ... .. . ...
ROW 1C : C-4 04 . 400 ... : A-3 04 . 400 ... : ... .. . ... : ... .. . ... : ... .. . ...
ROW 1D : ... .. . ... ... : ... .. . ... ... : ... .. . ... : ... .. . ... : ... .. . ...
ROW 1E : A#3 04 . ... ... : G-3 04 . ... ... : ... .. . ... : ... .. . ... : ... .. . ...
ROW 1F : ... .. . ... ... : ... .. . ... ... : ... .. . ... : ... .. . ... : ... .. . ...
ROW 20 : A-3 04 . ... ... : F#3 04 . ... ... : ... .. . ... : ... .. . ... : ... .. . ...
ROW 21 : ... .. . ... ... : ... .. . ... ... : ... .. . ... : ... .. . ... : ... .. . ...
ROW 22 : F#3 04 . S05 ... : D-3 04 . S05 ... : ... .. . ... : ... .. . ... : ... .. . ...
ROW 23 : G-3 04 . S05 ... : E-3 04 . S05 ... : ... .. . ... : ... .. . ... : ... .. . ...
ROW 24 : A-3 04 . ... ... : F#3 04 . ... ... : ... .. . ... : ... .. . ... : ... .. . ...
ROW 25 : ... .. . ... ... : ... .. . ... ... : ... .. . ... : ... .. . ... : ... .. . ...
ROW 26 : A#3 04 . ... ... : G-3 04 . ... ... : ... .. . ... : ... .. . ... : ... .. . ...
ROW 27 : ... .. . ... ... : ... .. . ... ... : ... .. . ... : ... .. . ... : ... .. . ...
ROW 28 : C-4 04 . ... ... : A-3 04 . ... ... : ... .. . ... : ... .. . ... : ... .. . ...
ROW 29 : ... .. . ... ... : ... .. . ... ... : ... .. . ... : ... .. . ... : ... .. . ...
ROW 2A : ... .. . ... ... : ... .. . ... ... : ... .. . ... : ... .. . ... : ... .. . ...
ROW 2B : ... .. . ... ... : ... .. . ... ... : ... .. . ... : ... .. . ... : ... .. . ...
ROW 2C : D-4 04 . ... ... : A#3 04 . ... ... : ... .. . ... : ... .. . ... : ... .. . ...
ROW 2D : ... .. . ... ... : ... .. . ... ... : ... .. . ... : ... .. . ... : ... .. . ...
ROW 2E : ... .. . ... ... : ... .. . ... ... : ... .. . ... : ... .. . ... : ... .. . ...
ROW 2F : ... .. . ... ... : ... .. . ... ... : ... .. . ... : ... .. . ... : ... .. . ...
ROW 30 : A#3 04 . ... ... : G-3 04 . ... ... : ... .. . ... : ... .. . ... : ... .. . ...
ROW 31 : ... .. . ... ... : ... .. . ... ... : ... .. . ... : ... .. . ... : ... .. . ...
ROW 32 : C-4 04 . S05 ... : A-3 04 . S05 ... : ... .. . ... : ... .. . ... : ... .. . ...
ROW 33 : A#3 04 . S05 ... : G-3 04 . S05 ... : ... .. . ... : ... .. . ... : ... .. . ...
ROW 34 : G-3 04 . ... ... : D-3 04 . ... ... : ... .. . ... : ... .. . ... : ... .. . ...
ROW 35 : ... .. . ... ... : ... .. . ... ... : ... .. . ... : ... .. . ... : ... .. . ...
ROW 36 : ... .. . S00 ... : ... .. . S00 ... : ... .. . ... : ... .. . ... : ... .. . ...
ROW 37 : ... .. . ... ... : ... .. . ... ... : ... .. . ... : ... .. . ... : ... .. . ...
ROW 38 : G-3 04 . ... ... : D-3 04 . ... ... : ... .. . ... : ... .. . ... : ... .. . ...
ROW 39 : ... .. . ... ... : ... .. . ... ... : ... .. . ... : ... .. . ... : ... .. . ...
ROW 3A : ... .. . 462 ... : ... .. . 462 ... : ... .. . ... : ... .. . ... : ... .. . ...
ROW 3B : ... .. . ... ... : ... .. . ... ... : ... .. . ... : ... .. . ... : ... .. . ...
ROW 3C : ... .. . ... ... : ... .. . ... ... : ... .. . ... : ... .. . ... : ... .. . ...
ROW 3D : ... .. . ... ... : ... .. . ... ... : ... .. . ... : ... .. . ... : ... .. . ...
ROW 3E : ... .. . ... ... : ... .. . ... ... : ... .. . ... : ... .. . ... : ... .. . ...
ROW 3F : ... .. . S00 400 : ... .. . S00 400 : ... .. . ... : ... .. . ... : ... .. . ...

PATTERN 0D
ROW 00 : D#4 04 F P82 V01 : A#3 04 A 400 V01 : ... .. . ... : ... .. . ... : ... .. . ...
ROW 01 : ... .. . ... ... : ... .. . ... ... : ... .. . ... : ... .. . ... : ... .. . ...
ROW 02 : C-4 04 . S05 ... : G-3 04 . S05 ... : ... .. . ... : ... .. . ... : ... .. . ...
ROW 03 : D-4 04 . S05 ... : A-3 04 . S05 ... : ... .. . ... : ... .. . ... : ... .. . ...
ROW 04 : D#4 04 . ... ... : A#3 04 . ... ... : ... .. . ... : ... .. . ... : ... .. . ...
ROW 05 : ... .. . ... ... : ... .. . ... ... : ... .. . ... : ... .. . ... : ... .. . ...
ROW 06 : F-4 04 . ... ... : C-4 04 . ... ... : ... .. . ... : ... .. . ... : ... .. . ...
ROW 07 : ... .. . ... ... : ... .. . ... ... : ... .. . ... : ... .. . ... : ... .. . ...
ROW 08 : G-4 04 . ... ... : D#4 04 . ... ... : ... .. . ... : ... .. . ... : ... .. . ...
ROW 09 : ... .. . ... ... : ... .. . ... ... : ... .. . ... : ... .. . ... : ... .. . ...
ROW 0A : ... .. . ... ... : ... .. . ... ... : ... .. . ... : ... .. . ... : ... .. . ...
ROW 0B : ... .. . ... ... : ... .. . ... ... : ... .. . ... : ... .. . ... : ... .. . ...
ROW 0C : A-4 04 . 481 ... : D-4 04 7 481 ... : ... .. . ... : ... .. . ... : ... .. . ...
ROW 0D : ... .. . ... ... : ... .. . ... ... : ... .. . ... : ... .. . ... : ... .. . ...
ROW 0E : G-4 04 . ... ... : C-4 04 . ... ... : ... .. . ... : ... .. . ... : ... .. . ...
ROW 0F : ... .. . S03 ... : ... .. . ... ... : ... .. . ... : ... .. . ... : ... .. . ...
ROW 10 : G-4 04 . 400 ... : A#3 04 . ... ... : ... .. . ... : ... .. . ... : ... .. . ...
ROW 11 : ... .. . ... ... : ... .. . ... ... : ... .. . ... : ... .. . ... : ... .. . ...
ROW 12 : ... .. . ... ... : ... .. . ... ... : ... .. . ... : ... .. . ... : ... .. . ...
ROW 13 : ... .. . ... ... : ... .. . ... ... : ... .. . ... : ... .. . ... : ... .. . ...
ROW 14 : ... .. . 464 ... : ... .. . 464 ... : ... .. . ... : ... .. . ... : ... .. . ...
ROW 15 : ... .. . ... ... : ... .. . ... ... : ... .. . ... : ... .. . ... : ... .. . ...
ROW 16 : D#4 04 . 400 ... : G-3 04 . 400 ... : ... .. . ... : ... .. . ... : ... .. . ...
ROW 17 : ... .. . ... ... : ... .. . ... ... : ... .. . ... : ... .. . ... : ... .. . ...
ROW 18 : D-4 04 . ... ... : A#3 04 . ... ... : ... .. . ... : ... .. . ... : ... .. . ...
ROW 19 : ... .. . ... ... : ... .. . ... ... : ... .. . ... : ... .. . ... : ... .. . ...
ROW 1A : ... .. . ... ... : ... .. . ... ... : ... .. . ... : ... .. . ... : ... .. . ...
ROW 1B : ... .. . S03 ... : ... .. . ... ... : ... .. . ... : ... .. . ... : ... .. . ...
ROW 1C : C-4 04 . ... ... : A-3 04 A ... ... : ... .. . ... : ... .. . ... : ... .. . ...
ROW 1D : ... .. . ... ... : ... .. . ... ... : ... .. . ... : ... .. . ... : ... .. . ...
ROW 1E : A#3 04 . ... ... : G-3 04 . ... ... : ... .. . ... : ... .. . ... : ... .. . ...
ROW 1F : ... .. . ... ... : ... .. . ... ... : ... .. . ... : ... .. . ... : ... .. . ...
ROW 20 : A-3 04 . ... ... : F#3 04 . ... ... : ... .. . ... : ... .. . ... : ... .. . ...
ROW 21 : ... .. . ... ... : ... .. . ... ... : ... .. . ... : ... .. . ... : ... .. . ...
ROW 22 : F#3 04 . S05 ... : D-3 04 . S00 ... : ... .. . ... : ... .. . ... : ... .. . ...
ROW 23 : G-3 04 . S05 ... : E-3 04 . ... ... : ... .. . ... : ... .. . ... : ... .. . ...
ROW 24 : A-3 04 . ... ... : F#3 04 . ... ... : ... .. . ... : ... .. . ... : ... .. . ...
ROW 25 : ... .. . ... ... : ... .. . ... ... : ... .. . ... : ... .. . ... : ... .. . ...
ROW 26 : A#3 04 . ... ... : G-3 04 . ... ... : ... .. . ... : ... .. . ... : ... .. . ...
ROW 27 : ... .. . ... ... : ... .. . ... ... : ... .. . ... : ... .. . ... : ... .. . ...
ROW 28 : C-4 04 . ... ... : A-3 04 . ... ... : ... .. . ... : ... .. . ... : ... .. . ...
ROW 29 : ... .. . ... ... : ... .. . ... ... : ... .. . ... : ... .. . ... : ... .. . ...
ROW 2A : ... .. . ... ... : ... .. . ... ... : ... .. . ... : ... .. . ... : ... .. . ...
ROW 2B : ... .. . ... ... : ... .. . ... ... : ... .. . ... : ... .. . ... : ... .. . ...
ROW 2C : D-4 04 . ... ... : A#3 04 . ... ... : ... .. . ... : ... .. . ... : ... .. . ...
ROW 2D : ... .. . ... ... : ... .. . ... ... : ... .. . ... : ... .. . ... : ... .. . ...
ROW 2E : ... .. . ... ... : ... .. . ... ... : ... .. . ... : ... .. . ... : ... .. . ...
ROW 2F : ... .. . ... ... : ... .. . ... ... : ... .. . ... : ... .. . ... : ... .. . ...
ROW 30 : A#3 04 . ... ... : G-3 04 . ... ... : ... .. . ... : ... .. . ... : ... .. . ...
ROW 31 : ... .. . ... ... : ... .. . ... ... : ... .. . ... : ... .. . ... : ... .. . ...
ROW 32 : C-4 04 . S05 ... : A-3 04 . S00 ... : ... .. . ... : ... .. . ... : ... .. . ...
ROW 33 : A#3 04 . S05 ... : G-3 04 . ... ... : ... .. . ... : ... .. . ... : ... .. . ...
ROW 34 : G-3 04 . ... ... : D-3 04 . ... ... : ... .. . ... : ... .. . ... : ... .. . ...
ROW 35 : ... .. . ... ... : ... .. . ... ... : ... .. . ... : ... .. . ... : ... .. . ...
ROW 36 : ... .. . S00 ... : ... .. . S00 ... : ... .. . ... : ... .. . ... : ... .. . ...
ROW 37 : ... .. . ... ... : ... .. . ... ... : ... .. . ... : ... .. . ... : ... .. . ...
ROW 38 : G-3 04 . ... ... : D-3 04 . ... ... : ... .. . ... : ... .. . ... : ... .. . ...
ROW 39 : ... .. . ... ... : ... .. . ... ... : ... .. . ... : ... .. . ... : ... .. . ...
ROW 3A : ... .. . 462 ... : ... .. . 462 ... : ... .. . ... : ... .. . ... : ... .. . ...
ROW 3B : ... .. . ... ... : ... .. . ... ... : ... .. . ... : ... .. . ... : ... .. . ...
ROW 3C : ... .. . ... ... : ... .. . ... ... : ... .. . ... : ... .. . ... : ... .. . ...
ROW 3D : ... .. . ... ... : ... .. . ... ... : ... .. . ... : ... .. . ... : ... .. . ...
ROW 3E : ... .. . ... ... : ... .. . ... ... : ... .. . ... : ... .. . ... : ... .. . ...
ROW 3F : ... .. . S00 400 : ... .. . S00 400 : ... .. . ... : ... .. . ... : ... .. . ...

PATTERN 0E
ROW 00 : D#4 04 F P81 V02 : G-3 04 A V02 ... : ... .. . ... : ... .. . ... : ... .. . ...
ROW 01 : ... .. . ... ... : ... .. . ... ... : ... .. . ... : ... .. . ... : ... .. . ...
ROW 02 : G-3 04 . S05 ... : A#2 04 . S05 ... : ... .. . ... : ... .. . ... : ... .. . ...
ROW 03 : A#3 04 . S05 ... : D#3 04 . S05 ... : ... .. . ... : ... .. . ... : ... .. . ...
ROW 04 : D#4 04 . ... ... : G-3 04 . ... ... : ... .. . ... : ... .. . ... : ... .. . ...
ROW 05 : ... .. . ... ... : ... .. . ... ... : ... .. . ... : ... .. . ... : ... .. . ...
ROW 06 : F-4 04 . ... ... : A-3 04 . ... ... : ... .. . ... : ... .. . ... : ... .. . ...
ROW 07 : ... .. . ... ... : ... .. . ... ... : ... .. . ... : ... .. . ... : ... .. . ...
ROW 08 : G-4 04 . ... ... : A#3 04 . ... ... : ... .. . ... : ... .. . ... : ... .. . ...
ROW 09 : ... .. . ... ... : ... .. . ... ... : ... .. . ... : ... .. . ... : ... .. . ...
ROW 0A : ... .. . ... ... : ... .. . ... ... : ... .. . ... : ... .. . ... : ... .. . ...
ROW 0B : ... .. . ... ... : ... .. . ... ... : ... .. . ... : ... .. . ... : ... .. . ...
ROW 0C : A-4 04 . ... ... : C-4 04 . ... ... : ... .. . ... : ... .. . ... : ... .. . ...
ROW 0D : ... .. . ... ... : ... .. . ... ... : ... .. . ... : ... .. . ... : ... .. . ...
ROW 0E : G-4 04 . ... ... : A#3 04 . ... ... : ... .. . ... : ... .. . ... : ... .. . ...
ROW 0F : ... .. . S00 ... : ... .. . S00 ... : ... .. . ... : ... .. . ... : ... .. . ...
ROW 10 : D-4 04 . ... ... : F-3 04 . ... ... : ... .. . ... : ... .. . ... : ... .. . ...
ROW 11 : ... .. . ... ... : ... .. . ... ... : ... .. . ... : ... .. . ... : ... .. . ...
ROW 12 : F-3 04 . S05 ... : A-2 04 . S05 ... : ... .. . ... : ... .. . ... : ... .. . ...
ROW 13 : A-3 04 . S05 ... : D-3 04 . S05 ... : ... .. . ... : ... .. . ... : ... .. . ...
ROW 14 : A#3 04 . ... ... : F-3 04 . ... ... : ... .. . ... : ... .. . ... : ... .. . ...
ROW 15 : ... .. . ... ... : ... .. . ... ... : ... .. . ... : ... .. . ... : ... .. . ...
ROW 16 : C-4 04 . ... ... : G-3 04 . ... ... : ... .. . ... : ... .. . ... : ... .. . ...
ROW 17 : ... .. . ... ... : ... .. . ... ... : ... .. . ... : ... .. . ... : ... .. . ...
ROW 18 : D-4 04 . ... ... : A-3 04 . ... ... : ... .. . ... : ... .. . ... : ... .. . ...
ROW 19 : ... .. . ... ... : ... .. . ... ... : ... .. . ... : ... .. . ... : ... .. . ...
ROW 1A : ... .. . ... ... : ... .. . ... ... : ... .. . ... : ... .. . ... : ... .. . ...
ROW 1B : ... .. . ... ... : ... .. . ... ... : ... .. . ... : ... .. . ... : ... .. . ...
ROW 1C : ... .. . 464 ... : ... .. . 464 ... : ... .. . ... : ... .. . ... : ... .. . ...
ROW 1D : ... .. . ... ... : ... .. . ... ... : ... .. . ... : ... .. . ... : ... .. . ...
ROW 1E : ... .. . ... ... : ... .. . ... ... : ... .. . ... : ... .. . ... : ... .. . ...
ROW 1F : ... .. . ... ... : ... .. . ... ... : ... .. . ... : ... .. . ... : ... .. . ...
ROW 20 : A-3 04 . 400 ... : F#3 04 . 400 ... : ... .. . ... : ... .. . ... : ... .. . ...
ROW 21 : ... .. . ... ... : ... .. . ... ... : ... .. . ... : ... .. . ... : ... .. . ...
ROW 22 : F#3 04 . S05 ... : D-3 04 . S05 ... : ... .. . ... : ... .. . ... : ... .. . ...
ROW 23 : G-3 04 . S05 ... : E-3 04 . S05 ... : ... .. . ... : ... .. . ... : ... .. . ...
ROW 24 : A-3 04 . ... ... : F#3 04 . ... ... : ... .. . ... : ... .. . ... : ... .. . ...
ROW 25 : ... .. . ... ... : ... .. . ... ... : ... .. . ... : ... .. . ... : ... .. . ...
ROW 26 : A#3 04 . ... ... : G-3 04 . ... ... : ... .. . ... : ... .. . ... : ... .. . ...
ROW 27 : ... .. . S00 ... : ... .. . S00 ... : ... .. . ... : ... .. . ... : ... .. . ...
ROW 28 : C-4 04 . ... ... : A-3 04 . ... ... : ... .. . ... : ... .. . ... : ... .. . ...
ROW 29 : ... .. . ... ... : ... .. . ... ... : ... .. . ... : ... .. . ... : ... .. . ...
ROW 2A : ... .. . ... ... : ... .. . ... ... : ... .. . ... : ... .. . ... : ... .. . ...
ROW 2B : ... .. . ... ... : ... .. . ... ... : ... .. . ... : ... .. . ... : ... .. . ...
ROW 2C : D-4 04 . ... ... : A#3 04 . ... ... : ... .. . ... : ... .. . ... : ... .. . ...
ROW 2D : ... .. . ... ... : ... .. . ... ... : ... .. . ... : ... .. . ... : ... .. . ...
ROW 2E : C-4 04 . ... ... : A-3 04 . ... ... : ... .. . ... : ... .. . ... : ... .. . ...
ROW 2F : ... .. . S00 ... : ... .. . S00 ... : ... .. . ... : ... .. . ... : ... .. . ...
ROW 30 : A#3 04 . ... ... : G-3 04 . ... ... : ... .. . ... : ... .. . ... : ... .. . ...
ROW 31 : ... .. . ... ... : ... .. . ... ... : ... .. . ... : ... .. . ... : ... .. . ...
ROW 32 : C-4 04 . S05 ... : A-3 04 . S05 ... : ... .. . ... : ... .. . ... : ... .. . ...
ROW 33 : A#3 04 . S05 ... : G-3 04 . S05 ... : ... .. . ... : ... .. . ... : ... .. . ...
ROW 34 : G-3 04 . ... ... : D-3 04 . ... ... : ... .. . ... : ... .. . ... : ... .. . ...
ROW 35 : ... .. . ... ... : ... .. . ... ... : ... .. . ... : ... .. . ... : ... .. . ...
ROW 36 : ... .. . ... ... : ... .. . ... ... : ... .. . ... : ... .. . ... : ... .. . ...
ROW 37 : ... .. . S00 ... : ... .. . S00 ... : ... .. . ... : ... .. . ... : ... .. . ...
ROW 38 : G-3 04 . ... ... : D-3 04 . ... ... : ... .. . ... : ... .. . ... : ... .. . ...
ROW 39 : ... .. . ... ... : ... .. . ... ... : ... .. . ... : ... .. . ... : ... .. . ...
ROW 3A : ... .. . ... ... : ... .. . ... ... : ... .. . ... : ... .. . ... : ... .. . ...
ROW 3B : ... .. . ... ... : ... .. . ... ... : ... .. . ... : ... .. . ... : ... .. . ...
ROW 3C : ... .. . 484 ... : ... .. . 484 ... : ... .. . ... : ... .. . ... : ... .. . ...
ROW 3D : ... .. . ... ... : ... .. . ... ... : ... .. . ... : ... .. . ... : ... .. . ...
ROW 3E : ... .. . S00 400 : ... .. . S00 400 : ... .. . ... : ... .. . ... : ... .. . ...
ROW 3F : ... .. . ... ... : ... .. . ... ... : ... .. . ... : ... .. . ... : ... .. . ...

# End of export
